<svg width="24" height="24" viewBox="0 0 24 24" fill="none" xmlns="http://www.w3.org/2000/svg">
<path d="M19.3318 0H4.66824C2.22802 0 0.249937 1.97818 0.249937 4.41831V14.0358C0.249937 16.4759 2.22811 18.4541 4.66824 18.4541H6.77265C6.87278 18.4541 6.95392 18.5352 6.95392 18.6353V23.3794C6.95392 23.9403 7.64003 24.2123 8.02427 23.8036L13.0018 18.5112C13.0361 18.4747 13.0839 18.4541 13.1339 18.4541H19.3318C21.7719 18.4541 23.7501 16.4759 23.7501 14.0358V4.41831C23.7501 1.97818 21.7719 0 19.3318 0Z" fill="#DFB460"/>
<path d="M8.81275 16.8051C8.81275 16.6997 8.73419 16.6142 8.63725 16.6142H6.59997C4.23765 16.6142 2.32261 14.5311 2.32261 11.9615V1.83383C2.32261 1.39901 2.37764 0.978215 2.48016 0.578979C1.14792 1.33995 0.249937 2.77419 0.249937 4.41824V14.0357C0.249937 16.4758 2.22811 18.454 4.66824 18.454H6.77265C6.87278 18.454 6.95392 18.5352 6.95392 18.6353V23.3794C6.95392 23.9403 7.64003 24.2122 8.02427 23.8036L8.8127 22.9652V16.8051H8.81275Z" fill="#C29F5A"/>
<path d="M16.9645 5.73403C15.8427 4.61226 14.0239 4.61226 12.9021 5.73403L12.2685 6.36768C12.1174 6.51876 11.8724 6.51876 11.7213 6.36768L11.0978 5.74415C9.976 4.62238 8.15725 4.62238 7.03544 5.74415C5.91367 6.86592 5.91367 8.68467 7.03544 9.80649L11.7217 14.4927C11.8728 14.6438 12.1178 14.6438 12.2688 14.4927L16.9644 9.79636C18.0862 8.67455 18.0862 6.85584 16.9645 5.73403Z" fill="#EC5569"/>
<path d="M16.9645 5.73403C15.8427 4.61226 14.0239 4.61226 12.9021 5.73403L12.2685 6.36768C12.1174 6.51876 11.8724 6.51876 11.7213 6.36768L11.0978 5.74415C9.976 4.62238 8.15725 4.62238 7.03544 5.74415C5.91367 6.86592 5.91367 8.68467 7.03544 9.80649L11.7217 14.4927C11.8728 14.6438 12.1178 14.6438 12.2688 14.4927L16.9644 9.79636C18.0862 8.67455 18.0862 6.85584 16.9645 5.73403Z" fill="#FFF5F5"/>
<path d="M8.53806 9.80642C7.4163 8.68465 7.4163 6.8659 8.53806 5.74408C8.90603 5.37611 9.34919 5.12964 9.81789 5.00313C8.85761 4.74382 7.78923 4.99028 7.03548 5.74408C5.91371 6.86585 5.91371 8.6846 7.03548 9.80642L11.7217 14.4927C11.8728 14.6437 12.1178 14.6437 12.2689 14.4927L12.7466 14.0149L8.53806 9.80642Z" fill="#DCE6EB"/>
</svg>
