<svg width="89" height="30" viewBox="0 0 89 30" fill="none" xmlns="http://www.w3.org/2000/svg">
<rect x="0.5" y="1" width="28" height="28" rx="5" fill="#0087C2"/>
<path d="M38.2345 13H40.305V3.55417H43.1765V1.74057H35.3176V3.55417H38.2345V13ZM47.1012 13.1814C47.9374 13.1814 48.6679 12.995 49.2926 12.6222C49.9274 12.2393 50.3707 11.7557 50.6226 11.1713L49.0206 10.3854C48.8392 10.6977 48.5873 10.9547 48.2649 11.1562C47.9526 11.3476 47.5697 11.4433 47.1163 11.4433C46.5218 11.4433 46.0231 11.262 45.6201 10.8992C45.217 10.5365 44.9853 10.0529 44.9248 9.44837H50.8493C50.8896 9.33754 50.9148 9.21159 50.9248 9.07054C50.945 8.9194 50.9551 8.76827 50.9551 8.61714C50.9551 7.88162 50.7989 7.2116 50.4866 6.60706C50.1742 6.00253 49.7208 5.5189 49.1264 5.15618C48.5319 4.78339 47.8065 4.59699 46.95 4.59699C46.1843 4.59699 45.4891 4.78339 44.8644 5.15618C44.2498 5.52898 43.7611 6.03779 43.3984 6.68263C43.0458 7.31739 42.8694 8.04787 42.8694 8.87406C42.8694 9.67003 43.0458 10.3955 43.3984 11.0504C43.751 11.7053 44.2447 12.2242 44.8795 12.6071C45.5143 12.9899 46.2548 13.1814 47.1012 13.1814ZM46.95 6.22923C47.474 6.22923 47.9072 6.39044 48.2498 6.71286C48.6024 7.0252 48.7989 7.43326 48.8392 7.93704H44.9702C45.081 7.39296 45.3128 6.97482 45.6654 6.68263C46.0281 6.38036 46.4563 6.22923 46.95 6.22923ZM54.9053 13.1814C55.9733 13.1814 56.8297 12.8287 57.4746 12.1234V13H59.3486V7.52898C59.3486 6.95467 59.2025 6.44585 58.9103 6.00253C58.6182 5.55921 58.2151 5.21664 57.7013 4.97482C57.1975 4.72293 56.6081 4.59699 55.933 4.59699C55.1068 4.59699 54.3713 4.79346 53.7265 5.18641C53.0816 5.57936 52.6383 6.09825 52.3965 6.74308L54.0136 7.52898C54.1648 7.15618 54.4015 6.85895 54.724 6.63729C55.0464 6.40555 55.4242 6.28968 55.8574 6.28968C56.3108 6.28968 56.6736 6.41059 56.9456 6.6524C57.2277 6.88414 57.3688 7.17633 57.3688 7.52898V7.80102L54.9204 8.19396C53.9532 8.35517 53.2378 8.66248 52.7743 9.11588C52.3109 9.56928 52.0791 10.1385 52.0791 10.8237C52.0791 11.5491 52.336 12.1234 52.8499 12.5466C53.3638 12.9698 54.0489 13.1814 54.9053 13.1814ZM54.1345 10.7481C54.1345 10.1738 54.5224 9.81109 55.2983 9.65995L57.3688 9.31235V9.64484C57.3688 10.2091 57.1723 10.6877 56.7794 11.0806C56.3965 11.4736 55.8927 11.67 55.268 11.67C54.9355 11.67 54.6635 11.5894 54.4519 11.4282C54.2403 11.2569 54.1345 11.0302 54.1345 10.7481ZM61.1785 13H63.1584V8.17885C63.1584 7.64485 63.3045 7.21663 63.5967 6.89422C63.8888 6.5718 64.2717 6.41059 64.7453 6.41059C65.2289 6.41059 65.6118 6.5718 65.8939 6.89422C66.1861 7.20656 66.3322 7.63477 66.3322 8.17885V13H68.312V8.17885C68.312 7.64485 68.4581 7.21663 68.7503 6.89422C69.0425 6.5718 69.4254 6.41059 69.8989 6.41059C70.3825 6.41059 70.7654 6.5718 71.0475 6.89422C71.3397 7.20656 71.4858 7.63477 71.4858 8.17885V13H73.4657V7.71034C73.4657 7.09573 73.3296 6.55669 73.0576 6.09321C72.7956 5.61966 72.4379 5.2519 71.9845 4.98994C71.5311 4.72797 71.0123 4.59699 70.4279 4.59699C69.8838 4.59699 69.3901 4.70782 68.9468 4.92948C68.5135 5.15115 68.1558 5.48364 67.8737 5.92696C67.6319 5.52394 67.2843 5.20152 66.8309 4.95971C66.3876 4.7179 65.8888 4.59699 65.3347 4.59699C64.8208 4.59699 64.3624 4.69775 63.9594 4.89926C63.5563 5.10077 63.249 5.40303 63.0375 5.80606V4.77835H61.1785V13ZM36.2395 28H40.9851C42.2446 28 43.2269 27.6977 43.9322 27.0932C44.6476 26.4786 45.0053 25.6322 45.0053 24.5542C45.0053 24.0403 44.9045 23.5567 44.703 23.1033C44.5015 22.6499 44.1488 22.262 43.6451 21.9396C43.9574 21.6574 44.1841 21.3451 44.3252 21.0025C44.4763 20.66 44.5519 20.2972 44.5519 19.9144C44.5519 18.927 44.2345 18.1511 43.5997 17.5869C42.965 17.0227 42.0934 16.7406 40.9851 16.7406H36.2395V28ZM38.2949 21.1083V18.4937H41.0909C41.5141 18.4937 41.8516 18.6096 42.1035 18.8413C42.3554 19.0731 42.4813 19.3854 42.4813 19.7784C42.4813 20.1713 42.3554 20.4937 42.1035 20.7456C41.8516 20.9874 41.5141 21.1083 41.0909 21.1083H38.2949ZM38.2949 26.1864V22.9068H41.1967C41.7307 22.9068 42.1539 23.0579 42.4662 23.3602C42.7886 23.6524 42.9498 24.0504 42.9498 24.5542C42.9498 25.0479 42.7886 25.4458 42.4662 25.7481C42.1539 26.0403 41.7307 26.1864 41.1967 26.1864H38.2949ZM49.4547 28.1814C49.9686 28.1814 50.422 28.0856 50.8149 27.8942C51.2179 27.6927 51.5353 27.4005 51.7671 27.0176V28H53.6411V19.7784H51.6613V24.5995C51.6613 25.1436 51.5051 25.5768 51.1927 25.8992C50.8804 26.2116 50.4824 26.3678 49.9988 26.3678C49.5051 26.3678 49.1021 26.2116 48.7897 25.8992C48.4875 25.5869 48.3363 25.1688 48.3363 24.6448V19.7784H46.3565V24.8111C46.3565 25.8186 46.6285 26.6348 47.1726 27.2594C47.7268 27.8741 48.4875 28.1814 49.4547 28.1814ZM55.4815 18.8564H57.4614V16.7406H55.4815V18.8564ZM55.4815 28H57.4614V19.7784H55.4815V28ZM59.2894 28H61.2692V16.7406H59.2894V28ZM66.9209 28.1814C67.4549 28.1814 67.9486 28.0907 68.402 27.9093C68.8554 27.7179 69.2332 27.4458 69.5355 27.0932V28H71.4095V16.7406H69.4297V20.6096C68.8151 19.9345 67.9738 19.597 66.9058 19.597C66.1299 19.597 65.4247 19.7884 64.7899 20.1713C64.1652 20.5441 63.6715 21.0579 63.3088 21.7129C62.9461 22.3577 62.7647 23.0831 62.7647 23.8892C62.7647 24.6952 62.9461 25.4257 63.3088 26.0806C63.6715 26.7254 64.1652 27.2393 64.7899 27.6222C65.4146 27.995 66.1249 28.1814 66.9209 28.1814ZM67.1325 26.3678C66.6891 26.3678 66.2912 26.262 65.9385 26.0504C65.5859 25.8388 65.3088 25.5466 65.1073 25.1738C64.9158 24.7909 64.8201 24.3627 64.8201 23.8892C64.8201 23.4156 64.9158 22.9925 65.1073 22.6197C65.3088 22.2469 65.5859 21.9547 65.9385 21.7431C66.2912 21.5214 66.6891 21.4106 67.1325 21.4106C67.5758 21.4106 67.9687 21.5164 68.3113 21.728C68.6639 21.9396 68.936 22.2317 69.1274 22.6045C69.3289 22.9773 69.4297 23.4055 69.4297 23.8892C69.4297 24.3728 69.3289 24.801 69.1274 25.1738C68.936 25.5466 68.6639 25.8388 68.3113 26.0504C67.9687 26.262 67.5758 26.3678 67.1325 26.3678ZM77.1507 28.1814C77.987 28.1814 78.7175 27.995 79.3421 27.6222C79.9769 27.2393 80.4202 26.7557 80.6721 26.1713L79.0701 25.3854C78.8887 25.6977 78.6369 25.9547 78.3144 26.1562C78.0021 26.3476 77.6192 26.4433 77.1658 26.4433C76.5714 26.4433 76.0726 26.262 75.6696 25.8992C75.2666 25.5365 75.0348 25.0529 74.9744 24.4484H80.8988C80.9391 24.3375 80.9643 24.2116 80.9744 24.0705C80.9945 23.9194 81.0046 23.7683 81.0046 23.6171C81.0046 22.8816 80.8484 22.2116 80.5361 21.6071C80.2237 21.0025 79.7703 20.5189 79.1759 20.1562C78.5814 19.7834 77.856 19.597 76.9996 19.597C76.2338 19.597 75.5386 19.7834 74.9139 20.1562C74.2993 20.529 73.8107 21.0378 73.4479 21.6826C73.0953 22.3174 72.919 23.0479 72.919 23.8741C72.919 24.67 73.0953 25.3955 73.4479 26.0504C73.8006 26.7053 74.2943 27.2242 74.929 27.6071C75.5638 27.9899 76.3044 28.1814 77.1507 28.1814ZM76.9996 21.2292C77.5235 21.2292 77.9568 21.3904 78.2993 21.7129C78.652 22.0252 78.8484 22.4333 78.8887 22.937H75.0197C75.1306 22.393 75.3623 21.9748 75.7149 21.6826C76.0777 21.3804 76.5059 21.2292 76.9996 21.2292ZM82.5054 28H84.4853V23.4207C84.4853 22.796 84.6566 22.3124 84.9991 21.9698C85.3518 21.6171 85.8052 21.4408 86.3593 21.4408H87.0697V19.6877H86.586C86.0822 19.6877 85.6389 19.7784 85.2561 19.9597C84.8732 20.1411 84.576 20.4685 84.3644 20.9421V19.7784H82.5054V28Z" fill="white"/>
<path d="M0.374023 5.32917C0.374023 2.73302 2.47862 0.628418 5.07477 0.628418H14.821V15.0754H0.374023V5.32917Z" fill="#0087C2"/>
<path d="M0.374023 15.075H14.821V29.5219H5.07477C2.47862 29.5219 0.374023 27.4173 0.374023 24.8212V15.075Z" fill="#DFB460"/>
<path d="M14.8208 0.62793H24.567C27.1632 0.62793 29.2678 2.73253 29.2678 5.32868V15.0749H14.8208V0.62793Z" fill="#DFB460"/>
<path d="M14.8208 15.075H29.2678V24.8212C29.2678 27.4173 27.1632 29.5219 24.567 29.5219H14.8208V15.075Z" fill="#0087C2"/>
</svg>
