<svg width="46" height="46" viewBox="0 0 46 46" fill="none" xmlns="http://www.w3.org/2000/svg">
<g clip-path="url(#clip0)">
<path d="M34.5 3.08142H11.5L0 23.0001L11.5 42.9187H34.5L46 23.0001L34.5 3.08142Z" fill="#8BC4FF"/>
<path d="M15.9314 35.2523C11.2946 43.2899 11.5135 42.9189 11.5 42.9189L0 23H8.85311C16.21 35.7433 15.9224 35.2523 15.9314 35.2523Z" fill="#9235F2"/>
<path d="M15.9314 10.7477C15.9224 10.7477 16.207 10.262 8.85311 23H0L11.5 3.08101C11.5132 3.08101 11.2948 2.71032 15.9314 10.7477V10.7477Z" fill="#A551FD"/>
<path d="M34.4914 3.08105L30.0687 10.7478H15.9314L11.5087 3.08105H34.4914Z" fill="#A551FD"/>
<path d="M46 23H37.1469L30.0734 10.7477C30.0644 10.7477 29.8577 11.1134 34.4913 3.08107C34.5048 3.08098 33.9523 2.13241 46 23Z" fill="#9235F2"/>
<path d="M46.0001 23C33.9508 43.8704 34.5049 42.919 34.4915 42.919C29.8615 34.8929 30.0646 35.2524 30.0736 35.2524L37.147 23H46.0001Z" fill="#8A2BEC"/>
<path d="M34.4914 42.9189H11.5087L15.9314 35.2522H30.0687L34.4914 42.9189Z" fill="#8A2BEC"/>
<path d="M37.1468 23.0001L30.0734 35.2523H15.9264L8.85303 23.0001L15.9264 10.7478H30.0734L37.1468 23.0001Z" fill="#9235F2"/>
<path d="M33.7812 23L28.3906 32.3374H17.6094L12.2188 23L17.6094 13.6626H28.3906L33.7812 23Z" fill="#A551FD"/>
<path d="M34.5 42.9333L34.4913 42.9189Z" fill="#8BC4FF"/>
<path d="M11.5086 3.0809L11.5 3.06653Z" fill="#8BC4FF"/>
<path d="M11.5086 42.9189L11.5 42.9333Z" fill="#8BC4FF"/>
<path d="M34.5 3.06653L34.4913 3.0809Z" fill="#8BC4FF"/>
</g>
<defs>
<clipPath id="clip0">
<rect width="46" height="46" fill="white"/>
</clipPath>
</defs>
</svg>
