<svg width="51" height="22" viewBox="0 0 51 22" fill="none" xmlns="http://www.w3.org/2000/svg">
<g filter="url(#filter0_d)">
<path d="M8.10938 6.80469H11.8828V18H9.58594V14.5859L7.65625 14.4609H7.64844V18H5.35156V14.6719L4.50781 12.7344H5.35156V9.35156C5.35156 8.88281 5.46094 8.45573 5.67969 8.07031C5.89844 7.6849 6.21094 7.3776 6.61719 7.14844C7.02865 6.91927 7.52604 6.80469 8.10938 6.80469ZM7.64844 12.7344H9.58594V8.69531H9.57812C9.35938 8.6849 9.16146 8.67969 8.98438 8.67969C8.49479 8.67969 8.16146 8.72656 7.98438 8.82031C7.76042 8.9401 7.64844 9.28385 7.64844 9.85156V12.7344ZM16.9297 6.80469H19.2188V18H16.9297V12.3516L15.2734 10.1562V18H13.0156V6.78906L15.2266 6.79688L15.2812 6.85938L16.9297 9.03906V6.80469ZM24.6016 6.80469H26.8906V18H23.1172C22.5391 18 22.0443 17.8854 21.6328 17.6562C21.2214 17.4271 20.9062 17.1198 20.6875 16.7344C20.474 16.349 20.3672 15.9219 20.3672 15.4531V6.80469H22.6562V14.8906C22.6562 15.4688 22.7656 15.8229 22.9844 15.9531C23.1823 16.0677 23.5677 16.125 24.1406 16.125C24.25 16.125 24.3672 16.1224 24.4922 16.1172H24.6016V6.80469ZM21.0625 6.66406C21.8177 6.4974 22.4453 6.3125 22.9453 6.10938C23.4505 5.90104 23.8464 5.70573 24.1328 5.52344C24.4245 5.33594 24.6328 5.17969 24.7578 5.05469L24.9375 4.86719L26.5625 5.46094L25.3672 6.57031L25.125 6.49219C24.9583 6.44531 24.7474 6.40885 24.4922 6.38281C24.2422 6.35677 24.0156 6.34375 23.8125 6.34375C23.5781 6.34375 23.3125 6.35417 23.0156 6.375C22.474 6.40625 21.8229 6.5026 21.0625 6.66406ZM31.7891 6.80469C32.3672 6.80469 32.862 6.91927 33.2734 7.14844C33.6849 7.3776 34 7.6849 34.2188 8.07031C34.4375 8.45573 34.5469 8.88281 34.5469 9.35156V11.0781C34.2656 11.3438 33.9505 11.6172 33.6016 11.8984C33.9505 12.1849 34.2656 12.4609 34.5469 12.7266V15.4531C34.5469 15.9219 34.4375 16.349 34.2188 16.7344C34 17.1198 33.6849 17.4271 33.2734 17.6562C32.862 17.8854 32.3672 18 31.7891 18H28.0156V6.80469H31.7891ZM30.3047 8.69531V11.7891C30.9453 11.3568 31.651 10.8203 32.4219 10.1797V10.0781L32.4141 9.71094C32.4036 9.22135 32.2786 8.92448 32.0391 8.82031C31.8411 8.73177 31.4766 8.6875 30.9453 8.6875C30.8411 8.6875 30.7292 8.6901 30.6094 8.69531H30.3047ZM32.4219 13.6172C32.2552 13.4766 32.0859 13.3385 31.9141 13.2031C31.2995 13.6458 30.763 14.0234 30.3047 14.3359V16.1094H30.8672C31.1953 16.1094 31.4688 16.099 31.6875 16.0781C31.9115 16.0573 32.0781 15.9922 32.1875 15.8828C32.3021 15.7682 32.3698 15.5807 32.3906 15.3203C32.4115 15.0599 32.4219 14.6953 32.4219 14.2266V13.6172ZM39.9531 8.36719L38.7969 8.32031V16.3672L39.9531 16.3906V18H35.6797L35 16.5469L36.5 16.4375V8.32031L35.6797 8.35938L35 6.8125L39.9531 6.80469V8.36719ZM46.4922 11.1641L44.6641 11.0312V8.69531H44.6172C44.4922 8.6901 44.3776 8.6875 44.2734 8.6875C43.7839 8.6875 43.4401 8.72917 43.2422 8.8125C43.0443 8.89583 42.9375 9.15104 42.9219 9.57812C42.9167 9.64583 42.9115 9.72917 42.9062 9.82812C42.9062 9.92708 42.9036 10.0286 42.8984 10.1328C42.8984 10.2318 42.8984 10.3151 42.8984 10.3828V10.4922L46.8594 13.3281V15.4453C46.8594 15.9141 46.75 16.3411 46.5312 16.7266C46.3125 17.112 45.9974 17.4193 45.5859 17.6484C45.1797 17.8776 44.6875 17.9922 44.1094 17.9922H40.7812V14L42.6094 14.1328L42.8359 16.1016C43.0286 16.1016 43.2031 16.1042 43.3594 16.1094C43.4688 16.1146 43.5703 16.1172 43.6641 16.1172C43.9141 16.1172 44.125 16.1016 44.2969 16.0703C44.4688 16.0339 44.5859 15.9219 44.6484 15.7344C44.7109 15.5417 44.7422 15.2266 44.7422 14.7891V14.6484L40.7812 11.7578V9.35156C40.7812 8.88281 40.888 8.45573 41.1016 8.07031C41.3203 7.6849 41.6354 7.3776 42.0469 7.14844C42.4583 6.91927 42.9531 6.80469 43.5312 6.80469H46.7656L46.4922 11.1641Z" fill="#3392E0"/>
</g>
<defs>
<filter id="filter0_d" x="0.507812" y="0.867188" width="50.3516" height="21.1328" filterUnits="userSpaceOnUse" color-interpolation-filters="sRGB">
<feFlood flood-opacity="0" result="BackgroundImageFix"/>
<feColorMatrix in="SourceAlpha" type="matrix" values="0 0 0 0 0 0 0 0 0 0 0 0 0 0 0 0 0 0 127 0"/>
<feOffset/>
<feGaussianBlur stdDeviation="2"/>
<feColorMatrix type="matrix" values="0 0 0 0 0.2 0 0 0 0 0.572549 0 0 0 0 0.878431 0 0 0 0.3 0"/>
<feBlend mode="normal" in2="BackgroundImageFix" result="effect1_dropShadow"/>
<feBlend mode="normal" in="SourceGraphic" in2="effect1_dropShadow" result="shape"/>
</filter>
</defs>
</svg>
