<svg width="58" height="35" viewBox="0 0 58 35" fill="none" xmlns="http://www.w3.org/2000/svg">
<g filter="url(#filter0_d)">
<path d="M7.875 4.80469H11.6484V16H9.35156V12.5859L7.42188 12.4609H7.41406V16H5.11719V12.6719L4.27344 10.7344H5.11719V7.35156C5.11719 6.88281 5.22656 6.45573 5.44531 6.07031C5.66406 5.6849 5.97656 5.3776 6.38281 5.14844C6.79427 4.91927 7.29167 4.80469 7.875 4.80469ZM7.41406 10.7344H9.35156V6.69531H9.34375C9.125 6.6849 8.92708 6.67969 8.75 6.67969C8.26042 6.67969 7.92708 6.72656 7.75 6.82031C7.52604 6.9401 7.41406 7.28385 7.41406 7.85156V10.7344ZM16.6406 16.0234L15.8672 13.0781C15.5964 13.276 15.3385 13.4583 15.0938 13.625V16H12.7969V4.80469H16.125C16.7083 4.80469 17.2031 4.91927 17.6094 5.14844C18.0208 5.3776 18.3359 5.6849 18.5547 6.07031C18.7734 6.45573 18.8828 6.88281 18.8828 7.35156V10.6719C18.5755 10.9635 18.2292 11.2656 17.8438 11.5781L19.0156 16.0234H16.6406ZM15.0938 6.69531V11.1094C15.6562 10.7604 16.2109 10.3177 16.7578 9.78125V8.57812C16.7578 8.11979 16.7474 7.76302 16.7266 7.50781C16.7109 7.2526 16.651 7.06771 16.5469 6.95312C16.4479 6.83333 16.2839 6.75781 16.0547 6.72656C15.862 6.70573 15.6068 6.69531 15.2891 6.69531H15.0938ZM22.2109 6.53125H22.2031V12.8906C22.2031 13.4688 22.3099 13.8229 22.5234 13.9531C22.7057 14.0625 23.0677 14.1172 23.6094 14.1172C23.7344 14.1172 23.8698 14.1146 24.0156 14.1094H25.1641V16H22.6641C22.0859 16 21.5911 15.8854 21.1797 15.6562C20.7682 15.4271 20.4531 15.1198 20.2344 14.7344C20.0208 14.349 19.9141 13.9219 19.9141 13.4531V4.80469H25.1641V6.74219L22.2109 6.53125ZM28.7344 4.80469H32.5078V16H30.2109V12.5859L28.2812 12.4609H28.2734V16H25.9766V12.6719L25.1328 10.7344H25.9766V7.35156C25.9766 6.88281 26.0859 6.45573 26.3047 6.07031C26.5234 5.6849 26.8359 5.3776 27.2422 5.14844C27.6536 4.91927 28.151 4.80469 28.7344 4.80469ZM28.2734 10.7344H30.2109V6.69531H30.2031C29.9844 6.6849 29.7865 6.67969 29.6094 6.67969C29.1198 6.67969 28.7865 6.72656 28.6094 6.82031C28.3854 6.9401 28.2734 7.28385 28.2734 7.85156V10.7344ZM37.5547 4.80469H39.8438V16H37.5547V10.3516L35.8984 8.15625V16H33.6406V4.78906L35.8516 4.79688L35.9062 4.85938L37.5547 7.03906V4.80469ZM45.5391 4.80469V13.4531C45.5391 13.9219 45.4297 14.349 45.2109 14.7344C44.9922 15.1198 44.6771 15.4271 44.2656 15.6562C43.8542 15.8854 43.3594 16 42.7812 16L40.5938 15.9922V12.0469H42.4297L42.2891 14.1016C42.6849 14.0911 42.9453 13.9948 43.0703 13.8125C43.1849 13.6406 43.2422 13.3177 43.2422 12.8438V6.30469L41.5547 6.35938L40.875 4.8125H43.2422V4.80469H45.5391ZM52.75 6.48438C52.7708 6.55729 52.7891 6.66146 52.8047 6.79688C52.8255 6.92708 52.8359 7.03385 52.8359 7.11719V13.6406C52.8359 14.1094 52.7266 14.5365 52.5078 14.9219C52.2891 15.3021 51.974 15.6068 51.5625 15.8359C51.1562 16.0651 50.6615 16.1797 50.0781 16.1797H49.3047C48.7266 16.1797 48.2318 16.0651 47.8203 15.8359C47.4089 15.6068 47.0938 15.3021 46.875 14.9219C46.6615 14.5365 46.5547 14.1094 46.5547 13.6406V7.16406C46.5547 6.69531 46.6615 6.27083 46.875 5.89062C47.0938 5.50521 47.4089 5.19792 47.8203 4.96875C48.2318 4.73958 48.7266 4.625 49.3047 4.625H50.0781C50.8021 4.625 51.3932 4.79948 51.8516 5.14844C52.3099 5.49219 52.6094 5.9375 52.75 6.48438ZM50.5391 8.39844C50.5391 7.90885 50.526 7.52865 50.5 7.25781C50.474 6.98698 50.401 6.79948 50.2812 6.69531C50.1667 6.58594 49.9714 6.53125 49.6953 6.53125C49.4193 6.53125 49.2214 6.58594 49.1016 6.69531C48.9818 6.79948 48.9089 6.98698 48.8828 7.25781C48.8568 7.52865 48.8438 7.90885 48.8438 8.39844V12.4062C48.8438 12.8958 48.8568 13.276 48.8828 13.5469C48.9089 13.8177 48.9792 14.0078 49.0938 14.1172C49.2135 14.2214 49.4141 14.2734 49.6953 14.2734C49.9766 14.2734 50.1745 14.2214 50.2891 14.1172C50.4089 14.0078 50.4792 13.8177 50.5 13.5469C50.526 13.276 50.5391 12.8958 50.5391 12.4062V8.39844Z" fill="#D92BD2"/>
<path d="M4.29883 21.1074C4.29883 20.7559 4.38086 20.4355 4.54492 20.1465C4.70898 19.8574 4.94336 19.627 5.24805 19.4551C5.55664 19.2832 5.92969 19.1973 6.36719 19.1973L6.97656 19.2031V20.6152L6.66016 20.627C6.40234 20.6426 6.23047 20.7207 6.14453 20.8613C6.0625 20.998 6.02148 21.2383 6.02148 21.582V28.0391C6.02148 28.3828 6.06055 28.6211 6.13867 28.7539C6.2207 28.8867 6.39453 28.9609 6.66016 28.9766L6.97656 28.9883V30.4004L6.36719 30.4062C5.92969 30.4062 5.55664 30.3203 5.24805 30.1484C4.94336 29.9766 4.70898 29.7461 4.54492 29.457C4.38086 29.168 4.29883 28.8477 4.29883 28.4961V21.1074ZM12.9766 20.6035H15.0742V29H13.3516V22.3672L12.2383 23.5918V29H10.5156V23.5918L9.40234 22.3672V29H7.68555V20.6035H9.77734L11.377 22.1797L12.9766 20.6035ZM19.1406 21.7754L18.2734 21.7402V27.7754L19.1406 27.793V29H15.9355L15.4258 27.9102L16.5508 27.8281V21.7402L15.9355 21.7695L15.4258 20.6094L19.1406 20.6035V21.7754ZM21.5371 21.8984H21.5312V26.668C21.5312 27.1016 21.6113 27.3672 21.7715 27.4648C21.9082 27.5469 22.1797 27.5879 22.5859 27.5879C22.6797 27.5879 22.7812 27.5859 22.8906 27.582H23.752V29H21.877C21.4434 29 21.0723 28.9141 20.7637 28.7422C20.4551 28.5703 20.2188 28.3398 20.0547 28.0508C19.8945 27.7617 19.8145 27.4414 19.8145 27.0898V20.6035H23.752V22.0566L21.5371 21.8984ZM27.5312 20.6035H29.248V29H27.5312V26.4395L26.0781 26.3457H26.0723V29H24.3496V26.5039L23.7168 25.0508H24.3496V20.6035H26.0723V25.0508H27.5312V20.6035ZM32.207 20.6035H35.0371V29H33.3145V26.4395L31.8672 26.3457H31.8613V29H30.1387V26.5039L29.5059 25.0508H30.1387V22.5137C30.1387 22.1621 30.2207 21.8418 30.3848 21.5527C30.5488 21.2637 30.7832 21.0332 31.0879 20.8613C31.3965 20.6895 31.7695 20.6035 32.207 20.6035ZM31.8613 25.0508H33.3145V22.0215H33.3086C33.1445 22.0137 32.9961 22.0098 32.8633 22.0098C32.4961 22.0098 32.2461 22.0449 32.1133 22.1152C31.9453 22.2051 31.8613 22.4629 31.8613 22.8887V25.0508ZM40.252 22.0566L37.6211 21.8984V25.0508H40.252V26.5039L37.6211 26.3457V27.6992L40.252 27.541V28.9941H37.6211L35.9043 29V26.5039L35.2656 25.0508H35.9043V20.6035H40.252V22.0566ZM44.8398 25.7305L45.0449 29H41.0137V20.6035H42.7305V27.7051H42.7422L43.4863 27.6523L43.4688 25.8359L44.8398 25.7305ZM47.4414 20.6035H50.2715V29H48.5488V26.4395L47.1016 26.3457H47.0957V29H45.373V26.5039L44.7402 25.0508H45.373V22.5137C45.373 22.1621 45.4551 21.8418 45.6191 21.5527C45.7832 21.2637 46.0176 21.0332 46.3223 20.8613C46.6309 20.6895 47.0039 20.6035 47.4414 20.6035ZM47.0957 25.0508H48.5488V22.0215H48.543C48.3789 22.0137 48.2305 22.0098 48.0977 22.0098C47.7305 22.0098 47.4805 22.0449 47.3477 22.1152C47.1797 22.2051 47.0957 22.4629 47.0957 22.8887V25.0508ZM53.8984 28.4961C53.8984 28.8477 53.8164 29.168 53.6523 29.457C53.4922 29.7461 53.2578 29.9766 52.9492 30.1484C52.6406 30.3203 52.2695 30.4062 51.8359 30.4062L51.2207 30.4004V28.9883L51.543 28.9766C51.8047 28.9609 51.9766 28.8848 52.0586 28.748C52.1406 28.6113 52.1816 28.3594 52.1816 27.9922H52.1758V21.582C52.1758 21.2383 52.1328 20.998 52.0469 20.8613C51.9648 20.7207 51.7969 20.6426 51.543 20.627L51.2207 20.6152V19.2031L51.8359 19.1973C52.2695 19.1973 52.6406 19.2832 52.9492 19.4551C53.2578 19.627 53.4922 19.8574 53.6523 20.1465C53.8164 20.4355 53.8984 20.7559 53.8984 21.1074V28.4961Z" fill="#D92BD2"/>
</g>
<defs>
<filter id="filter0_d" x="0.273438" y="0.625" width="57.625" height="33.7812" filterUnits="userSpaceOnUse" color-interpolation-filters="sRGB">
<feFlood flood-opacity="0" result="BackgroundImageFix"/>
<feColorMatrix in="SourceAlpha" type="matrix" values="0 0 0 0 0 0 0 0 0 0 0 0 0 0 0 0 0 0 127 0"/>
<feOffset/>
<feGaussianBlur stdDeviation="2"/>
<feColorMatrix type="matrix" values="0 0 0 0 0.85098 0 0 0 0 0.168627 0 0 0 0 0.823529 0 0 0 0.3 0"/>
<feBlend mode="normal" in2="BackgroundImageFix" result="effect1_dropShadow"/>
<feBlend mode="normal" in="SourceGraphic" in2="effect1_dropShadow" result="shape"/>
</filter>
</defs>
</svg>
