<svg width="44" height="20" viewBox="0 0 44 20" fill="none" xmlns="http://www.w3.org/2000/svg">
<g filter="url(#filter0_d)">
<path d="M7.99219 4.80469H11.7656V16H9.46875V12.5859L7.53906 12.4609H7.53125V16H5.23438V12.6719L4.39062 10.7344H5.23438V7.35156C5.23438 6.88281 5.34375 6.45573 5.5625 6.07031C5.78125 5.6849 6.09375 5.3776 6.5 5.14844C6.91146 4.91927 7.40885 4.80469 7.99219 4.80469ZM7.53125 10.7344H9.46875V6.69531H9.46094C9.24219 6.6849 9.04427 6.67969 8.86719 6.67969C8.3776 6.67969 8.04427 6.72656 7.86719 6.82031C7.64323 6.9401 7.53125 7.28385 7.53125 7.85156V10.7344ZM18.3516 4.80469V6.74219L16.5234 6.55469V16H14.2266V6.51562L12.2812 6.74219V4.80469H18.3516ZM24.7812 6.74219L21.2734 6.53125V10.7344H24.7812V12.6719L21.2734 12.4609V14.2656L24.7812 14.0547V15.9922H21.2734L18.9844 16V12.6719L18.1328 10.7344H18.9844V4.80469H24.7812V6.74219ZM29.6875 4.80469H31.9766V16H29.6875V10.3516L28.0312 8.15625V16H25.7734V4.78906L27.9844 4.79688L28.0391 4.85938L29.6875 7.03906V4.80469ZM35.8984 4.80469H39.6719V16H37.375V12.5859L35.4453 12.4609H35.4375V16H33.1406V12.6719L32.2969 10.7344H33.1406V7.35156C33.1406 6.88281 33.25 6.45573 33.4688 6.07031C33.6875 5.6849 34 5.3776 34.4062 5.14844C34.8177 4.91927 35.3151 4.80469 35.8984 4.80469ZM35.4375 10.7344H37.375V6.69531H37.3672C37.1484 6.6849 36.9505 6.67969 36.7734 6.67969C36.2839 6.67969 35.9505 6.72656 35.7734 6.82031C35.5495 6.9401 35.4375 7.28385 35.4375 7.85156V10.7344Z" fill="#3392E0"/>
</g>
<defs>
<filter id="filter0_d" x="0.390625" y="0.789062" width="43.2812" height="19.2109" filterUnits="userSpaceOnUse" color-interpolation-filters="sRGB">
<feFlood flood-opacity="0" result="BackgroundImageFix"/>
<feColorMatrix in="SourceAlpha" type="matrix" values="0 0 0 0 0 0 0 0 0 0 0 0 0 0 0 0 0 0 127 0"/>
<feOffset/>
<feGaussianBlur stdDeviation="2"/>
<feColorMatrix type="matrix" values="0 0 0 0 0.2 0 0 0 0 0.572549 0 0 0 0 0.878431 0 0 0 0.3 0"/>
<feBlend mode="normal" in2="BackgroundImageFix" result="effect1_dropShadow"/>
<feBlend mode="normal" in="SourceGraphic" in2="effect1_dropShadow" result="shape"/>
</filter>
</defs>
</svg>
