<svg width="57" height="23" viewBox="0 0 57 23" fill="none" xmlns="http://www.w3.org/2000/svg">
<g filter="url(#filter0_d)">
<path d="M7.28906 8.53125H7.28125V14.8906C7.28125 15.4688 7.38802 15.8229 7.60156 15.9531C7.78385 16.0625 8.14583 16.1172 8.6875 16.1172C8.8125 16.1172 8.94792 16.1146 9.09375 16.1094H10.2422V18H7.74219C7.16406 18 6.66927 17.8854 6.25781 17.6562C5.84635 17.4271 5.53125 17.1198 5.3125 16.7344C5.09896 16.349 4.99219 15.9219 4.99219 15.4531V6.80469H10.2422V8.74219L7.28906 8.53125ZM16.8516 8.74219L13.3438 8.53125V12.7344H16.8516V14.6719L13.3438 14.4609V16.2656L16.8516 16.0547V17.9922H13.3438L11.0547 18V14.6719L10.2031 12.7344H11.0547V6.80469H16.8516V8.74219ZM11.2656 6.66406C12.0208 6.4974 12.6484 6.3125 13.1484 6.10938C13.6536 5.90104 14.0495 5.70573 14.3359 5.52344C14.6276 5.33594 14.8359 5.17969 14.9609 5.05469L15.1406 4.86719L16.7656 5.46094L15.5703 6.57031L15.3281 6.49219C15.1615 6.44531 14.9505 6.40885 14.6953 6.38281C14.4453 6.35677 14.2188 6.34375 14.0156 6.34375C13.7812 6.34375 13.5156 6.35417 13.2188 6.375C12.6771 6.40625 12.026 6.5026 11.2656 6.66406ZM21.7031 18.0234L20.9297 15.0781C20.6589 15.276 20.401 15.4583 20.1562 15.625V18H17.8594V6.80469H21.1875C21.7708 6.80469 22.2656 6.91927 22.6719 7.14844C23.0833 7.3776 23.3984 7.6849 23.6172 8.07031C23.8359 8.45573 23.9453 8.88281 23.9453 9.35156V12.6719C23.638 12.9635 23.2917 13.2656 22.9062 13.5781L24.0781 18.0234H21.7031ZM20.1562 8.69531V13.1094C20.7188 12.7604 21.2734 12.3177 21.8203 11.7812V10.5781C21.8203 10.1198 21.8099 9.76302 21.7891 9.50781C21.7734 9.2526 21.7135 9.06771 21.6094 8.95312C21.5104 8.83333 21.3464 8.75781 21.1172 8.72656C20.9245 8.70573 20.6693 8.69531 20.3516 8.69531H20.1562ZM28.8203 6.80469C29.3984 6.80469 29.8932 6.91927 30.3047 7.14844C30.7161 7.3776 31.0312 7.6849 31.25 8.07031C31.4688 8.45573 31.5781 8.88281 31.5781 9.35156V11.0781C31.2969 11.3438 30.9818 11.6172 30.6328 11.8984C30.9818 12.1849 31.2969 12.4609 31.5781 12.7266V15.4531C31.5781 15.9219 31.4688 16.349 31.25 16.7344C31.0312 17.1198 30.7161 17.4271 30.3047 17.6562C29.8932 17.8854 29.3984 18 28.8203 18H25.0469V6.80469H28.8203ZM27.3359 8.69531V11.7891C27.9766 11.3568 28.6823 10.8203 29.4531 10.1797V10.0781L29.4453 9.71094C29.4349 9.22135 29.3099 8.92448 29.0703 8.82031C28.8724 8.73177 28.5078 8.6875 27.9766 8.6875C27.8724 8.6875 27.7604 8.6901 27.6406 8.69531H27.3359ZM29.4531 13.6172C29.2865 13.4766 29.1172 13.3385 28.9453 13.2031C28.3307 13.6458 27.7943 14.0234 27.3359 14.3359V16.1094H27.8984C28.2266 16.1094 28.5 16.099 28.7188 16.0781C28.9427 16.0573 29.1094 15.9922 29.2188 15.8828C29.3333 15.7682 29.401 15.5807 29.4219 15.3203C29.4427 15.0599 29.4531 14.6953 29.4531 14.2266V13.6172ZM38.5547 8.74219L35.0469 8.53125V12.7344H38.5547V14.6719L35.0469 14.4609V16.2656L38.5547 16.0547V17.9922H35.0469L32.7578 18V14.6719L31.9062 12.7344H32.7578V6.80469H38.5547V8.74219ZM43.4062 18.0234L42.6328 15.0781C42.362 15.276 42.1042 15.4583 41.8594 15.625V18H39.5625V6.80469H42.8906C43.474 6.80469 43.9688 6.91927 44.375 7.14844C44.7865 7.3776 45.1016 7.6849 45.3203 8.07031C45.5391 8.45573 45.6484 8.88281 45.6484 9.35156V12.6719C45.3411 12.9635 44.9948 13.2656 44.6094 13.5781L45.7812 18.0234H43.4062ZM41.8594 8.69531V13.1094C42.4219 12.7604 42.9766 12.3177 43.5234 11.7812V10.5781C43.5234 10.1198 43.513 9.76302 43.4922 9.50781C43.4766 9.2526 43.4167 9.06771 43.3125 8.95312C43.2135 8.83333 43.0495 8.75781 42.8203 8.72656C42.6276 8.70573 42.3724 8.69531 42.0547 8.69531H41.8594ZM52.7969 8.48438C52.8177 8.55729 52.8359 8.66146 52.8516 8.79688C52.8724 8.92708 52.8828 9.03385 52.8828 9.11719V15.6406C52.8828 16.1094 52.7734 16.5365 52.5547 16.9219C52.3359 17.3021 52.0208 17.6068 51.6094 17.8359C51.2031 18.0651 50.7083 18.1797 50.125 18.1797H49.3516C48.7734 18.1797 48.2786 18.0651 47.8672 17.8359C47.4557 17.6068 47.1406 17.3021 46.9219 16.9219C46.7083 16.5365 46.6016 16.1094 46.6016 15.6406V9.16406C46.6016 8.69531 46.7083 8.27083 46.9219 7.89062C47.1406 7.50521 47.4557 7.19792 47.8672 6.96875C48.2786 6.73958 48.7734 6.625 49.3516 6.625H50.125C50.849 6.625 51.4401 6.79948 51.8984 7.14844C52.3568 7.49219 52.6562 7.9375 52.7969 8.48438ZM50.5859 10.3984C50.5859 9.90885 50.5729 9.52865 50.5469 9.25781C50.5208 8.98698 50.4479 8.79948 50.3281 8.69531C50.2135 8.58594 50.0182 8.53125 49.7422 8.53125C49.4661 8.53125 49.2682 8.58594 49.1484 8.69531C49.0286 8.79948 48.9557 8.98698 48.9297 9.25781C48.9036 9.52865 48.8906 9.90885 48.8906 10.3984V14.4062C48.8906 14.8958 48.9036 15.276 48.9297 15.5469C48.9557 15.8177 49.026 16.0078 49.1406 16.1172C49.2604 16.2214 49.4609 16.2734 49.7422 16.2734C50.0234 16.2734 50.2214 16.2214 50.3359 16.1172C50.4557 16.0078 50.526 15.8177 50.5469 15.5469C50.5729 15.276 50.5859 14.8958 50.5859 14.4062V10.3984Z" fill="#D92BD2"/>
</g>
<defs>
<filter id="filter0_d" x="0.992188" y="0.867188" width="55.8906" height="21.3125" filterUnits="userSpaceOnUse" color-interpolation-filters="sRGB">
<feFlood flood-opacity="0" result="BackgroundImageFix"/>
<feColorMatrix in="SourceAlpha" type="matrix" values="0 0 0 0 0 0 0 0 0 0 0 0 0 0 0 0 0 0 127 0"/>
<feOffset/>
<feGaussianBlur stdDeviation="2"/>
<feColorMatrix type="matrix" values="0 0 0 0 0.85098 0 0 0 0 0.168627 0 0 0 0 0.823529 0 0 0 0.3 0"/>
<feBlend mode="normal" in2="BackgroundImageFix" result="effect1_dropShadow"/>
<feBlend mode="normal" in="SourceGraphic" in2="effect1_dropShadow" result="shape"/>
</filter>
</defs>
</svg>
