<svg width="45" height="39" viewBox="0 0 45 39" fill="none" xmlns="http://www.w3.org/2000/svg">
<g filter="url(#filter0_d)">
<path d="M18.2891 7.35156V13.4531C18.2891 13.9219 18.1797 14.349 17.9609 14.7344C17.7422 15.1198 17.4271 15.4271 17.0156 15.6562C16.6042 15.8854 16.1094 16 15.5312 16H11.8906V4.80469H15.5312C16.1094 4.80469 16.6042 4.91927 17.0156 5.14844C17.4271 5.3776 17.7422 5.6849 17.9609 6.07031C18.1797 6.45573 18.2891 6.88281 18.2891 7.35156ZM14.1875 14.1094C14.3333 14.1146 14.4661 14.1172 14.5859 14.1172C15.1276 14.1172 15.4896 14.0625 15.6719 13.9531C15.8854 13.8281 15.9922 13.487 15.9922 12.9297V7.875C15.9922 7.31771 15.8854 6.97656 15.6719 6.85156C15.4896 6.74219 15.1276 6.6875 14.5859 6.6875C14.4661 6.6875 14.3333 6.6901 14.1875 6.69531V14.1094ZM23.125 16.0234L22.3516 13.0781C22.0807 13.276 21.8229 13.4583 21.5781 13.625V16H19.2812V4.80469H22.6094C23.1927 4.80469 23.6875 4.91927 24.0938 5.14844C24.5052 5.3776 24.8203 5.6849 25.0391 6.07031C25.2578 6.45573 25.3672 6.88281 25.3672 7.35156V10.6719C25.0599 10.9635 24.7135 11.2656 24.3281 11.5781L25.5 16.0234H23.125ZM21.5781 6.69531V11.1094C22.1406 10.7604 22.6953 10.3177 23.2422 9.78125V8.57812C23.2422 8.11979 23.2318 7.76302 23.2109 7.50781C23.1953 7.2526 23.1354 7.06771 23.0312 6.95312C22.9323 6.83333 22.7682 6.75781 22.5391 6.72656C22.3464 6.70573 22.0911 6.69531 21.7734 6.69531H21.5781ZM29.2344 4.80469H33.0078V16H30.7109V12.5859L28.7812 12.4609H28.7734V16H26.4766V12.6719L25.6328 10.7344H26.4766V7.35156C26.4766 6.88281 26.5859 6.45573 26.8047 6.07031C27.0234 5.6849 27.3359 5.3776 27.7422 5.14844C28.1536 4.91927 28.651 4.80469 29.2344 4.80469ZM28.7734 10.7344H30.7109V6.69531H30.7031C30.4844 6.6849 30.2865 6.67969 30.1094 6.67969C29.6198 6.67969 29.2865 6.72656 29.1094 6.82031C28.8854 6.9401 28.7734 7.28385 28.7734 7.85156V10.7344ZM11.2891 22.8047H14.0859V34H11.7891V25.1562L10.3047 26.7891V34H8.00781V26.7891L6.52344 25.1562V34H4.23438V22.8047H7.02344L9.15625 24.9062L11.2891 22.8047ZM21.3203 24.4844C21.3411 24.5573 21.3594 24.6615 21.375 24.7969C21.3958 24.9271 21.4062 25.0339 21.4062 25.1172V31.6406C21.4062 32.1094 21.2969 32.5365 21.0781 32.9219C20.8594 33.3021 20.5443 33.6068 20.1328 33.8359C19.7266 34.0651 19.2318 34.1797 18.6484 34.1797H17.875C17.2969 34.1797 16.8021 34.0651 16.3906 33.8359C15.9792 33.6068 15.6641 33.3021 15.4453 32.9219C15.2318 32.5365 15.125 32.1094 15.125 31.6406V25.1641C15.125 24.6953 15.2318 24.2708 15.4453 23.8906C15.6641 23.5052 15.9792 23.1979 16.3906 22.9688C16.8021 22.7396 17.2969 22.625 17.875 22.625H18.6484C19.3724 22.625 19.9635 22.7995 20.4219 23.1484C20.8802 23.4922 21.1797 23.9375 21.3203 24.4844ZM19.1094 26.3984C19.1094 25.9089 19.0964 25.5286 19.0703 25.2578C19.0443 24.987 18.9714 24.7995 18.8516 24.6953C18.737 24.5859 18.5417 24.5312 18.2656 24.5312C17.9896 24.5312 17.7917 24.5859 17.6719 24.6953C17.5521 24.7995 17.4792 24.987 17.4531 25.2578C17.4271 25.5286 17.4141 25.9089 17.4141 26.3984V30.4062C17.4141 30.8958 17.4271 31.276 17.4531 31.5469C17.4792 31.8177 17.5495 32.0078 17.6641 32.1172C17.7839 32.2214 17.9844 32.2734 18.2656 32.2734C18.5469 32.2734 18.7448 32.2214 18.8594 32.1172C18.9792 32.0078 19.0495 31.8177 19.0703 31.5469C19.0964 31.276 19.1094 30.8958 19.1094 30.4062V26.3984ZM27.6172 29.6406L27.8906 34H22.5156V22.8047H24.8047V32.2734H24.8203L25.8125 32.2031L25.7891 29.7812L27.6172 29.6406ZM33.4297 29.6406L33.7031 34H28.3281V22.8047H30.6172V32.2734H30.6328L31.625 32.2031L31.6016 29.7812L33.4297 29.6406ZM40.6406 22.8047V28.9219L38.5234 30.4609V34H36.2266V30.4609L34.1094 28.9219V22.8047H36.4062V27.7734L37.375 28.4688L38.3438 27.7734V22.8047H40.6406Z" fill="#D92BD2"/>
</g>
<defs>
<filter id="filter0_d" x="0.234375" y="0.804688" width="44.4062" height="37.375" filterUnits="userSpaceOnUse" color-interpolation-filters="sRGB">
<feFlood flood-opacity="0" result="BackgroundImageFix"/>
<feColorMatrix in="SourceAlpha" type="matrix" values="0 0 0 0 0 0 0 0 0 0 0 0 0 0 0 0 0 0 127 0"/>
<feOffset/>
<feGaussianBlur stdDeviation="2"/>
<feColorMatrix type="matrix" values="0 0 0 0 0.85098 0 0 0 0 0.168627 0 0 0 0 0.823529 0 0 0 0.3 0"/>
<feBlend mode="normal" in2="BackgroundImageFix" result="effect1_dropShadow"/>
<feBlend mode="normal" in="SourceGraphic" in2="effect1_dropShadow" result="shape"/>
</filter>
</defs>
</svg>
