<svg width="64" height="37" viewBox="0 0 64 37" fill="none" xmlns="http://www.w3.org/2000/svg">
<g filter="url(#filter0_d)">
<path d="M15.3203 13.6406L15.5938 18H10.2188V6.80469H12.5078V16.2734H12.5234L13.5156 16.2031L13.4922 13.7812L15.3203 13.6406ZM20.25 6.80469H22.5391V18H18.7656C18.1875 18 17.6927 17.8854 17.2812 17.6562C16.8698 17.4271 16.5547 17.1198 16.3359 16.7344C16.1224 16.349 16.0156 15.9219 16.0156 15.4531V6.80469H18.3047V14.8906C18.3047 15.4688 18.4141 15.8229 18.6328 15.9531C18.8307 16.0677 19.2161 16.125 19.7891 16.125C19.8984 16.125 20.0156 16.1224 20.1406 16.1172H20.25V6.80469ZM16.7109 6.66406C17.4661 6.4974 18.0938 6.3125 18.5938 6.10938C19.099 5.90104 19.4948 5.70573 19.7812 5.52344C20.0729 5.33594 20.2812 5.17969 20.4062 5.05469L20.5859 4.86719L22.2109 5.46094L21.0156 6.57031L20.7734 6.49219C20.6068 6.44531 20.3958 6.40885 20.1406 6.38281C19.8906 6.35677 19.6641 6.34375 19.4609 6.34375C19.2266 6.34375 18.9609 6.35417 18.6641 6.375C18.1224 6.40625 17.4714 6.5026 16.7109 6.66406ZM25.8906 8.53125H25.8828V14.8906C25.8828 15.4688 25.9896 15.8229 26.2031 15.9531C26.3854 16.0625 26.7474 16.1172 27.2891 16.1172C27.4141 16.1172 27.5495 16.1146 27.6953 16.1094H28.8438V18H26.3438C25.7656 18 25.2708 17.8854 24.8594 17.6562C24.4479 17.4271 24.1328 17.1198 23.9141 16.7344C23.7005 16.349 23.5938 15.9219 23.5938 15.4531V6.80469H28.8438V8.74219L25.8906 8.53125ZM33.8828 8.36719L32.7266 8.32031V16.3672L33.8828 16.3906V18H29.6094L28.9297 16.5469L30.4297 16.4375V8.32031L29.6094 8.35938L28.9297 6.8125L33.8828 6.80469V8.36719ZM40.1797 8.74219L37.1328 8.53125V12.7344H40.1797V14.6719L37.1328 14.4609V18H34.8359V14.6719L33.9922 12.7344H34.8359V6.80469H40.1797V8.74219ZM46.6406 8.74219L43.1328 8.53125V12.7344H46.6406V14.6719L43.1328 14.4609V16.2656L46.6406 16.0547V17.9922H43.1328L40.8438 18V14.6719L39.9922 12.7344H40.8438V6.80469H46.6406V8.74219ZM51.4922 18.0234L50.7188 15.0781C50.4479 15.276 50.1901 15.4583 49.9453 15.625V18H47.6484V6.80469H50.9766C51.5599 6.80469 52.0547 6.91927 52.4609 7.14844C52.8724 7.3776 53.1875 7.6849 53.4062 8.07031C53.625 8.45573 53.7344 8.88281 53.7344 9.35156V12.6719C53.4271 12.9635 53.0807 13.2656 52.6953 13.5781L53.8672 18.0234H51.4922ZM49.9453 8.69531V13.1094C50.5078 12.7604 51.0625 12.3177 51.6094 11.7812V10.5781C51.6094 10.1198 51.599 9.76302 51.5781 9.50781C51.5625 9.2526 51.5026 9.06771 51.3984 8.95312C51.2995 8.83333 51.1354 8.75781 50.9062 8.72656C50.7135 8.70573 50.4583 8.69531 50.1406 8.69531H49.9453Z" fill="#3392E0"/>
<path d="M4.12695 23.1074C4.12695 22.7559 4.20898 22.4355 4.37305 22.1465C4.53711 21.8574 4.77148 21.627 5.07617 21.4551C5.38477 21.2832 5.75781 21.1973 6.19531 21.1973L6.80469 21.2031V22.6152L6.48828 22.627C6.23047 22.6426 6.05859 22.7207 5.97266 22.8613C5.89062 22.998 5.84961 23.2383 5.84961 23.582V30.0391C5.84961 30.3828 5.88867 30.6211 5.9668 30.7539C6.04883 30.8867 6.22266 30.9609 6.48828 30.9766L6.80469 30.9883V32.4004L6.19531 32.4062C5.75781 32.4062 5.38477 32.3203 5.07617 32.1484C4.77148 31.9766 4.53711 31.7461 4.37305 31.457C4.20898 31.168 4.12695 30.8477 4.12695 30.4961V23.1074ZM9.58203 22.6035H12.4121V31H10.6895V28.4395L9.24219 28.3457H9.23633V31H7.51367V28.5039L6.88086 27.0508H7.51367V24.5137C7.51367 24.1621 7.5957 23.8418 7.75977 23.5527C7.92383 23.2637 8.1582 23.0332 8.46289 22.8613C8.77148 22.6895 9.14453 22.6035 9.58203 22.6035ZM9.23633 27.0508H10.6895V24.0215H10.6836C10.5195 24.0137 10.3711 24.0098 10.2383 24.0098C9.87109 24.0098 9.62109 24.0449 9.48828 24.1152C9.32031 24.2051 9.23633 24.4629 9.23633 24.8887V27.0508ZM16.1973 22.6035H17.9141V31H16.1973V26.7637L14.9551 25.1172V31H13.2617V22.5918L14.9199 22.5977L14.9609 22.6445L16.1973 24.2793V22.6035ZM22.1855 22.6035V29.0898C22.1855 29.4414 22.1035 29.7617 21.9395 30.0508C21.7754 30.3398 21.5391 30.5703 21.2305 30.7422C20.9219 30.9141 20.5508 31 20.1172 31L18.4766 30.9941V28.0352H19.8535L19.748 29.5762C20.0449 29.5684 20.2402 29.4961 20.334 29.3594C20.4199 29.2305 20.4629 28.9883 20.4629 28.6328V23.7285L19.1973 23.7695L18.6875 22.6094H20.4629V22.6035H22.1855ZM27.5938 23.8633C27.6094 23.918 27.623 23.9961 27.6348 24.0977C27.6504 24.1953 27.6582 24.2754 27.6582 24.3379V29.2305C27.6582 29.582 27.5762 29.9023 27.4121 30.1914C27.248 30.4766 27.0117 30.7051 26.7031 30.877C26.3984 31.0488 26.0273 31.1348 25.5898 31.1348H25.0098C24.5762 31.1348 24.2051 31.0488 23.8965 30.877C23.5879 30.7051 23.3516 30.4766 23.1875 30.1914C23.0273 29.9023 22.9473 29.582 22.9473 29.2305V24.373C22.9473 24.0215 23.0273 23.7031 23.1875 23.418C23.3516 23.1289 23.5879 22.8984 23.8965 22.7266C24.2051 22.5547 24.5762 22.4688 25.0098 22.4688H25.5898C26.1328 22.4688 26.5762 22.5996 26.9199 22.8613C27.2637 23.1191 27.4883 23.4531 27.5938 23.8633ZM25.9355 25.2988C25.9355 24.9316 25.9258 24.6465 25.9062 24.4434C25.8867 24.2402 25.832 24.0996 25.7422 24.0215C25.6562 23.9395 25.5098 23.8984 25.3027 23.8984C25.0957 23.8984 24.9473 23.9395 24.8574 24.0215C24.7676 24.0996 24.7129 24.2402 24.6934 24.4434C24.6738 24.6465 24.6641 24.9316 24.6641 25.2988V28.3047C24.6641 28.6719 24.6738 28.957 24.6934 29.1602C24.7129 29.3633 24.7656 29.5059 24.8516 29.5879C24.9414 29.666 25.0918 29.7051 25.3027 29.7051C25.5137 29.7051 25.6621 29.666 25.748 29.5879C25.8379 29.5059 25.8906 29.3633 25.9062 29.1602C25.9258 28.957 25.9355 28.6719 25.9355 28.3047V25.2988ZM32.8496 23.8984H32.8438V28.668C32.8438 29.1016 32.9238 29.3672 33.084 29.4648C33.2207 29.5469 33.4922 29.5879 33.8984 29.5879C33.9922 29.5879 34.0938 29.5859 34.2031 29.582H35.0645V31H33.1895C32.7559 31 32.3848 30.9141 32.0762 30.7422C31.7676 30.5703 31.5312 30.3398 31.3672 30.0508C31.207 29.7617 31.127 29.4414 31.127 29.0898V22.6035H35.0645V24.0566L32.8496 23.8984ZM37.7422 22.6035H40.5723V31H38.8496V28.4395L37.4023 28.3457H37.3965V31H35.6738V28.5039L35.041 27.0508H35.6738V24.5137C35.6738 24.1621 35.7559 23.8418 35.9199 23.5527C36.084 23.2637 36.3184 23.0332 36.623 22.8613C36.9316 22.6895 37.3047 22.6035 37.7422 22.6035ZM37.3965 27.0508H38.8496V24.0215H38.8438C38.6797 24.0137 38.5312 24.0098 38.3984 24.0098C38.0312 24.0098 37.7812 24.0449 37.6484 24.1152C37.4805 24.2051 37.3965 24.4629 37.3965 24.8887V27.0508ZM44.6094 23.7754L43.7422 23.7402V29.7754L44.6094 29.793V31H41.4043L40.8945 29.9102L42.0195 29.8281V23.7402L41.4043 23.7695L40.8945 22.6094L44.6094 22.6035V23.7754ZM40.9531 22.498C41.5195 22.373 41.9902 22.2344 42.3652 22.082C42.7441 21.9258 43.041 21.7793 43.2559 21.6426C43.4746 21.502 43.6309 21.3848 43.7246 21.291L43.8594 21.1504L45.0781 21.5957L44.1816 22.4277L44 22.3691C43.875 22.334 43.7168 22.3066 43.5254 22.2871C43.3379 22.2676 43.168 22.2578 43.0156 22.2578C42.8398 22.2578 42.6406 22.2656 42.418 22.2812C42.0117 22.3047 41.5234 22.377 40.9531 22.498ZM50.1348 24.5137V29.0898C50.1348 29.4414 50.0527 29.7617 49.8887 30.0508C49.7246 30.3398 49.4883 30.5703 49.1797 30.7422C48.8711 30.9141 48.5 31 48.0664 31H45.3359V22.6035H48.0664C48.5 22.6035 48.8711 22.6895 49.1797 22.8613C49.4883 23.0332 49.7246 23.2637 49.8887 23.5527C50.0527 23.8418 50.1348 24.1621 50.1348 24.5137ZM47.0586 29.582C47.168 29.5859 47.2676 29.5879 47.3574 29.5879C47.7637 29.5879 48.0352 29.5469 48.1719 29.4648C48.332 29.3711 48.4121 29.1152 48.4121 28.6973V24.9062C48.4121 24.4883 48.332 24.2324 48.1719 24.1387C48.0352 24.0566 47.7637 24.0156 47.3574 24.0156C47.2676 24.0156 47.168 24.0176 47.0586 24.0215V29.582ZM55.4141 23.8633C55.4297 23.918 55.4434 23.9961 55.4551 24.0977C55.4707 24.1953 55.4785 24.2754 55.4785 24.3379V29.2305C55.4785 29.582 55.3965 29.9023 55.2324 30.1914C55.0684 30.4766 54.832 30.7051 54.5234 30.877C54.2188 31.0488 53.8477 31.1348 53.4102 31.1348H52.8301C52.3965 31.1348 52.0254 31.0488 51.7168 30.877C51.4082 30.7051 51.1719 30.4766 51.0078 30.1914C50.8477 29.9023 50.7676 29.582 50.7676 29.2305V24.373C50.7676 24.0215 50.8477 23.7031 51.0078 23.418C51.1719 23.1289 51.4082 22.8984 51.7168 22.7266C52.0254 22.5547 52.3965 22.4688 52.8301 22.4688H53.4102C53.9531 22.4688 54.3965 22.5996 54.7402 22.8613C55.084 23.1191 55.3086 23.4531 55.4141 23.8633ZM53.7559 25.2988C53.7559 24.9316 53.7461 24.6465 53.7266 24.4434C53.707 24.2402 53.6523 24.0996 53.5625 24.0215C53.4766 23.9395 53.3301 23.8984 53.123 23.8984C52.916 23.8984 52.7676 23.9395 52.6777 24.0215C52.5879 24.0996 52.5332 24.2402 52.5137 24.4434C52.4941 24.6465 52.4844 24.9316 52.4844 25.2988V28.3047C52.4844 28.6719 52.4941 28.957 52.5137 29.1602C52.5332 29.3633 52.5859 29.5059 52.6719 29.5879C52.7617 29.666 52.9121 29.7051 53.123 29.7051C53.334 29.7051 53.4824 29.666 53.5684 29.5879C53.6582 29.5059 53.7109 29.3633 53.7266 29.1602C53.7461 28.957 53.7559 28.6719 53.7559 28.3047V25.2988ZM59.0703 30.4961C59.0703 30.8477 58.9883 31.168 58.8242 31.457C58.6641 31.7461 58.4297 31.9766 58.1211 32.1484C57.8125 32.3203 57.4414 32.4062 57.0078 32.4062L56.3926 32.4004V30.9883L56.7148 30.9766C56.9766 30.9609 57.1484 30.8848 57.2305 30.748C57.3125 30.6113 57.3535 30.3594 57.3535 29.9922H57.3477V23.582C57.3477 23.2383 57.3047 22.998 57.2188 22.8613C57.1367 22.7207 56.9688 22.6426 56.7148 22.627L56.3926 22.6152V21.2031L57.0078 21.1973C57.4414 21.1973 57.8125 21.2832 58.1211 21.4551C58.4297 21.627 58.6641 21.8574 58.8242 22.1465C58.9883 22.4355 59.0703 22.7559 59.0703 23.1074V30.4961Z" fill="#3392E0"/>
</g>
<defs>
<filter id="filter0_d" x="0.126953" y="0.867188" width="62.9434" height="35.5391" filterUnits="userSpaceOnUse" color-interpolation-filters="sRGB">
<feFlood flood-opacity="0" result="BackgroundImageFix"/>
<feColorMatrix in="SourceAlpha" type="matrix" values="0 0 0 0 0 0 0 0 0 0 0 0 0 0 0 0 0 0 127 0"/>
<feOffset/>
<feGaussianBlur stdDeviation="2"/>
<feColorMatrix type="matrix" values="0 0 0 0 0.2 0 0 0 0 0.572549 0 0 0 0 0.878431 0 0 0 0.3 0"/>
<feBlend mode="normal" in2="BackgroundImageFix" result="effect1_dropShadow"/>
<feBlend mode="normal" in="SourceGraphic" in2="effect1_dropShadow" result="shape"/>
</filter>
</defs>
</svg>
