<svg width="60" height="39" viewBox="0 0 60 39" fill="none" xmlns="http://www.w3.org/2000/svg">
<g filter="url(#filter0_d)">
<path d="M21 4.80469H23.7969V16H21.5V7.15625L20.0156 8.78906V16H17.7188V8.78906L16.2344 7.15625V16H13.9453V4.80469H16.7344L18.8672 6.90625L21 4.80469ZM27.75 4.80469H31.5234V16H29.2266V12.5859L27.2969 12.4609H27.2891V16H24.9922V12.6719L24.1484 10.7344H24.9922V7.35156C24.9922 6.88281 25.1016 6.45573 25.3203 6.07031C25.5391 5.6849 25.8516 5.3776 26.2578 5.14844C26.6693 4.91927 27.1667 4.80469 27.75 4.80469ZM27.2891 10.7344H29.2266V6.69531H29.2188C29 6.6849 28.8021 6.67969 28.625 6.67969C28.1354 6.67969 27.8021 6.72656 27.625 6.82031C27.401 6.9401 27.2891 7.28385 27.2891 7.85156V10.7344ZM35.8828 12.3203L35.2031 10.7734L38.7031 10.7656V16H35.2812C34.7031 16 34.2083 15.8854 33.7969 15.6562C33.3906 15.4271 33.0781 15.1198 32.8594 14.7344C32.6406 14.349 32.5312 13.9219 32.5312 13.4531V7.35156C32.5312 6.88281 32.6406 6.45573 32.8594 6.07031C33.0781 5.6849 33.3906 5.3776 33.7969 5.14844C34.2083 4.91927 34.7031 4.80469 35.2812 4.80469H38.7031L38.4297 9.16406L36.6016 9.03125V6.74219H36.4453C36.0807 6.74219 35.7839 6.75781 35.5547 6.78906C35.3255 6.82031 35.1562 6.88281 35.0469 6.97656C34.9427 7.0651 34.8802 7.19531 34.8594 7.36719C34.8385 7.53906 34.8281 7.76562 34.8281 8.04688V12.4922C34.8333 13.1641 34.9531 13.6042 35.1875 13.8125C35.4167 14.0104 35.8099 14.1094 36.3672 14.1094H36.4141V12.2969L35.8828 12.3203ZM45.9219 6.48438C45.9427 6.55729 45.9609 6.66146 45.9766 6.79688C45.9974 6.92708 46.0078 7.03385 46.0078 7.11719V13.6406C46.0078 14.1094 45.8984 14.5365 45.6797 14.9219C45.4609 15.3021 45.1458 15.6068 44.7344 15.8359C44.3281 16.0651 43.8333 16.1797 43.25 16.1797H42.4766C41.8984 16.1797 41.4036 16.0651 40.9922 15.8359C40.5807 15.6068 40.2656 15.3021 40.0469 14.9219C39.8333 14.5365 39.7266 14.1094 39.7266 13.6406V7.16406C39.7266 6.69531 39.8333 6.27083 40.0469 5.89062C40.2656 5.50521 40.5807 5.19792 40.9922 4.96875C41.4036 4.73958 41.8984 4.625 42.4766 4.625H43.25C43.974 4.625 44.5651 4.79948 45.0234 5.14844C45.4818 5.49219 45.7812 5.9375 45.9219 6.48438ZM43.7109 8.39844C43.7109 7.90885 43.6979 7.52865 43.6719 7.25781C43.6458 6.98698 43.5729 6.79948 43.4531 6.69531C43.3385 6.58594 43.1432 6.53125 42.8672 6.53125C42.5911 6.53125 42.3932 6.58594 42.2734 6.69531C42.1536 6.79948 42.0807 6.98698 42.0547 7.25781C42.0286 7.52865 42.0156 7.90885 42.0156 8.39844V12.4062C42.0156 12.8958 42.0286 13.276 42.0547 13.5469C42.0807 13.8177 42.151 14.0078 42.2656 14.1172C42.3854 14.2214 42.5859 14.2734 42.8672 14.2734C43.1484 14.2734 43.3464 14.2214 43.4609 14.1172C43.5807 14.0078 43.651 13.8177 43.6719 13.5469C43.6979 13.276 43.7109 12.8958 43.7109 12.4062V8.39844ZM9.89844 27.1641L8.07031 27.0312V24.6953H8.02344C7.89844 24.6901 7.78385 24.6875 7.67969 24.6875C7.1901 24.6875 6.84635 24.7292 6.64844 24.8125C6.45052 24.8958 6.34375 25.151 6.32812 25.5781C6.32292 25.6458 6.31771 25.7292 6.3125 25.8281C6.3125 25.9271 6.3099 26.0286 6.30469 26.1328C6.30469 26.2318 6.30469 26.3151 6.30469 26.3828V26.4922L10.2656 29.3281V31.4453C10.2656 31.9141 10.1562 32.3411 9.9375 32.7266C9.71875 33.112 9.40365 33.4193 8.99219 33.6484C8.58594 33.8776 8.09375 33.9922 7.51562 33.9922H4.1875V30L6.01562 30.1328L6.24219 32.1016C6.4349 32.1016 6.60938 32.1042 6.76562 32.1094C6.875 32.1146 6.97656 32.1172 7.07031 32.1172C7.32031 32.1172 7.53125 32.1016 7.70312 32.0703C7.875 32.0339 7.99219 31.9219 8.05469 31.7344C8.11719 31.5417 8.14844 31.2266 8.14844 30.7891V30.6484L4.1875 27.7578V25.3516C4.1875 24.8828 4.29427 24.4557 4.50781 24.0703C4.72656 23.6849 5.04167 23.3776 5.45312 23.1484C5.86458 22.9193 6.35938 22.8047 6.9375 22.8047H10.1719L9.89844 27.1641ZM17.1562 24.4844C17.1771 24.5573 17.1953 24.6615 17.2109 24.7969C17.2318 24.9271 17.2422 25.0339 17.2422 25.1172V31.6406C17.2422 32.1094 17.1328 32.5365 16.9141 32.9219C16.6953 33.3021 16.3802 33.6068 15.9688 33.8359C15.5625 34.0651 15.0677 34.1797 14.4844 34.1797H13.7109C13.1328 34.1797 12.638 34.0651 12.2266 33.8359C11.8151 33.6068 11.5 33.3021 11.2812 32.9219C11.0677 32.5365 10.9609 32.1094 10.9609 31.6406V25.1641C10.9609 24.6953 11.0677 24.2708 11.2812 23.8906C11.5 23.5052 11.8151 23.1979 12.2266 22.9688C12.638 22.7396 13.1328 22.625 13.7109 22.625H14.4844C15.2083 22.625 15.7995 22.7995 16.2578 23.1484C16.7161 23.4922 17.0156 23.9375 17.1562 24.4844ZM14.9453 26.3984C14.9453 25.9089 14.9323 25.5286 14.9062 25.2578C14.8802 24.987 14.8073 24.7995 14.6875 24.6953C14.5729 24.5859 14.3776 24.5312 14.1016 24.5312C13.8255 24.5312 13.6276 24.5859 13.5078 24.6953C13.388 24.7995 13.3151 24.987 13.2891 25.2578C13.263 25.5286 13.25 25.9089 13.25 26.3984V30.4062C13.25 30.8958 13.263 31.276 13.2891 31.5469C13.3151 31.8177 13.3854 32.0078 13.5 32.1172C13.6198 32.2214 13.8203 32.2734 14.1016 32.2734C14.3828 32.2734 14.5807 32.2214 14.6953 32.1172C14.8151 32.0078 14.8854 31.8177 14.9062 31.5469C14.9323 31.276 14.9453 30.8958 14.9453 30.4062V26.3984ZM25.4062 22.8047H28.2031V34H25.9062V25.1562L24.4219 26.7891V34H22.125V26.7891L20.6406 25.1562V34H18.3516V22.8047H21.1406L23.2734 24.9062L25.4062 22.8047ZM33.1641 22.8047C33.7422 22.8047 34.237 22.9193 34.6484 23.1484C35.0599 23.3776 35.375 23.6849 35.5938 24.0703C35.8125 24.4557 35.9219 24.8828 35.9219 25.3516V27.0781C35.6406 27.3438 35.3255 27.6172 34.9766 27.8984C35.3255 28.1849 35.6406 28.4609 35.9219 28.7266V31.4531C35.9219 31.9219 35.8125 32.349 35.5938 32.7344C35.375 33.1198 35.0599 33.4271 34.6484 33.6562C34.237 33.8854 33.7422 34 33.1641 34H29.3906V22.8047H33.1641ZM31.6797 24.6953V27.7891C32.3203 27.3568 33.026 26.8203 33.7969 26.1797V26.0781L33.7891 25.7109C33.7786 25.2214 33.6536 24.9245 33.4141 24.8203C33.2161 24.7318 32.8516 24.6875 32.3203 24.6875C32.2161 24.6875 32.1042 24.6901 31.9844 24.6953H31.6797ZM33.7969 29.6172C33.6302 29.4766 33.4609 29.3385 33.2891 29.2031C32.6745 29.6458 32.138 30.0234 31.6797 30.3359V32.1094H32.2422C32.5703 32.1094 32.8438 32.099 33.0625 32.0781C33.2865 32.0573 33.4531 31.9922 33.5625 31.8828C33.6771 31.7682 33.7448 31.5807 33.7656 31.3203C33.7865 31.0599 33.7969 30.6953 33.7969 30.2266V29.6172ZM40.9375 34.0234L40.1641 31.0781C39.8932 31.276 39.6354 31.4583 39.3906 31.625V34H37.0938V22.8047H40.4219C41.0052 22.8047 41.5 22.9193 41.9062 23.1484C42.3177 23.3776 42.6328 23.6849 42.8516 24.0703C43.0703 24.4557 43.1797 24.8828 43.1797 25.3516V28.6719C42.8724 28.9635 42.526 29.2656 42.1406 29.5781L43.3125 34.0234H40.9375ZM39.3906 24.6953V29.1094C39.9531 28.7604 40.5078 28.3177 41.0547 27.7812V26.5781C41.0547 26.1198 41.0443 25.763 41.0234 25.5078C41.0078 25.2526 40.9479 25.0677 40.8438 24.9531C40.7448 24.8333 40.5807 24.7578 40.3516 24.7266C40.1589 24.7057 39.9036 24.6953 39.5859 24.6953H39.3906ZM48.5156 24.3672L47.3594 24.3203V32.3672L48.5156 32.3906V34H44.2422L43.5625 32.5469L45.0625 32.4375V24.3203L44.2422 24.3594L43.5625 22.8125L48.5156 22.8047V24.3672ZM55.5312 24.4844C55.5521 24.5573 55.5703 24.6615 55.5859 24.7969C55.6068 24.9271 55.6172 25.0339 55.6172 25.1172V31.6406C55.6172 32.1094 55.5078 32.5365 55.2891 32.9219C55.0703 33.3021 54.7552 33.6068 54.3438 33.8359C53.9375 34.0651 53.4427 34.1797 52.8594 34.1797H52.0859C51.5078 34.1797 51.013 34.0651 50.6016 33.8359C50.1901 33.6068 49.875 33.3021 49.6562 32.9219C49.4427 32.5365 49.3359 32.1094 49.3359 31.6406V25.1641C49.3359 24.6953 49.4427 24.2708 49.6562 23.8906C49.875 23.5052 50.1901 23.1979 50.6016 22.9688C51.013 22.7396 51.5078 22.625 52.0859 22.625H52.8594C53.5833 22.625 54.1745 22.7995 54.6328 23.1484C55.0911 23.4922 55.3906 23.9375 55.5312 24.4844ZM53.3203 26.3984C53.3203 25.9089 53.3073 25.5286 53.2812 25.2578C53.2552 24.987 53.1823 24.7995 53.0625 24.6953C52.9479 24.5859 52.7526 24.5312 52.4766 24.5312C52.2005 24.5312 52.0026 24.5859 51.8828 24.6953C51.763 24.7995 51.6901 24.987 51.6641 25.2578C51.638 25.5286 51.625 25.9089 51.625 26.3984V30.4062C51.625 30.8958 51.638 31.276 51.6641 31.5469C51.6901 31.8177 51.7604 32.0078 51.875 32.1172C51.9948 32.2214 52.1953 32.2734 52.4766 32.2734C52.7578 32.2734 52.9557 32.2214 53.0703 32.1172C53.1901 32.0078 53.2604 31.8177 53.2812 31.5469C53.3073 31.276 53.3203 30.8958 53.3203 30.4062V26.3984Z" fill="#DFB460"/>
</g>
<defs>
<filter id="filter0_d" x="0.1875" y="0.625" width="59.4297" height="37.5547" filterUnits="userSpaceOnUse" color-interpolation-filters="sRGB">
<feFlood flood-opacity="0" result="BackgroundImageFix"/>
<feColorMatrix in="SourceAlpha" type="matrix" values="0 0 0 0 0 0 0 0 0 0 0 0 0 0 0 0 0 0 127 0"/>
<feOffset/>
<feGaussianBlur stdDeviation="2"/>
<feColorMatrix type="matrix" values="0 0 0 0 0.87451 0 0 0 0 0.705882 0 0 0 0 0.376471 0 0 0 0.3 0"/>
<feBlend mode="normal" in2="BackgroundImageFix" result="effect1_dropShadow"/>
<feBlend mode="normal" in="SourceGraphic" in2="effect1_dropShadow" result="shape"/>
</filter>
</defs>
</svg>
