<svg width="52" height="39" viewBox="0 0 52 39" fill="none" xmlns="http://www.w3.org/2000/svg">
<g filter="url(#filter0_d)">
<path d="M7.5 4.80469C8.08333 4.80469 8.57812 4.91927 8.98438 5.14844C9.39583 5.3776 9.71094 5.6849 9.92969 6.07031C10.1484 6.45573 10.2578 6.88281 10.2578 7.35156V10.6719C9.72135 11.1719 9.10417 11.6875 8.40625 12.2188C7.70833 12.7448 7.0625 13.2135 6.46875 13.625V16H4.17188V4.80469H7.5ZM8.14062 9.78125V8.57812C8.14062 8.11979 8.13021 7.76302 8.10938 7.50781C8.08854 7.2526 8.02604 7.06771 7.92188 6.95312C7.82292 6.83333 7.65885 6.75781 7.42969 6.72656C7.23698 6.70573 6.98177 6.69531 6.66406 6.69531H6.46875V11.1094C7.03125 10.7604 7.58854 10.3177 8.14062 9.78125ZM17.0234 6.74219L13.5156 6.53125V10.7344H17.0234V12.6719L13.5156 12.4609V14.2656L17.0234 14.0547V15.9922H13.5156L11.2266 16V12.6719L10.375 10.7344H11.2266V4.80469H17.0234V6.74219ZM23.1406 11.6406L23.4141 16H18.0391V4.80469H20.3281V14.2734H20.3438L21.3359 14.2031L21.3125 11.7812L23.1406 11.6406ZM29.8906 6.48438C29.9115 6.55729 29.9297 6.66146 29.9453 6.79688C29.9661 6.92708 29.9766 7.03385 29.9766 7.11719V13.6406C29.9766 14.1094 29.8672 14.5365 29.6484 14.9219C29.4297 15.3021 29.1146 15.6068 28.7031 15.8359C28.2969 16.0651 27.8021 16.1797 27.2188 16.1797H26.4453C25.8672 16.1797 25.3724 16.0651 24.9609 15.8359C24.5495 15.6068 24.2344 15.3021 24.0156 14.9219C23.8021 14.5365 23.6953 14.1094 23.6953 13.6406V7.16406C23.6953 6.69531 23.8021 6.27083 24.0156 5.89062C24.2344 5.50521 24.5495 5.19792 24.9609 4.96875C25.3724 4.73958 25.8672 4.625 26.4453 4.625H27.2188C27.9427 4.625 28.5339 4.79948 28.9922 5.14844C29.4505 5.49219 29.75 5.9375 29.8906 6.48438ZM27.6797 8.39844C27.6797 7.90885 27.6667 7.52865 27.6406 7.25781C27.6146 6.98698 27.5417 6.79948 27.4219 6.69531C27.3073 6.58594 27.112 6.53125 26.8359 6.53125C26.5599 6.53125 26.362 6.58594 26.2422 6.69531C26.1224 6.79948 26.0495 6.98698 26.0234 7.25781C25.9974 7.52865 25.9844 7.90885 25.9844 8.39844V12.4062C25.9844 12.8958 25.9974 13.276 26.0234 13.5469C26.0495 13.8177 26.1198 14.0078 26.2344 14.1172C26.3542 14.2214 26.5547 14.2734 26.8359 14.2734C27.1172 14.2734 27.3151 14.2214 27.4297 14.1172C27.5495 14.0078 27.6198 13.8177 27.6406 13.5469C27.6667 13.276 27.6797 12.8958 27.6797 12.4062V8.39844ZM41.0703 7.35156V13.4531C41.0703 13.9219 40.9609 14.349 40.7422 14.7344C40.5234 15.1198 40.2083 15.4271 39.7969 15.6562C39.3854 15.8854 38.8906 16 38.3125 16H34.6719V4.80469H38.3125C38.8906 4.80469 39.3854 4.91927 39.7969 5.14844C40.2083 5.3776 40.5234 5.6849 40.7422 6.07031C40.9609 6.45573 41.0703 6.88281 41.0703 7.35156ZM36.9688 14.1094C37.1146 14.1146 37.2474 14.1172 37.3672 14.1172C37.9089 14.1172 38.2708 14.0625 38.4531 13.9531C38.6667 13.8281 38.7734 13.487 38.7734 12.9297V7.875C38.7734 7.31771 38.6667 6.97656 38.4531 6.85156C38.2708 6.74219 37.9089 6.6875 37.3672 6.6875C37.2474 6.6875 37.1146 6.6901 36.9688 6.69531V14.1094ZM47.8672 6.74219L44.3594 6.53125V10.7344H47.8672V12.6719L44.3594 12.4609V14.2656L47.8672 14.0547V15.9922H44.3594L42.0703 16V12.6719L41.2188 10.7344H42.0703V4.80469H47.8672V6.74219ZM18.0234 24.7422L14.9766 24.5312V28.7344H18.0234V30.6719L14.9766 30.4609V34H12.6797V30.6719L11.8359 28.7344H12.6797V22.8047H18.0234V24.7422ZM24.7266 24.4844C24.7474 24.5573 24.7656 24.6615 24.7812 24.7969C24.8021 24.9271 24.8125 25.0339 24.8125 25.1172V31.6406C24.8125 32.1094 24.7031 32.5365 24.4844 32.9219C24.2656 33.3021 23.9505 33.6068 23.5391 33.8359C23.1328 34.0651 22.638 34.1797 22.0547 34.1797H21.2812C20.7031 34.1797 20.2083 34.0651 19.7969 33.8359C19.3854 33.6068 19.0703 33.3021 18.8516 32.9219C18.638 32.5365 18.5312 32.1094 18.5312 31.6406V25.1641C18.5312 24.6953 18.638 24.2708 18.8516 23.8906C19.0703 23.5052 19.3854 23.1979 19.7969 22.9688C20.2083 22.7396 20.7031 22.625 21.2812 22.625H22.0547C22.7786 22.625 23.3698 22.7995 23.8281 23.1484C24.2865 23.4922 24.5859 23.9375 24.7266 24.4844ZM22.5156 26.3984C22.5156 25.9089 22.5026 25.5286 22.4766 25.2578C22.4505 24.987 22.3776 24.7995 22.2578 24.6953C22.1432 24.5859 21.9479 24.5312 21.6719 24.5312C21.3958 24.5312 21.1979 24.5859 21.0781 24.6953C20.9583 24.7995 20.8854 24.987 20.8594 25.2578C20.8333 25.5286 20.8203 25.9089 20.8203 26.3984V30.4062C20.8203 30.8958 20.8333 31.276 20.8594 31.5469C20.8854 31.8177 20.9557 32.0078 21.0703 32.1172C21.1901 32.2214 21.3906 32.2734 21.6719 32.2734C21.9531 32.2734 22.151 32.2214 22.2656 32.1172C22.3854 32.0078 22.4557 31.8177 22.4766 31.5469C22.5026 31.276 22.5156 30.8958 22.5156 30.4062V26.3984ZM29.125 30.3203L28.4453 28.7734L31.9453 28.7656V34H28.5234C27.9453 34 27.4505 33.8854 27.0391 33.6562C26.6328 33.4271 26.3203 33.1198 26.1016 32.7344C25.8828 32.349 25.7734 31.9219 25.7734 31.4531V25.3516C25.7734 24.8828 25.8828 24.4557 26.1016 24.0703C26.3203 23.6849 26.6328 23.3776 27.0391 23.1484C27.4505 22.9193 27.9453 22.8047 28.5234 22.8047H31.9453L31.6719 27.1641L29.8438 27.0312V24.7422H29.6875C29.3229 24.7422 29.026 24.7578 28.7969 24.7891C28.5677 24.8203 28.3984 24.8828 28.2891 24.9766C28.1849 25.0651 28.1224 25.1953 28.1016 25.3672C28.0807 25.5391 28.0703 25.7656 28.0703 26.0469V30.4922C28.0755 31.1641 28.1953 31.6042 28.4297 31.8125C28.6589 32.0104 29.0521 32.1094 29.6094 32.1094H29.6562V30.2969L29.125 30.3203ZM39.1641 24.4844C39.1849 24.5573 39.2031 24.6615 39.2188 24.7969C39.2396 24.9271 39.25 25.0339 39.25 25.1172V31.6406C39.25 32.1094 39.1406 32.5365 38.9219 32.9219C38.7031 33.3021 38.388 33.6068 37.9766 33.8359C37.5703 34.0651 37.0755 34.1797 36.4922 34.1797H35.7188C35.1406 34.1797 34.6458 34.0651 34.2344 33.8359C33.8229 33.6068 33.5078 33.3021 33.2891 32.9219C33.0755 32.5365 32.9688 32.1094 32.9688 31.6406V25.1641C32.9688 24.6953 33.0755 24.2708 33.2891 23.8906C33.5078 23.5052 33.8229 23.1979 34.2344 22.9688C34.6458 22.7396 35.1406 22.625 35.7188 22.625H36.4922C37.2161 22.625 37.8073 22.7995 38.2656 23.1484C38.724 23.4922 39.0234 23.9375 39.1641 24.4844ZM36.9531 26.3984C36.9531 25.9089 36.9401 25.5286 36.9141 25.2578C36.888 24.987 36.8151 24.7995 36.6953 24.6953C36.5807 24.5859 36.3854 24.5312 36.1094 24.5312C35.8333 24.5312 35.6354 24.5859 35.5156 24.6953C35.3958 24.7995 35.3229 24.987 35.2969 25.2578C35.2708 25.5286 35.2578 25.9089 35.2578 26.3984V30.4062C35.2578 30.8958 35.2708 31.276 35.2969 31.5469C35.3229 31.8177 35.3932 32.0078 35.5078 32.1172C35.6276 32.2214 35.8281 32.2734 36.1094 32.2734C36.3906 32.2734 36.5885 32.2214 36.7031 32.1172C36.8229 32.0078 36.8932 31.8177 36.9141 31.5469C36.9401 31.276 36.9531 30.8958 36.9531 30.4062V26.3984Z" fill="#5BB2C4"/>
</g>
<defs>
<filter id="filter0_d" x="0.171875" y="0.625" width="51.6953" height="37.5547" filterUnits="userSpaceOnUse" color-interpolation-filters="sRGB">
<feFlood flood-opacity="0" result="BackgroundImageFix"/>
<feColorMatrix in="SourceAlpha" type="matrix" values="0 0 0 0 0 0 0 0 0 0 0 0 0 0 0 0 0 0 127 0"/>
<feOffset/>
<feGaussianBlur stdDeviation="2"/>
<feColorMatrix type="matrix" values="0 0 0 0 0.156042 0 0 0 0 0.31675 0 0 0 0 0.35 0 0 0 0.3 0"/>
<feBlend mode="normal" in2="BackgroundImageFix" result="effect1_dropShadow"/>
<feBlend mode="normal" in="SourceGraphic" in2="effect1_dropShadow" result="shape"/>
</filter>
</defs>
</svg>
