<svg width="63" height="21" viewBox="0 0 63 21" fill="none" xmlns="http://www.w3.org/2000/svg">
<g filter="url(#filter0_d)">
<path d="M7.82812 4.80469C8.41146 4.80469 8.90625 4.91927 9.3125 5.14844C9.72396 5.3776 10.0391 5.6849 10.2578 6.07031C10.4766 6.45573 10.5859 6.88281 10.5859 7.35156V10.6719C10.0495 11.1719 9.43229 11.6875 8.73438 12.2188C8.03646 12.7448 7.39062 13.2135 6.79688 13.625V16H4.5V4.80469H7.82812ZM8.46875 9.78125V8.57812C8.46875 8.11979 8.45833 7.76302 8.4375 7.50781C8.41667 7.2526 8.35417 7.06771 8.25 6.95312C8.15104 6.83333 7.98698 6.75781 7.75781 6.72656C7.5651 6.70573 7.3099 6.69531 6.99219 6.69531H6.79688V11.1094C7.35938 10.7604 7.91667 10.3177 8.46875 9.78125ZM17.5938 6.48438C17.6146 6.55729 17.6328 6.66146 17.6484 6.79688C17.6693 6.92708 17.6797 7.03385 17.6797 7.11719V13.6406C17.6797 14.1094 17.5703 14.5365 17.3516 14.9219C17.1328 15.3021 16.8177 15.6068 16.4062 15.8359C16 16.0651 15.5052 16.1797 14.9219 16.1797H14.1484C13.5703 16.1797 13.0755 16.0651 12.6641 15.8359C12.2526 15.6068 11.9375 15.3021 11.7188 14.9219C11.5052 14.5365 11.3984 14.1094 11.3984 13.6406V7.16406C11.3984 6.69531 11.5052 6.27083 11.7188 5.89062C11.9375 5.50521 12.2526 5.19792 12.6641 4.96875C13.0755 4.73958 13.5703 4.625 14.1484 4.625H14.9219C15.6458 4.625 16.237 4.79948 16.6953 5.14844C17.1536 5.49219 17.4531 5.9375 17.5938 6.48438ZM15.3828 8.39844C15.3828 7.90885 15.3698 7.52865 15.3438 7.25781C15.3177 6.98698 15.2448 6.79948 15.125 6.69531C15.0104 6.58594 14.8151 6.53125 14.5391 6.53125C14.263 6.53125 14.0651 6.58594 13.9453 6.69531C13.8255 6.79948 13.7526 6.98698 13.7266 7.25781C13.7005 7.52865 13.6875 7.90885 13.6875 8.39844V12.4062C13.6875 12.8958 13.7005 13.276 13.7266 13.5469C13.7526 13.8177 13.8229 14.0078 13.9375 14.1172C14.0573 14.2214 14.2578 14.2734 14.5391 14.2734C14.8203 14.2734 15.0182 14.2214 15.1328 14.1172C15.2526 14.0078 15.3229 13.8177 15.3438 13.5469C15.3698 13.276 15.3828 12.8958 15.3828 12.4062V8.39844ZM24.3516 9.16406L22.5234 9.03125V6.69531H22.4766C22.3516 6.6901 22.237 6.6875 22.1328 6.6875C21.6432 6.6875 21.2995 6.72917 21.1016 6.8125C20.9036 6.89583 20.7969 7.15104 20.7812 7.57812C20.776 7.64583 20.7708 7.72917 20.7656 7.82812C20.7656 7.92708 20.763 8.02865 20.7578 8.13281C20.7578 8.23177 20.7578 8.3151 20.7578 8.38281V8.49219L24.7188 11.3281V13.4453C24.7188 13.9141 24.6094 14.3411 24.3906 14.7266C24.1719 15.112 23.8568 15.4193 23.4453 15.6484C23.0391 15.8776 22.5469 15.9922 21.9688 15.9922H18.6406V12L20.4688 12.1328L20.6953 14.1016C20.888 14.1016 21.0625 14.1042 21.2188 14.1094C21.3281 14.1146 21.4297 14.1172 21.5234 14.1172C21.7734 14.1172 21.9844 14.1016 22.1562 14.0703C22.3281 14.0339 22.4453 13.9219 22.5078 13.7344C22.5703 13.5417 22.6016 13.2266 22.6016 12.7891V12.6484L18.6406 9.75781V7.35156C18.6406 6.88281 18.7474 6.45573 18.9609 6.07031C19.1797 5.6849 19.4948 5.3776 19.9062 5.14844C20.3177 4.91927 20.8125 4.80469 21.3906 4.80469H24.625L24.3516 9.16406ZM31.3672 6.74219L27.8594 6.53125V10.7344H31.3672V12.6719L27.8594 12.4609V14.2656L31.3672 14.0547V15.9922H27.8594L25.5703 16V12.6719L24.7188 10.7344H25.5703V4.80469H31.3672V6.74219ZM36.6094 6.36719L35.4531 6.32031V14.3672L36.6094 14.3906V16H32.3359L31.6562 14.5469L33.1562 14.4375V6.32031L32.3359 6.35938L31.6562 4.8125L36.6094 4.80469V6.36719ZM43.9766 7.35156V13.4531C43.9766 13.9219 43.8672 14.349 43.6484 14.7344C43.4297 15.1198 43.1146 15.4271 42.7031 15.6562C42.2917 15.8854 41.7969 16 41.2188 16H37.5781V4.80469H41.2188C41.7969 4.80469 42.2917 4.91927 42.7031 5.14844C43.1146 5.3776 43.4297 5.6849 43.6484 6.07031C43.8672 6.45573 43.9766 6.88281 43.9766 7.35156ZM39.875 14.1094C40.0208 14.1146 40.1536 14.1172 40.2734 14.1172C40.8151 14.1172 41.1771 14.0625 41.3594 13.9531C41.5729 13.8281 41.6797 13.487 41.6797 12.9297V7.875C41.6797 7.31771 41.5729 6.97656 41.3594 6.85156C41.1771 6.74219 40.8151 6.6875 40.2734 6.6875C40.1536 6.6875 40.0208 6.6901 39.875 6.69531V14.1094ZM51.0156 6.48438C51.0365 6.55729 51.0547 6.66146 51.0703 6.79688C51.0911 6.92708 51.1016 7.03385 51.1016 7.11719V13.6406C51.1016 14.1094 50.9922 14.5365 50.7734 14.9219C50.5547 15.3021 50.2396 15.6068 49.8281 15.8359C49.4219 16.0651 48.9271 16.1797 48.3438 16.1797H47.5703C46.9922 16.1797 46.4974 16.0651 46.0859 15.8359C45.6745 15.6068 45.3594 15.3021 45.1406 14.9219C44.9271 14.5365 44.8203 14.1094 44.8203 13.6406V7.16406C44.8203 6.69531 44.9271 6.27083 45.1406 5.89062C45.3594 5.50521 45.6745 5.19792 46.0859 4.96875C46.4974 4.73958 46.9922 4.625 47.5703 4.625H48.3438C49.0677 4.625 49.6589 4.79948 50.1172 5.14844C50.5755 5.49219 50.875 5.9375 51.0156 6.48438ZM48.8047 8.39844C48.8047 7.90885 48.7917 7.52865 48.7656 7.25781C48.7396 6.98698 48.6667 6.79948 48.5469 6.69531C48.4323 6.58594 48.237 6.53125 47.9609 6.53125C47.6849 6.53125 47.487 6.58594 47.3672 6.69531C47.2474 6.79948 47.1745 6.98698 47.1484 7.25781C47.1224 7.52865 47.1094 7.90885 47.1094 8.39844V12.4062C47.1094 12.8958 47.1224 13.276 47.1484 13.5469C47.1745 13.8177 47.2448 14.0078 47.3594 14.1172C47.4792 14.2214 47.6797 14.2734 47.9609 14.2734C48.2422 14.2734 48.4401 14.2214 48.5547 14.1172C48.6745 14.0078 48.7448 13.8177 48.7656 13.5469C48.7917 13.276 48.8047 12.8958 48.8047 12.4062V8.39844ZM56.1016 4.80469H58.3906V16H56.1016V10.3516L54.4453 8.15625V16H52.1875V4.78906L54.3984 4.79688L54.4531 4.85938L56.1016 7.03906V4.80469Z" fill="#D92BD2"/>
</g>
<defs>
<filter id="filter0_d" x="0.5" y="0.625" width="61.8906" height="19.5547" filterUnits="userSpaceOnUse" color-interpolation-filters="sRGB">
<feFlood flood-opacity="0" result="BackgroundImageFix"/>
<feColorMatrix in="SourceAlpha" type="matrix" values="0 0 0 0 0 0 0 0 0 0 0 0 0 0 0 0 0 0 127 0"/>
<feOffset/>
<feGaussianBlur stdDeviation="2"/>
<feColorMatrix type="matrix" values="0 0 0 0 0.85098 0 0 0 0 0.168627 0 0 0 0 0.823529 0 0 0 0.3 0"/>
<feBlend mode="normal" in2="BackgroundImageFix" result="effect1_dropShadow"/>
<feBlend mode="normal" in="SourceGraphic" in2="effect1_dropShadow" result="shape"/>
</filter>
</defs>
</svg>
