<svg width="68" height="54" viewBox="0 0 68 54" fill="none" xmlns="http://www.w3.org/2000/svg">
<g filter="url(#filter0_d)">
<path d="M8.89773 17.0256L8.05398 13.8125C7.75852 14.0284 7.47727 14.2273 7.21023 14.4091V17H4.70454V4.78693H8.33523C8.97159 4.78693 9.51136 4.91193 9.95454 5.16193C10.4034 5.41193 10.7472 5.74716 10.9858 6.16761C11.2244 6.58807 11.3437 7.05398 11.3437 7.56534V11.1875C11.0085 11.5057 10.6307 11.8352 10.2102 12.1761L11.4886 17.0256H8.89773ZM7.21023 6.84943V11.6648C7.82386 11.2841 8.42898 10.8011 9.02557 10.2159V8.90341C9.02557 8.40341 9.0142 8.0142 8.99148 7.7358C8.97443 7.45739 8.90909 7.25568 8.79545 7.13068C8.6875 7 8.50852 6.91761 8.25852 6.88352C8.04829 6.8608 7.76989 6.84943 7.42329 6.84943H7.21023ZM15.5625 4.78693H19.679V17H17.1733V13.2756L15.0682 13.1392H15.0597V17H12.554V13.3693L11.6335 11.2557H12.554V7.56534C12.554 7.05398 12.6733 6.58807 12.9119 6.16761C13.1506 5.74716 13.4915 5.41193 13.9347 5.16193C14.3835 4.91193 14.9261 4.78693 15.5625 4.78693ZM15.0597 11.2557H17.1733V6.84943H17.1648C16.9261 6.83807 16.7102 6.83239 16.517 6.83239C15.983 6.83239 15.6193 6.88352 15.4261 6.9858C15.1818 7.11648 15.0597 7.49148 15.0597 8.1108V11.2557ZM26.7443 6.90057L23.4205 6.67045V11.2557H26.7443V13.3693L23.4205 13.1392V17H20.9148V13.3693L19.9943 11.2557H20.9148V4.78693H26.7443V6.90057ZM30.4773 4.78693H34.5938V17H32.0881V13.2756L29.983 13.1392H29.9744V17H27.4688V13.3693L26.5483 11.2557H27.4688V7.56534C27.4688 7.05398 27.5881 6.58807 27.8267 6.16761C28.0653 5.74716 28.4063 5.41193 28.8494 5.16193C29.2983 4.91193 29.8409 4.78693 30.4773 4.78693ZM29.9744 11.2557H32.0881V6.84943H32.0795C31.8409 6.83807 31.625 6.83239 31.4318 6.83239C30.8977 6.83239 30.5341 6.88352 30.3409 6.9858C30.0966 7.11648 29.9744 7.49148 29.9744 8.1108V11.2557ZM42.179 6.90057L38.3523 6.67045V11.2557H42.179V13.3693L38.3523 13.1392V15.108L42.179 14.8778V16.9915H38.3523L35.8551 17V13.3693L34.9261 11.2557H35.8551V4.78693H42.179V6.90057ZM48.8523 12.2443L49.1506 17H43.2869V4.78693H45.7841V15.1165H45.8011L46.8835 15.0398L46.858 12.3977L48.8523 12.2443ZM55.1932 12.2443L55.4915 17H49.6278V4.78693H52.125V15.1165H52.142L53.2244 15.0398L53.1989 12.3977L55.1932 12.2443ZM58.9773 4.78693H63.0938V17H60.5881V13.2756L58.483 13.1392H58.4744V17H55.9688V13.3693L55.0483 11.2557H55.9688V7.56534C55.9688 7.05398 56.0881 6.58807 56.3267 6.16761C56.5653 5.74716 56.9063 5.41193 57.3494 5.16193C57.7983 4.91193 58.3409 4.78693 58.9773 4.78693ZM58.4744 11.2557H60.5881V6.84943H60.5795C60.3409 6.83807 60.125 6.83239 59.9318 6.83239C59.3977 6.83239 59.0341 6.88352 58.8409 6.9858C58.5966 7.11648 58.4744 7.49148 58.4744 8.1108V11.2557Z" fill="#5BB2C4"/>
<path d="M13.6428 23.8445C13.6428 23.461 13.7322 23.1115 13.9112 22.7962C14.0902 22.4808 14.3459 22.2294 14.6783 22.0419C15.0149 21.8544 15.4219 21.7607 15.8991 21.7607L16.5639 21.7671V23.3075L16.2187 23.3203C15.9375 23.3374 15.75 23.4226 15.6562 23.576C15.5668 23.7252 15.522 23.9872 15.522 24.3622V31.4063C15.522 31.7813 15.5646 32.0412 15.6499 32.1861C15.7393 32.331 15.929 32.4119 16.2187 32.429L16.5639 32.4418V33.9823L15.8991 33.9887C15.4219 33.9887 15.0149 33.8949 14.6783 33.7074C14.3459 33.5199 14.0902 33.2685 13.9112 32.9531C13.7322 32.6378 13.6428 32.2884 13.6428 31.9048V23.8445ZM19.5937 23.2948H22.6811V32.4546H20.8018V29.6612L19.223 29.559H19.2166V32.4546H17.3374V29.7315L16.647 28.1463H17.3374V25.3786C17.3374 24.995 17.4268 24.6456 17.6058 24.3303C17.7848 24.0149 18.0405 23.7635 18.3729 23.576C18.7095 23.3885 19.1165 23.2948 19.5937 23.2948ZM19.2166 28.1463H20.8018V24.8416H20.7955C20.6165 24.8331 20.4545 24.8288 20.3097 24.8288C19.9091 24.8288 19.6364 24.8672 19.4915 24.9439C19.3082 25.0419 19.2166 25.3232 19.2166 25.7877V28.1463ZM26.8104 23.2948H28.6832V32.4546H26.8104V27.8331L25.4553 26.0369V32.4546H23.608V23.282L25.4169 23.2884L25.4616 23.3395L26.8104 25.1229V23.2948ZM33.343 23.2948V30.3708C33.343 30.7543 33.2536 31.1037 33.0746 31.419C32.8956 31.7344 32.6378 31.9858 32.3011 32.1733C31.9645 32.3608 31.5597 32.4546 31.0866 32.4546L29.2969 32.4482V29.2202H30.799L30.684 30.9013C31.0078 30.8928 31.2209 30.8139 31.3232 30.6648C31.4169 30.5242 31.4638 30.26 31.4638 29.8722V24.522L30.0831 24.5668L29.527 23.3011H31.4638V23.2948H33.343ZM39.2429 24.669C39.2599 24.7287 39.2749 24.8139 39.2876 24.9247C39.3047 25.0313 39.3132 25.1186 39.3132 25.1868V30.5242C39.3132 30.9077 39.2237 31.2571 39.0447 31.5725C38.8658 31.8835 38.608 32.1328 38.2713 32.3203C37.9389 32.5078 37.5341 32.6016 37.0568 32.6016H36.424C35.951 32.6016 35.5462 32.5078 35.2095 32.3203C34.8729 32.1328 34.6151 31.8835 34.4361 31.5725C34.2614 31.2571 34.174 30.9077 34.174 30.5242V25.2252C34.174 24.8416 34.2614 24.4943 34.4361 24.1833C34.6151 23.8679 34.8729 23.6165 35.2095 23.429C35.5462 23.2415 35.951 23.1477 36.424 23.1477H37.0568C37.6491 23.1477 38.1328 23.2905 38.5078 23.576C38.8828 23.8573 39.1278 24.2216 39.2429 24.669ZM37.434 26.2351C37.434 25.8345 37.4233 25.5235 37.402 25.3019C37.3807 25.0803 37.321 24.9269 37.223 24.8416C37.1293 24.7521 36.9695 24.7074 36.7436 24.7074C36.5178 24.7074 36.3558 24.7521 36.2578 24.8416C36.1598 24.9269 36.1001 25.0803 36.0788 25.3019C36.0575 25.5235 36.0469 25.8345 36.0469 26.2351V29.5142C36.0469 29.9148 36.0575 30.2259 36.0788 30.4475C36.1001 30.669 36.1577 30.8246 36.2514 30.9141C36.3494 30.9993 36.5135 31.0419 36.7436 31.0419C36.9737 31.0419 37.1357 30.9993 37.2294 30.9141C37.3274 30.8246 37.3849 30.669 37.402 30.4475C37.4233 30.2259 37.434 29.9148 37.434 29.5142V26.2351ZM48.3899 25.3786V30.3708C48.3899 30.7543 48.3004 31.1037 48.1215 31.419C47.9425 31.7344 47.6847 31.9858 47.348 32.1733C47.0114 32.3608 46.6065 32.4546 46.1335 32.4546H43.1548V23.2948H46.1335C46.6065 23.2948 47.0114 23.3885 47.348 23.576C47.6847 23.7635 47.9425 24.0149 48.1215 24.3303C48.3004 24.6456 48.3899 24.995 48.3899 25.3786ZM45.0341 30.9077C45.1534 30.9119 45.2621 30.9141 45.3601 30.9141C45.8033 30.9141 46.0994 30.8693 46.2486 30.7798C46.4233 30.6776 46.5107 30.3985 46.5107 29.9425V25.8068C46.5107 25.3509 46.4233 25.0717 46.2486 24.9695C46.0994 24.88 45.8033 24.8352 45.3601 24.8352C45.2621 24.8352 45.1534 24.8374 45.0341 24.8416V30.9077ZM51.4645 23.2948H54.5518V32.4546H52.6726V29.6612L51.0938 29.559H51.0874V32.4546H49.2081V29.7315L48.5178 28.1463H49.2081V25.3786C49.2081 24.995 49.2976 24.6456 49.4766 24.3303C49.6555 24.0149 49.9112 23.7635 50.2436 23.576C50.5803 23.3885 50.9872 23.2948 51.4645 23.2948ZM51.0874 28.1463H52.6726V24.8416H52.6662C52.4872 24.8331 52.3253 24.8288 52.1804 24.8288C51.7798 24.8288 51.5071 24.8672 51.3622 24.9439C51.179 25.0419 51.0874 25.3232 51.0874 25.7877V28.1463ZM22.6683 39.7074H22.6619V44.9105C22.6619 45.3835 22.7493 45.6733 22.924 45.7798C23.0732 45.8693 23.3693 45.9141 23.8125 45.9141C23.9148 45.9141 24.0256 45.9119 24.1449 45.9077H25.0845V47.4546H23.0391C22.5661 47.4546 22.1612 47.3608 21.8246 47.1733C21.4879 46.9858 21.2301 46.7344 21.0511 46.419C20.8764 46.1037 20.7891 45.7543 20.7891 45.3708V38.2948H25.0845V39.88L22.6683 39.7074ZM29.201 38.2948H31.0739V47.4546H27.9865C27.5135 47.4546 27.1087 47.3608 26.772 47.1733C26.4354 46.9858 26.1776 46.7344 25.9986 46.419C25.8239 46.1037 25.7365 45.7543 25.7365 45.3708V38.2948H27.6094V44.9105C27.6094 45.3835 27.6989 45.6733 27.8778 45.7798C28.0398 45.8736 28.3551 45.9205 28.8239 45.9205C28.9134 45.9205 29.0092 45.9183 29.1115 45.9141H29.201V38.2948ZM35.1392 47.4737L34.5064 45.0639C34.2848 45.2259 34.0739 45.375 33.8736 45.5114V47.4546H31.9943V38.2948H34.7173C35.1946 38.2948 35.5994 38.3885 35.9318 38.576C36.2685 38.7635 36.5263 39.0149 36.7053 39.3303C36.8842 39.6456 36.9737 39.995 36.9737 40.3786V43.0952C36.7223 43.3338 36.4389 43.581 36.1236 43.8367L37.0824 47.4737H35.1392ZM33.8736 39.8416V43.4531C34.3338 43.1676 34.7876 42.8054 35.2351 42.3665V41.3821C35.2351 41.0071 35.2266 40.7152 35.2095 40.5064C35.1967 40.2976 35.1477 40.1463 35.0625 40.0526C34.9815 39.9546 34.8473 39.8928 34.6598 39.8672C34.5021 39.8502 34.2933 39.8416 34.0334 39.8416H33.8736ZM40.1378 38.2948H43.2251V47.4546H41.3459V44.6612L39.767 44.559H39.7607V47.4546H37.8814V44.7315L37.1911 43.1463H37.8814V40.3786C37.8814 39.995 37.9709 39.6456 38.1499 39.3303C38.3288 39.0149 38.5845 38.7635 38.9169 38.576C39.2536 38.3885 39.6605 38.2948 40.1378 38.2948ZM39.7607 43.1463H41.3459V39.8416H41.3395C41.1605 39.8331 40.9986 39.8288 40.8537 39.8288C40.4531 39.8288 40.1804 39.8672 40.0355 39.9439C39.8523 40.0419 39.7607 40.3232 39.7607 40.7877V43.1463ZM47.1818 46.9048C47.1818 47.2884 47.0923 47.6378 46.9134 47.9531C46.7386 48.2685 46.483 48.5199 46.1463 48.7074C45.8097 48.8949 45.4048 48.9887 44.9318 48.9887L44.2607 48.9823V47.4418L44.6122 47.429C44.8977 47.4119 45.0852 47.3288 45.1747 47.1797C45.2642 47.0306 45.3089 46.7557 45.3089 46.3551H45.3026V39.3622C45.3026 38.9872 45.2557 38.7252 45.1619 38.576C45.0724 38.4226 44.8892 38.3374 44.6122 38.3203L44.2607 38.3075V36.7671L44.9318 36.7607C45.4048 36.7607 45.8097 36.8544 46.1463 37.0419C46.483 37.2294 46.7386 37.4808 46.9134 37.7962C47.0923 38.1115 47.1818 38.461 47.1818 38.8445V46.9048Z" fill="#5BB2C4"/>
</g>
<defs>
<filter id="filter0_d" x="0.340908" y="0.42329" width="67.1165" height="52.929" filterUnits="userSpaceOnUse" color-interpolation-filters="sRGB">
<feFlood flood-opacity="0" result="BackgroundImageFix"/>
<feColorMatrix in="SourceAlpha" type="matrix" values="0 0 0 0 0 0 0 0 0 0 0 0 0 0 0 0 0 0 127 0"/>
<feOffset/>
<feGaussianBlur stdDeviation="2.18182"/>
<feColorMatrix type="matrix" values="0 0 0 0 0.156042 0 0 0 0 0.31675 0 0 0 0 0.35 0 0 0 0.3 0"/>
<feBlend mode="normal" in2="BackgroundImageFix" result="effect1_dropShadow"/>
<feBlend mode="normal" in="SourceGraphic" in2="effect1_dropShadow" result="shape"/>
</filter>
</defs>
</svg>
