<svg width="74" height="35" viewBox="0 0 74 35" fill="none" xmlns="http://www.w3.org/2000/svg">
<g filter="url(#filter0_d)">
<path d="M14.0312 16.0234L13.2578 13.0781C12.987 13.276 12.7292 13.4583 12.4844 13.625V16H10.1875V4.80469H13.5156C14.099 4.80469 14.5938 4.91927 15 5.14844C15.4115 5.3776 15.7266 5.6849 15.9453 6.07031C16.1641 6.45573 16.2734 6.88281 16.2734 7.35156V10.6719C15.9661 10.9635 15.6198 11.2656 15.2344 11.5781L16.4062 16.0234H14.0312ZM12.4844 6.69531V11.1094C13.0469 10.7604 13.6016 10.3177 14.1484 9.78125V8.57812C14.1484 8.11979 14.138 7.76302 14.1172 7.50781C14.1016 7.2526 14.0417 7.06771 13.9375 6.95312C13.8385 6.83333 13.6745 6.75781 13.4453 6.72656C13.2526 6.70573 12.9974 6.69531 12.6797 6.69531H12.4844ZM20.1406 4.80469H23.9141V16H21.6172V12.5859L19.6875 12.4609H19.6797V16H17.3828V12.6719L16.5391 10.7344H17.3828V7.35156C17.3828 6.88281 17.4922 6.45573 17.7109 6.07031C17.9297 5.6849 18.2422 5.3776 18.6484 5.14844C19.0599 4.91927 19.5573 4.80469 20.1406 4.80469ZM19.6797 10.7344H21.6172V6.69531H21.6094C21.3906 6.6849 21.1927 6.67969 21.0156 6.67969C20.526 6.67969 20.1927 6.72656 20.0156 6.82031C19.7917 6.9401 19.6797 7.28385 19.6797 7.85156V10.7344ZM30.3906 6.74219L27.3438 6.53125V10.7344H30.3906V12.6719L27.3438 12.4609V16H25.0469V12.6719L24.2031 10.7344H25.0469V4.80469H30.3906V6.74219ZM33.8125 4.80469H37.5859V16H35.2891V12.5859L33.3594 12.4609H33.3516V16H31.0547V12.6719L30.2109 10.7344H31.0547V7.35156C31.0547 6.88281 31.1641 6.45573 31.3828 6.07031C31.6016 5.6849 31.9141 5.3776 32.3203 5.14844C32.7318 4.91927 33.2292 4.80469 33.8125 4.80469ZM33.3516 10.7344H35.2891V6.69531H35.2812C35.0625 6.6849 34.8646 6.67969 34.6875 6.67969C34.1979 6.67969 33.8646 6.72656 33.6875 6.82031C33.4635 6.9401 33.3516 7.28385 33.3516 7.85156V10.7344ZM44.5391 6.74219L41.0312 6.53125V10.7344H44.5391V12.6719L41.0312 12.4609V14.2656L44.5391 14.0547V15.9922H41.0312L38.7422 16V12.6719L37.8906 10.7344H38.7422V4.80469H44.5391V6.74219ZM50.6562 11.6406L50.9297 16H45.5547V4.80469H47.8438V14.2734H47.8594L48.8516 14.2031L48.8281 11.7812L50.6562 11.6406ZM56.4688 11.6406L56.7422 16H51.3672V4.80469H53.6562V14.2734H53.6719L54.6641 14.2031L54.6406 11.7812L56.4688 11.6406ZM59.9375 4.80469H63.7109V16H61.4141V12.5859L59.4844 12.4609H59.4766V16H57.1797V12.6719L56.3359 10.7344H57.1797V7.35156C57.1797 6.88281 57.2891 6.45573 57.5078 6.07031C57.7266 5.6849 58.0391 5.3776 58.4453 5.14844C58.8568 4.91927 59.3542 4.80469 59.9375 4.80469ZM59.4766 10.7344H61.4141V6.69531H61.4062C61.1875 6.6849 60.9896 6.67969 60.8125 6.67969C60.3229 6.67969 59.9896 6.72656 59.8125 6.82031C59.5885 6.9401 59.4766 7.28385 59.4766 7.85156V10.7344Z" fill="#5BB2C4"/>
<path d="M4.5 21.1074C4.5 20.7559 4.58203 20.4355 4.74609 20.1465C4.91016 19.8574 5.14453 19.627 5.44922 19.4551C5.75781 19.2832 6.13086 19.1973 6.56836 19.1973L7.17773 19.2031V20.6152L6.86133 20.627C6.60352 20.6426 6.43164 20.7207 6.3457 20.8613C6.26367 20.998 6.22266 21.2383 6.22266 21.582V28.0391C6.22266 28.3828 6.26172 28.6211 6.33984 28.7539C6.42188 28.8867 6.5957 28.9609 6.86133 28.9766L7.17773 28.9883V30.4004L6.56836 30.4062C6.13086 30.4062 5.75781 30.3203 5.44922 30.1484C5.14453 29.9766 4.91016 29.7461 4.74609 29.457C4.58203 29.168 4.5 28.8477 4.5 28.4961V21.1074ZM9.95508 20.6035H12.7852V29H11.0625V26.4395L9.61523 26.3457H9.60938V29H7.88672V26.5039L7.25391 25.0508H7.88672V22.5137C7.88672 22.1621 7.96875 21.8418 8.13281 21.5527C8.29688 21.2637 8.53125 21.0332 8.83594 20.8613C9.14453 20.6895 9.51758 20.6035 9.95508 20.6035ZM9.60938 25.0508H11.0625V22.0215H11.0566C10.8926 22.0137 10.7441 22.0098 10.6113 22.0098C10.2441 22.0098 9.99414 22.0449 9.86133 22.1152C9.69336 22.2051 9.60938 22.4629 9.60938 22.8887V25.0508ZM16.5703 20.6035H18.2871V29H16.5703V24.7637L15.3281 23.1172V29H13.6348V20.5918L15.293 20.5977L15.334 20.6445L16.5703 22.2793V20.6035ZM22.5586 20.6035V27.0898C22.5586 27.4414 22.4766 27.7617 22.3125 28.0508C22.1484 28.3398 21.9121 28.5703 21.6035 28.7422C21.2949 28.9141 20.9238 29 20.4902 29L18.8496 28.9941V26.0352H20.2266L20.1211 27.5762C20.418 27.5684 20.6133 27.4961 20.707 27.3594C20.793 27.2305 20.8359 26.9883 20.8359 26.6328V21.7285L19.5703 21.7695L19.0605 20.6094H20.8359V20.6035H22.5586ZM27.9668 21.8633C27.9824 21.918 27.9961 21.9961 28.0078 22.0977C28.0234 22.1953 28.0312 22.2754 28.0312 22.3379V27.2305C28.0312 27.582 27.9492 27.9023 27.7852 28.1914C27.6211 28.4766 27.3848 28.7051 27.0762 28.877C26.7715 29.0488 26.4004 29.1348 25.9629 29.1348H25.3828C24.9492 29.1348 24.5781 29.0488 24.2695 28.877C23.9609 28.7051 23.7246 28.4766 23.5605 28.1914C23.4004 27.9023 23.3203 27.582 23.3203 27.2305V22.373C23.3203 22.0215 23.4004 21.7031 23.5605 21.418C23.7246 21.1289 23.9609 20.8984 24.2695 20.7266C24.5781 20.5547 24.9492 20.4688 25.3828 20.4688H25.9629C26.5059 20.4688 26.9492 20.5996 27.293 20.8613C27.6367 21.1191 27.8613 21.4531 27.9668 21.8633ZM26.3086 23.2988C26.3086 22.9316 26.2988 22.6465 26.2793 22.4434C26.2598 22.2402 26.2051 22.0996 26.1152 22.0215C26.0293 21.9395 25.8828 21.8984 25.6758 21.8984C25.4688 21.8984 25.3203 21.9395 25.2305 22.0215C25.1406 22.0996 25.0859 22.2402 25.0664 22.4434C25.0469 22.6465 25.0371 22.9316 25.0371 23.2988V26.3047C25.0371 26.6719 25.0469 26.957 25.0664 27.1602C25.0859 27.3633 25.1387 27.5059 25.2246 27.5879C25.3145 27.666 25.4648 27.7051 25.6758 27.7051C25.8867 27.7051 26.0352 27.666 26.1211 27.5879C26.2109 27.5059 26.2637 27.3633 26.2793 27.1602C26.2988 26.957 26.3086 26.6719 26.3086 26.3047V23.2988ZM36.3516 22.5137V27.0898C36.3516 27.4414 36.2695 27.7617 36.1055 28.0508C35.9414 28.3398 35.7051 28.5703 35.3965 28.7422C35.0879 28.9141 34.7168 29 34.2832 29H31.5527V20.6035H34.2832C34.7168 20.6035 35.0879 20.6895 35.3965 20.8613C35.7051 21.0332 35.9414 21.2637 36.1055 21.5527C36.2695 21.8418 36.3516 22.1621 36.3516 22.5137ZM33.2754 27.582C33.3848 27.5859 33.4844 27.5879 33.5742 27.5879C33.9805 27.5879 34.252 27.5469 34.3887 27.4648C34.5488 27.3711 34.6289 27.1152 34.6289 26.6973V22.9062C34.6289 22.4883 34.5488 22.2324 34.3887 22.1387C34.252 22.0566 33.9805 22.0156 33.5742 22.0156C33.4844 22.0156 33.3848 22.0176 33.2754 22.0215V27.582ZM39.1699 20.6035H42V29H40.2773V26.4395L38.8301 26.3457H38.8242V29H37.1016V26.5039L36.4688 25.0508H37.1016V22.5137C37.1016 22.1621 37.1836 21.8418 37.3477 21.5527C37.5117 21.2637 37.7461 21.0332 38.0508 20.8613C38.3594 20.6895 38.7324 20.6035 39.1699 20.6035ZM38.8242 25.0508H40.2773V22.0215H40.2715C40.1074 22.0137 39.959 22.0098 39.8262 22.0098C39.459 22.0098 39.209 22.0449 39.0762 22.1152C38.9082 22.2051 38.8242 22.4629 38.8242 22.8887V25.0508ZM47.2266 21.8984H47.2207V26.668C47.2207 27.1016 47.3008 27.3672 47.4609 27.4648C47.5977 27.5469 47.8691 27.5879 48.2754 27.5879C48.3691 27.5879 48.4707 27.5859 48.5801 27.582H49.4414V29H47.5664C47.1328 29 46.7617 28.9141 46.4531 28.7422C46.1445 28.5703 45.9082 28.3398 45.7441 28.0508C45.584 27.7617 45.5039 27.4414 45.5039 27.0898V20.6035H49.4414V22.0566L47.2266 21.8984ZM53.2148 20.6035H54.9316V29H52.1016C51.668 29 51.2969 28.9141 50.9883 28.7422C50.6797 28.5703 50.4434 28.3398 50.2793 28.0508C50.1191 27.7617 50.0391 27.4414 50.0391 27.0898V20.6035H51.7559V26.668C51.7559 27.1016 51.8379 27.3672 52.002 27.4648C52.1504 27.5508 52.4395 27.5938 52.8691 27.5938C52.9512 27.5938 53.0391 27.5918 53.1328 27.5879H53.2148V20.6035ZM58.6582 29.0176L58.0781 26.8086C57.875 26.957 57.6816 27.0938 57.498 27.2188V29H55.7754V20.6035H58.2715C58.709 20.6035 59.0801 20.6895 59.3848 20.8613C59.6934 21.0332 59.9297 21.2637 60.0938 21.5527C60.2578 21.8418 60.3398 22.1621 60.3398 22.5137V25.0039C60.1094 25.2227 59.8496 25.4492 59.5605 25.6836L60.4395 29.0176H58.6582ZM57.498 22.0215V25.332C57.9199 25.0703 58.3359 24.7383 58.7461 24.3359V23.4336C58.7461 23.0898 58.7383 22.8223 58.7227 22.6309C58.7109 22.4395 58.666 22.3008 58.5879 22.2148C58.5137 22.125 58.3906 22.0684 58.2188 22.0449C58.0742 22.0293 57.8828 22.0215 57.6445 22.0215H57.498ZM63.2402 20.6035H66.0703V29H64.3477V26.4395L62.9004 26.3457H62.8945V29H61.1719V26.5039L60.5391 25.0508H61.1719V22.5137C61.1719 22.1621 61.2539 21.8418 61.418 21.5527C61.582 21.2637 61.8164 21.0332 62.1211 20.8613C62.4297 20.6895 62.8027 20.6035 63.2402 20.6035ZM62.8945 25.0508H64.3477V22.0215H64.3418C64.1777 22.0137 64.0293 22.0098 63.8965 22.0098C63.5293 22.0098 63.2793 22.0449 63.1465 22.1152C62.9785 22.2051 62.8945 22.4629 62.8945 22.8887V25.0508ZM69.6973 28.4961C69.6973 28.8477 69.6152 29.168 69.4512 29.457C69.291 29.7461 69.0566 29.9766 68.748 30.1484C68.4395 30.3203 68.0684 30.4062 67.6348 30.4062L67.0195 30.4004V28.9883L67.3418 28.9766C67.6035 28.9609 67.7754 28.8848 67.8574 28.748C67.9395 28.6113 67.9805 28.3594 67.9805 27.9922H67.9746V21.582C67.9746 21.2383 67.9316 20.998 67.8457 20.8613C67.7637 20.7207 67.5957 20.6426 67.3418 20.627L67.0195 20.6152V19.2031L67.6348 19.1973C68.0684 19.1973 68.4395 19.2832 68.748 19.4551C69.0566 19.627 69.291 19.8574 69.4512 20.1465C69.6152 20.4355 69.6973 20.7559 69.6973 21.1074V28.4961Z" fill="#5BB2C4"/>
</g>
<defs>
<filter id="filter0_d" x="0.5" y="0.804688" width="73.1973" height="33.6016" filterUnits="userSpaceOnUse" color-interpolation-filters="sRGB">
<feFlood flood-opacity="0" result="BackgroundImageFix"/>
<feColorMatrix in="SourceAlpha" type="matrix" values="0 0 0 0 0 0 0 0 0 0 0 0 0 0 0 0 0 0 127 0"/>
<feOffset/>
<feGaussianBlur stdDeviation="2"/>
<feColorMatrix type="matrix" values="0 0 0 0 0.156042 0 0 0 0 0.31675 0 0 0 0 0.35 0 0 0 0.3 0"/>
<feBlend mode="normal" in2="BackgroundImageFix" result="effect1_dropShadow"/>
<feBlend mode="normal" in="SourceGraphic" in2="effect1_dropShadow" result="shape"/>
</filter>
</defs>
</svg>
