<svg width="59" height="21" viewBox="0 0 59 21" fill="none" xmlns="http://www.w3.org/2000/svg">
<g filter="url(#filter0_d)">
<path d="M10.0781 9.16406L8.25 9.03125V6.69531H8.20312C8.07812 6.6901 7.96354 6.6875 7.85938 6.6875C7.36979 6.6875 7.02604 6.72917 6.82812 6.8125C6.63021 6.89583 6.52344 7.15104 6.50781 7.57812C6.5026 7.64583 6.4974 7.72917 6.49219 7.82812C6.49219 7.92708 6.48958 8.02865 6.48438 8.13281C6.48438 8.23177 6.48438 8.3151 6.48438 8.38281V8.49219L10.4453 11.3281V13.4453C10.4453 13.9141 10.3359 14.3411 10.1172 14.7266C9.89844 15.112 9.58333 15.4193 9.17188 15.6484C8.76562 15.8776 8.27344 15.9922 7.69531 15.9922H4.36719V12L6.19531 12.1328L6.42188 14.1016C6.61458 14.1016 6.78906 14.1042 6.94531 14.1094C7.05469 14.1146 7.15625 14.1172 7.25 14.1172C7.5 14.1172 7.71094 14.1016 7.88281 14.0703C8.05469 14.0339 8.17188 13.9219 8.23438 13.7344C8.29688 13.5417 8.32812 13.2266 8.32812 12.7891V12.6484L4.36719 9.75781V7.35156C4.36719 6.88281 4.47396 6.45573 4.6875 6.07031C4.90625 5.6849 5.22135 5.3776 5.63281 5.14844C6.04427 4.91927 6.53906 4.80469 7.11719 4.80469H10.3516L10.0781 9.16406ZM14.0547 4.80469H17.8281V16H15.5312V12.5859L13.6016 12.4609H13.5938V16H11.2969V12.6719L10.4531 10.7344H11.2969V7.35156C11.2969 6.88281 11.4062 6.45573 11.625 6.07031C11.8438 5.6849 12.1562 5.3776 12.5625 5.14844C12.974 4.91927 13.4714 4.80469 14.0547 4.80469ZM13.5938 10.7344H15.5312V6.69531H15.5234C15.3047 6.6849 15.1068 6.67969 14.9297 6.67969C14.4401 6.67969 14.1068 6.72656 13.9297 6.82031C13.7057 6.9401 13.5938 7.28385 13.5938 7.85156V10.7344ZM22.875 4.80469H25.1641V16H22.875V10.3516L21.2188 8.15625V16H18.9609V4.78906L21.1719 4.79688L21.2266 4.85938L22.875 7.03906V4.80469ZM30.2031 11.1328L28.75 14.2891L32.1328 14.0859V16.0234H26.3359L26.3203 14.0859L27.6328 11.2266L26.3359 11.3047V9.36719H28.4844L29.7812 6.53906L26.3359 6.74219V4.80469H32.1328V6.91406L31.0078 9.36719H32.6562L31.8125 11.3047L30.2031 11.1328ZM36.0703 4.80469H39.8438V16H37.5469V12.5859L35.6172 12.4609H35.6094V16H33.3125V12.6719L32.4688 10.7344H33.3125V7.35156C33.3125 6.88281 33.4219 6.45573 33.6406 6.07031C33.8594 5.6849 34.1719 5.3776 34.5781 5.14844C34.9896 4.91927 35.487 4.80469 36.0703 4.80469ZM35.6094 10.7344H37.5469V6.69531H37.5391C37.3203 6.6849 37.1224 6.67969 36.9453 6.67969C36.4557 6.67969 36.1224 6.72656 35.9453 6.82031C35.7214 6.9401 35.6094 7.28385 35.6094 7.85156V10.7344ZM44.8906 4.80469H47.1797V16H44.8906V10.3516L43.2344 8.15625V16H40.9766V4.78906L43.1875 4.79688L43.2422 4.85938L44.8906 7.03906V4.80469ZM51.5469 12.3203L50.8672 10.7734L54.3672 10.7656V16H50.9453C50.3672 16 49.8724 15.8854 49.4609 15.6562C49.0547 15.4271 48.7422 15.1198 48.5234 14.7344C48.3047 14.349 48.1953 13.9219 48.1953 13.4531V7.35156C48.1953 6.88281 48.3047 6.45573 48.5234 6.07031C48.7422 5.6849 49.0547 5.3776 49.4609 5.14844C49.8724 4.91927 50.3672 4.80469 50.9453 4.80469H54.3672L54.0938 9.16406L52.2656 9.03125V6.74219H52.1094C51.7448 6.74219 51.4479 6.75781 51.2188 6.78906C50.9896 6.82031 50.8203 6.88281 50.7109 6.97656C50.6068 7.0651 50.5443 7.19531 50.5234 7.36719C50.5026 7.53906 50.4922 7.76562 50.4922 8.04688V12.4922C50.4974 13.1641 50.6172 13.6042 50.8516 13.8125C51.0807 14.0104 51.474 14.1094 52.0312 14.1094H52.0781V12.2969L51.5469 12.3203Z" fill="#D92BD2"/>
</g>
<defs>
<filter id="filter0_d" x="0.367188" y="0.789062" width="58" height="19.2344" filterUnits="userSpaceOnUse" color-interpolation-filters="sRGB">
<feFlood flood-opacity="0" result="BackgroundImageFix"/>
<feColorMatrix in="SourceAlpha" type="matrix" values="0 0 0 0 0 0 0 0 0 0 0 0 0 0 0 0 0 0 127 0"/>
<feOffset/>
<feGaussianBlur stdDeviation="2"/>
<feColorMatrix type="matrix" values="0 0 0 0 0.85098 0 0 0 0 0.168627 0 0 0 0 0.823529 0 0 0 0.3 0"/>
<feBlend mode="normal" in2="BackgroundImageFix" result="effect1_dropShadow"/>
<feBlend mode="normal" in="SourceGraphic" in2="effect1_dropShadow" result="shape"/>
</filter>
</defs>
</svg>
