<svg width="58" height="21" viewBox="0 0 58 21" fill="none" xmlns="http://www.w3.org/2000/svg">
<g filter="url(#filter0_d)">
<path d="M9.74219 9.16406L7.91406 9.03125V6.69531H7.86719C7.74219 6.6901 7.6276 6.6875 7.52344 6.6875C7.03385 6.6875 6.6901 6.72917 6.49219 6.8125C6.29427 6.89583 6.1875 7.15104 6.17188 7.57812C6.16667 7.64583 6.16146 7.72917 6.15625 7.82812C6.15625 7.92708 6.15365 8.02865 6.14844 8.13281C6.14844 8.23177 6.14844 8.3151 6.14844 8.38281V8.49219L10.1094 11.3281V13.4453C10.1094 13.9141 10 14.3411 9.78125 14.7266C9.5625 15.112 9.2474 15.4193 8.83594 15.6484C8.42969 15.8776 7.9375 15.9922 7.35938 15.9922H4.03125V12L5.85938 12.1328L6.08594 14.1016C6.27865 14.1016 6.45312 14.1042 6.60938 14.1094C6.71875 14.1146 6.82031 14.1172 6.91406 14.1172C7.16406 14.1172 7.375 14.1016 7.54688 14.0703C7.71875 14.0339 7.83594 13.9219 7.89844 13.7344C7.96094 13.5417 7.99219 13.2266 7.99219 12.7891V12.6484L4.03125 9.75781V7.35156C4.03125 6.88281 4.13802 6.45573 4.35156 6.07031C4.57031 5.6849 4.88542 5.3776 5.29688 5.14844C5.70833 4.91927 6.20312 4.80469 6.78125 4.80469H10.0156L9.74219 9.16406ZM16.7578 6.74219L13.25 6.53125V10.7344H16.7578V12.6719L13.25 12.4609V14.2656L16.7578 14.0547V15.9922H13.25L10.9609 16V12.6719L10.1094 10.7344H10.9609V4.80469H16.7578V6.74219ZM21.6094 16.0234L20.8359 13.0781C20.5651 13.276 20.3073 13.4583 20.0625 13.625V16H17.7656V4.80469H21.0938C21.6771 4.80469 22.1719 4.91927 22.5781 5.14844C22.9896 5.3776 23.3047 5.6849 23.5234 6.07031C23.7422 6.45573 23.8516 6.88281 23.8516 7.35156V10.6719C23.5443 10.9635 23.1979 11.2656 22.8125 11.5781L23.9844 16.0234H21.6094ZM20.0625 6.69531V11.1094C20.625 10.7604 21.1797 10.3177 21.7266 9.78125V8.57812C21.7266 8.11979 21.7161 7.76302 21.6953 7.50781C21.6797 7.2526 21.6198 7.06771 21.5156 6.95312C21.4167 6.83333 21.2526 6.75781 21.0234 6.72656C20.8307 6.70573 20.5755 6.69531 20.2578 6.69531H20.0625ZM27.7188 4.80469H31.4922V16H29.1953V12.5859L27.2656 12.4609H27.2578V16H24.9609V12.6719L24.1172 10.7344H24.9609V7.35156C24.9609 6.88281 25.0703 6.45573 25.2891 6.07031C25.5078 5.6849 25.8203 5.3776 26.2266 5.14844C26.638 4.91927 27.1354 4.80469 27.7188 4.80469ZM27.2578 10.7344H29.1953V6.69531H29.1875C28.9688 6.6849 28.7708 6.67969 28.5938 6.67969C28.1042 6.67969 27.7708 6.72656 27.5938 6.82031C27.3698 6.9401 27.2578 7.28385 27.2578 7.85156V10.7344ZM37.9688 6.74219L34.9219 6.53125V10.7344H37.9688V12.6719L34.9219 12.4609V16H32.625V12.6719L31.7812 10.7344H32.625V4.80469H37.9688V6.74219ZM42.8594 6.36719L41.7031 6.32031V14.3672L42.8594 14.3906V16H38.5859L37.9062 14.5469L39.4062 14.4375V6.32031L38.5859 6.35938L37.9062 4.8125L42.8594 4.80469V6.36719ZM50.8906 4.80469H53.6875V16H51.3906V7.15625L49.9062 8.78906V16H47.6094V8.78906L46.125 7.15625V16H43.8359V4.80469H46.625L48.7578 6.90625L50.8906 4.80469Z" fill="#DFB460"/>
</g>
<defs>
<filter id="filter0_d" x="0.03125" y="0.804688" width="57.6562" height="19.2188" filterUnits="userSpaceOnUse" color-interpolation-filters="sRGB">
<feFlood flood-opacity="0" result="BackgroundImageFix"/>
<feColorMatrix in="SourceAlpha" type="matrix" values="0 0 0 0 0 0 0 0 0 0 0 0 0 0 0 0 0 0 127 0"/>
<feOffset/>
<feGaussianBlur stdDeviation="2"/>
<feColorMatrix type="matrix" values="0 0 0 0 0.87451 0 0 0 0 0.705882 0 0 0 0 0.376471 0 0 0 0.3 0"/>
<feBlend mode="normal" in2="BackgroundImageFix" result="effect1_dropShadow"/>
<feBlend mode="normal" in="SourceGraphic" in2="effect1_dropShadow" result="shape"/>
</filter>
</defs>
</svg>
