<svg width="54" height="49" viewBox="0 0 54 49" fill="none" xmlns="http://www.w3.org/2000/svg">
<g filter="url(#filter0_d)">
<path d="M8.67188 4.80469H10.9609V16H7.1875C6.60938 16 6.11458 15.8854 5.70312 15.6562C5.29167 15.4271 4.97656 15.1198 4.75781 14.7344C4.54427 14.349 4.4375 13.9219 4.4375 13.4531V4.80469H6.72656V12.8906C6.72656 13.4688 6.83594 13.8229 7.05469 13.9531C7.2526 14.0677 7.63802 14.125 8.21094 14.125C8.32031 14.125 8.4375 14.1224 8.5625 14.1172H8.67188V4.80469ZM15.9297 16.0234L15.1562 13.0781C14.8854 13.276 14.6276 13.4583 14.3828 13.625V16H12.0859V4.80469H15.4141C15.9974 4.80469 16.4922 4.91927 16.8984 5.14844C17.3099 5.3776 17.625 5.6849 17.8438 6.07031C18.0625 6.45573 18.1719 6.88281 18.1719 7.35156V10.6719C17.8646 10.9635 17.5182 11.2656 17.1328 11.5781L18.3047 16.0234H15.9297ZM14.3828 6.69531V11.1094C14.9453 10.7604 15.5 10.3177 16.0469 9.78125V8.57812C16.0469 8.11979 16.0365 7.76302 16.0156 7.50781C16 7.2526 15.9401 7.06771 15.8359 6.95312C15.737 6.83333 15.5729 6.75781 15.3438 6.72656C15.151 6.70573 14.8958 6.69531 14.5781 6.69531H14.3828ZM23.5078 6.36719L22.3516 6.32031V14.3672L23.5078 14.3906V16H19.2344L18.5547 14.5469L20.0547 14.4375V6.32031L19.2344 6.35938L18.5547 4.8125L23.5078 4.80469V6.36719ZM30.2812 6.74219L26.7734 6.53125V10.7344H30.2812V12.6719L26.7734 12.4609V14.2656L30.2812 14.0547V15.9922H26.7734L24.4844 16V12.6719L23.6328 10.7344H24.4844V4.80469H30.2812V6.74219ZM36.3984 11.6406L36.6719 16H31.2969V4.80469H33.5859V14.2734H33.6016L34.5938 14.2031L34.5703 11.7812L36.3984 11.6406ZM42.2109 11.6406L42.4844 16H37.1094V4.80469H39.3984V14.2734H39.4141L40.4062 14.2031L40.3828 11.7812L42.2109 11.6406ZM45.6797 4.80469H49.4531V16H47.1562V12.5859L45.2266 12.4609H45.2188V16H42.9219V12.6719L42.0781 10.7344H42.9219V7.35156C42.9219 6.88281 43.0312 6.45573 43.25 6.07031C43.4688 5.6849 43.7812 5.3776 44.1875 5.14844C44.599 4.91927 45.0964 4.80469 45.6797 4.80469ZM45.2188 10.7344H47.1562V6.69531H47.1484C46.9297 6.6849 46.7318 6.67969 46.5547 6.67969C46.0651 6.67969 45.7318 6.72656 45.5547 6.82031C45.3307 6.9401 45.2188 7.28385 45.2188 7.85156V10.7344Z" fill="white"/>
<path d="M5.33789 21.1074C5.33789 20.7559 5.41992 20.4355 5.58398 20.1465C5.74805 19.8574 5.98242 19.627 6.28711 19.4551C6.5957 19.2832 6.96875 19.1973 7.40625 19.1973L8.01562 19.2031V20.6152L7.69922 20.627C7.44141 20.6426 7.26953 20.7207 7.18359 20.8613C7.10156 20.998 7.06055 21.2383 7.06055 21.582V28.0391C7.06055 28.3828 7.09961 28.6211 7.17773 28.7539C7.25977 28.8867 7.43359 28.9609 7.69922 28.9766L8.01562 28.9883V30.4004L7.40625 30.4062C6.96875 30.4062 6.5957 30.3203 6.28711 30.1484C5.98242 29.9766 5.74805 29.7461 5.58398 29.457C5.41992 29.168 5.33789 28.8477 5.33789 28.4961V21.1074ZM10.793 20.6035H13.623V29H11.9004V26.4395L10.4531 26.3457H10.4473V29H8.72461V26.5039L8.0918 25.0508H8.72461V22.5137C8.72461 22.1621 8.80664 21.8418 8.9707 21.5527C9.13477 21.2637 9.36914 21.0332 9.67383 20.8613C9.98242 20.6895 10.3555 20.6035 10.793 20.6035ZM10.4473 25.0508H11.9004V22.0215H11.8945C11.7305 22.0137 11.582 22.0098 11.4492 22.0098C11.082 22.0098 10.832 22.0449 10.6992 22.1152C10.5312 22.2051 10.4473 22.4629 10.4473 22.8887V25.0508ZM17.4082 20.6035H19.125V29H17.4082V24.7637L16.166 23.1172V29H14.4727V20.5918L16.1309 20.5977L16.1719 20.6445L17.4082 22.2793V20.6035ZM23.3965 20.6035V27.0898C23.3965 27.4414 23.3145 27.7617 23.1504 28.0508C22.9863 28.3398 22.75 28.5703 22.4414 28.7422C22.1328 28.9141 21.7617 29 21.3281 29L19.6875 28.9941V26.0352H21.0645L20.959 27.5762C21.2559 27.5684 21.4512 27.4961 21.5449 27.3594C21.6309 27.2305 21.6738 26.9883 21.6738 26.6328V21.7285L20.4082 21.7695L19.8984 20.6094H21.6738V20.6035H23.3965ZM28.8047 21.8633C28.8203 21.918 28.834 21.9961 28.8457 22.0977C28.8613 22.1953 28.8691 22.2754 28.8691 22.3379V27.2305C28.8691 27.582 28.7871 27.9023 28.623 28.1914C28.459 28.4766 28.2227 28.7051 27.9141 28.877C27.6094 29.0488 27.2383 29.1348 26.8008 29.1348H26.2207C25.7871 29.1348 25.416 29.0488 25.1074 28.877C24.7988 28.7051 24.5625 28.4766 24.3984 28.1914C24.2383 27.9023 24.1582 27.582 24.1582 27.2305V22.373C24.1582 22.0215 24.2383 21.7031 24.3984 21.418C24.5625 21.1289 24.7988 20.8984 25.1074 20.7266C25.416 20.5547 25.7871 20.4688 26.2207 20.4688H26.8008C27.3438 20.4688 27.7871 20.5996 28.1309 20.8613C28.4746 21.1191 28.6992 21.4531 28.8047 21.8633ZM27.1465 23.2988C27.1465 22.9316 27.1367 22.6465 27.1172 22.4434C27.0977 22.2402 27.043 22.0996 26.9531 22.0215C26.8672 21.9395 26.7207 21.8984 26.5137 21.8984C26.3066 21.8984 26.1582 21.9395 26.0684 22.0215C25.9785 22.0996 25.9238 22.2402 25.9043 22.4434C25.8848 22.6465 25.875 22.9316 25.875 23.2988V26.3047C25.875 26.6719 25.8848 26.957 25.9043 27.1602C25.9238 27.3633 25.9766 27.5059 26.0625 27.5879C26.1523 27.666 26.3027 27.7051 26.5137 27.7051C26.7246 27.7051 26.873 27.666 26.959 27.5879C27.0488 27.5059 27.1016 27.3633 27.1172 27.1602C27.1367 26.957 27.1465 26.6719 27.1465 26.3047V23.2988ZM37.1895 22.5137V27.0898C37.1895 27.4414 37.1074 27.7617 36.9434 28.0508C36.7793 28.3398 36.543 28.5703 36.2344 28.7422C35.9258 28.9141 35.5547 29 35.1211 29H32.3906V20.6035H35.1211C35.5547 20.6035 35.9258 20.6895 36.2344 20.8613C36.543 21.0332 36.7793 21.2637 36.9434 21.5527C37.1074 21.8418 37.1895 22.1621 37.1895 22.5137ZM34.1133 27.582C34.2227 27.5859 34.3223 27.5879 34.4121 27.5879C34.8184 27.5879 35.0898 27.5469 35.2266 27.4648C35.3867 27.3711 35.4668 27.1152 35.4668 26.6973V22.9062C35.4668 22.4883 35.3867 22.2324 35.2266 22.1387C35.0898 22.0566 34.8184 22.0156 34.4121 22.0156C34.3223 22.0156 34.2227 22.0176 34.1133 22.0215V27.582ZM40.0078 20.6035H42.8379V29H41.1152V26.4395L39.668 26.3457H39.6621V29H37.9395V26.5039L37.3066 25.0508H37.9395V22.5137C37.9395 22.1621 38.0215 21.8418 38.1855 21.5527C38.3496 21.2637 38.584 21.0332 38.8887 20.8613C39.1973 20.6895 39.5703 20.6035 40.0078 20.6035ZM39.6621 25.0508H41.1152V22.0215H41.1094C40.9453 22.0137 40.7969 22.0098 40.6641 22.0098C40.2969 22.0098 40.0469 22.0449 39.9141 22.1152C39.7461 22.2051 39.6621 22.4629 39.6621 22.8887V25.0508ZM47.877 23.873L46.5059 23.7734V22.0215H46.4707C46.377 22.0176 46.291 22.0156 46.2129 22.0156C45.8457 22.0156 45.5879 22.0469 45.4395 22.1094C45.291 22.1719 45.2109 22.3633 45.1992 22.6836C45.1953 22.7344 45.1914 22.7969 45.1875 22.8711C45.1875 22.9453 45.1855 23.0215 45.1816 23.0996C45.1816 23.1738 45.1816 23.2363 45.1816 23.2871V23.3691L48.1523 25.4961V27.084C48.1523 27.4355 48.0703 27.7559 47.9062 28.0449C47.7422 28.334 47.5059 28.5645 47.1973 28.7363C46.8926 28.9082 46.5234 28.9941 46.0898 28.9941H43.5938V26L44.9648 26.0996L45.1348 27.5762C45.2793 27.5762 45.4102 27.5781 45.5273 27.582C45.6094 27.5859 45.6855 27.5879 45.7559 27.5879C45.9434 27.5879 46.1016 27.5762 46.2305 27.5527C46.3594 27.5254 46.4473 27.4414 46.4941 27.3008C46.541 27.1562 46.5645 26.9199 46.5645 26.5918V26.4863L43.5938 24.3184V22.5137C43.5938 22.1621 43.6738 21.8418 43.834 21.5527C43.998 21.2637 44.2344 21.0332 44.543 20.8613C44.8516 20.6895 45.2227 20.6035 45.6562 20.6035H48.082L47.877 23.873ZM9.25781 35.8984H9.25195V40.668C9.25195 41.1016 9.33203 41.3672 9.49219 41.4648C9.62891 41.5469 9.90039 41.5879 10.3066 41.5879C10.4004 41.5879 10.502 41.5859 10.6113 41.582H11.4727V43H9.59766C9.16406 43 8.79297 42.9141 8.48438 42.7422C8.17578 42.5703 7.93945 42.3398 7.77539 42.0508C7.61523 41.7617 7.53516 41.4414 7.53516 41.0898V34.6035H11.4727V36.0566L9.25781 35.8984ZM15.252 34.6035H16.9688V43H15.252V40.4395L13.7988 40.3457H13.793V43H12.0703V40.5039L11.4375 39.0508H12.0703V34.6035H13.793V39.0508H15.252V34.6035ZM19.9277 34.6035H22.7578V43H21.0352V40.4395L19.5879 40.3457H19.582V43H17.8594V40.5039L17.2266 39.0508H17.8594V36.5137C17.8594 36.1621 17.9414 35.8418 18.1055 35.5527C18.2695 35.2637 18.5039 35.0332 18.8086 34.8613C19.1172 34.6895 19.4902 34.6035 19.9277 34.6035ZM19.582 39.0508H21.0352V36.0215H21.0293C20.8652 36.0137 20.7168 36.0098 20.584 36.0098C20.2168 36.0098 19.9668 36.0449 19.834 36.1152C19.666 36.2051 19.582 36.4629 19.582 36.8887V39.0508ZM28.916 34.6035H31.0137V43H29.291V36.3672L28.1777 37.5918V43H26.4551V37.5918L25.3418 36.3672V43H23.625V34.6035H25.7168L27.3164 36.1797L28.916 34.6035ZM33.9785 34.6035H36.8086V43H35.0859V40.4395L33.6387 40.3457H33.6328V43H31.9102V40.5039L31.2773 39.0508H31.9102V36.5137C31.9102 36.1621 31.9922 35.8418 32.1562 35.5527C32.3203 35.2637 32.5547 35.0332 32.8594 34.8613C33.168 34.6895 33.541 34.6035 33.9785 34.6035ZM33.6328 39.0508H35.0859V36.0215H35.0801C34.916 36.0137 34.7676 36.0098 34.6348 36.0098C34.2676 36.0098 34.0176 36.0449 33.8848 36.1152C33.7168 36.2051 33.6328 36.4629 33.6328 36.8887V39.0508ZM41.8477 37.873L40.4766 37.7734V36.0215H40.4414C40.3477 36.0176 40.2617 36.0156 40.1836 36.0156C39.8164 36.0156 39.5586 36.0469 39.4102 36.1094C39.2617 36.1719 39.1816 36.3633 39.1699 36.6836C39.166 36.7344 39.1621 36.7969 39.1582 36.8711C39.1582 36.9453 39.1562 37.0215 39.1523 37.0996C39.1523 37.1738 39.1523 37.2363 39.1523 37.2871V37.3691L42.123 39.4961V41.084C42.123 41.4355 42.041 41.7559 41.877 42.0449C41.7129 42.334 41.4766 42.5645 41.168 42.7363C40.8633 42.9082 40.4941 42.9941 40.0605 42.9941H37.5645V40L38.9355 40.0996L39.1055 41.5762C39.25 41.5762 39.3809 41.5781 39.498 41.582C39.5801 41.5859 39.6562 41.5879 39.7266 41.5879C39.9141 41.5879 40.0723 41.5762 40.2012 41.5527C40.3301 41.5254 40.418 41.4414 40.4648 41.3008C40.5117 41.1562 40.5352 40.9199 40.5352 40.5918V40.4863L37.5645 38.3184V36.5137C37.5645 36.1621 37.6445 35.8418 37.8047 35.5527C37.9688 35.2637 38.2051 35.0332 38.5137 34.8613C38.8223 34.6895 39.1934 34.6035 39.627 34.6035H42.0527L41.8477 37.873ZM45.5215 42.4961C45.5215 42.8477 45.4395 43.168 45.2754 43.457C45.1152 43.7461 44.8809 43.9766 44.5723 44.1484C44.2637 44.3203 43.8926 44.4062 43.459 44.4062L42.8438 44.4004V42.9883L43.166 42.9766C43.4277 42.9609 43.5996 42.8848 43.6816 42.748C43.7637 42.6113 43.8047 42.3594 43.8047 41.9922H43.7988V35.582C43.7988 35.2383 43.7559 34.998 43.6699 34.8613C43.5879 34.7207 43.4199 34.6426 43.166 34.627L42.8438 34.6152V33.2031L43.459 33.1973C43.8926 33.1973 44.2637 33.2832 44.5723 33.4551C44.8809 33.627 45.1152 33.8574 45.2754 34.1465C45.4395 34.4355 45.5215 34.7559 45.5215 35.1074V42.4961Z" fill="white"/>
</g>
<defs>
<filter id="filter0_d" x="0.4375" y="0.804688" width="53.0156" height="47.6016" filterUnits="userSpaceOnUse" color-interpolation-filters="sRGB">
<feFlood flood-opacity="0" result="BackgroundImageFix"/>
<feColorMatrix in="SourceAlpha" type="matrix" values="0 0 0 0 0 0 0 0 0 0 0 0 0 0 0 0 0 0 127 0"/>
<feOffset/>
<feGaussianBlur stdDeviation="2"/>
<feColorMatrix type="matrix" values="0 0 0 0 0 0 0 0 0 0 0 0 0 0 0 0 0 0 0.5 0"/>
<feBlend mode="normal" in2="BackgroundImageFix" result="effect1_dropShadow"/>
<feBlend mode="normal" in="SourceGraphic" in2="effect1_dropShadow" result="shape"/>
</filter>
</defs>
</svg>
