<svg width="52" height="21" viewBox="0 0 52 21" fill="none" xmlns="http://www.w3.org/2000/svg">
<g filter="url(#filter0_d)">
<path d="M12.0156 4.80469H14.3125V13.8047L11.9609 16.1875L10.5312 14.7812V15.75L8.23438 16.2031V14.7812L6.80469 16.1875L4.45312 13.8047V4.80469H6.75V13.3984L8.23438 11.7656V6.39844L7.53906 4.80469H10.5312V11.7656L12.0156 13.3984V4.80469ZM19.7031 4.80469H21.9922V16H18.2188C17.6406 16 17.1458 15.8854 16.7344 15.6562C16.3229 15.4271 16.0078 15.1198 15.7891 14.7344C15.5755 14.349 15.4688 13.9219 15.4688 13.4531V4.80469H17.7578V12.8906C17.7578 13.4688 17.8672 13.8229 18.0859 13.9531C18.2839 14.0677 18.6693 14.125 19.2422 14.125C19.3516 14.125 19.4688 14.1224 19.5938 14.1172H19.7031V4.80469ZM27.6562 4.80469V13.4531C27.6562 13.9219 27.5469 14.349 27.3281 14.7344C27.1094 15.1198 26.7943 15.4271 26.3828 15.6562C25.9714 15.8854 25.4766 16 24.8984 16L22.7109 15.9922V12.0469H24.5469L24.4062 14.1016C24.8021 14.0911 25.0625 13.9948 25.1875 13.8125C25.3021 13.6406 25.3594 13.3177 25.3594 12.8438V6.30469L23.6719 6.35938L22.9922 4.8125H25.3594V4.80469H27.6562ZM33.0547 6.36719L31.8984 6.32031V14.3672L33.0547 14.3906V16H28.7812L28.1016 14.5469L29.6016 14.4375V6.32031L28.7812 6.35938L28.1016 4.8125L33.0547 4.80469V6.36719ZM37.9219 4.80469H40.2109V16H37.9219V10.3516L36.2656 8.15625V16H34.0078V4.78906L36.2188 4.79688L36.2734 4.85938L37.9219 7.03906V4.80469ZM44.5781 12.3203L43.8984 10.7734L47.3984 10.7656V16H43.9766C43.3984 16 42.9036 15.8854 42.4922 15.6562C42.0859 15.4271 41.7734 15.1198 41.5547 14.7344C41.3359 14.349 41.2266 13.9219 41.2266 13.4531V7.35156C41.2266 6.88281 41.3359 6.45573 41.5547 6.07031C41.7734 5.6849 42.0859 5.3776 42.4922 5.14844C42.9036 4.91927 43.3984 4.80469 43.9766 4.80469H47.3984L47.125 9.16406L45.2969 9.03125V6.74219H45.1406C44.776 6.74219 44.4792 6.75781 44.25 6.78906C44.0208 6.82031 43.8516 6.88281 43.7422 6.97656C43.638 7.0651 43.5755 7.19531 43.5547 7.36719C43.5339 7.53906 43.5234 7.76562 43.5234 8.04688V12.4922C43.5286 13.1641 43.6484 13.6042 43.8828 13.8125C44.112 14.0104 44.5052 14.1094 45.0625 14.1094H45.1094V12.2969L44.5781 12.3203Z" fill="#5BB2C4"/>
</g>
<defs>
<filter id="filter0_d" x="0.453125" y="0.789062" width="50.9453" height="19.4141" filterUnits="userSpaceOnUse" color-interpolation-filters="sRGB">
<feFlood flood-opacity="0" result="BackgroundImageFix"/>
<feColorMatrix in="SourceAlpha" type="matrix" values="0 0 0 0 0 0 0 0 0 0 0 0 0 0 0 0 0 0 127 0"/>
<feOffset/>
<feGaussianBlur stdDeviation="2"/>
<feColorMatrix type="matrix" values="0 0 0 0 0.156042 0 0 0 0 0.31675 0 0 0 0 0.35 0 0 0 0.3 0"/>
<feBlend mode="normal" in2="BackgroundImageFix" result="effect1_dropShadow"/>
<feBlend mode="normal" in="SourceGraphic" in2="effect1_dropShadow" result="shape"/>
</filter>
</defs>
</svg>
