<svg width="36" height="21" viewBox="0 0 36 21" fill="none" xmlns="http://www.w3.org/2000/svg">
<g filter="url(#filter0_d)">
<path d="M8.29688 11.1328L6.84375 14.2891L10.2266 14.0859V16.0234H4.42969L4.41406 14.0859L5.72656 11.2266L4.42969 11.3047V9.36719H6.57812L7.875 6.53906L4.42969 6.74219V4.80469H10.2266V6.91406L9.10156 9.36719H10.75L9.90625 11.3047L8.29688 11.1328ZM17.2031 6.74219L13.6953 6.53125V10.7344H17.2031V12.6719L13.6953 12.4609V14.2656L17.2031 14.0547V15.9922H13.6953L11.4062 16V12.6719L10.5547 10.7344H11.4062V4.80469H17.2031V6.74219ZM22.4375 4.80469H24.7266V16H20.9531C20.375 16 19.8802 15.8854 19.4688 15.6562C19.0573 15.4271 18.7422 15.1198 18.5234 14.7344C18.3099 14.349 18.2031 13.9219 18.2031 13.4531V4.80469H20.4922V12.8906C20.4922 13.4688 20.6016 13.8229 20.8203 13.9531C21.0182 14.0677 21.4036 14.125 21.9766 14.125C22.0859 14.125 22.2031 14.1224 22.3281 14.1172H22.4375V4.80469ZM31.4219 9.16406L29.5938 9.03125V6.69531H29.5469C29.4219 6.6901 29.3073 6.6875 29.2031 6.6875C28.7135 6.6875 28.3698 6.72917 28.1719 6.8125C27.974 6.89583 27.8672 7.15104 27.8516 7.57812C27.8464 7.64583 27.8411 7.72917 27.8359 7.82812C27.8359 7.92708 27.8333 8.02865 27.8281 8.13281C27.8281 8.23177 27.8281 8.3151 27.8281 8.38281V8.49219L31.7891 11.3281V13.4453C31.7891 13.9141 31.6797 14.3411 31.4609 14.7266C31.2422 15.112 30.9271 15.4193 30.5156 15.6484C30.1094 15.8776 29.6172 15.9922 29.0391 15.9922H25.7109V12L27.5391 12.1328L27.7656 14.1016C27.9583 14.1016 28.1328 14.1042 28.2891 14.1094C28.3984 14.1146 28.5 14.1172 28.5938 14.1172C28.8438 14.1172 29.0547 14.1016 29.2266 14.0703C29.3984 14.0339 29.5156 13.9219 29.5781 13.7344C29.6406 13.5417 29.6719 13.2266 29.6719 12.7891V12.6484L25.7109 9.75781V7.35156C25.7109 6.88281 25.8177 6.45573 26.0312 6.07031C26.25 5.6849 26.5651 5.3776 26.9766 5.14844C27.388 4.91927 27.8828 4.80469 28.4609 4.80469H31.6953L31.4219 9.16406Z" fill="#DFB460"/>
</g>
<defs>
<filter id="filter0_d" x="0.414062" y="0.804688" width="35.375" height="19.2188" filterUnits="userSpaceOnUse" color-interpolation-filters="sRGB">
<feFlood flood-opacity="0" result="BackgroundImageFix"/>
<feColorMatrix in="SourceAlpha" type="matrix" values="0 0 0 0 0 0 0 0 0 0 0 0 0 0 0 0 0 0 127 0"/>
<feOffset/>
<feGaussianBlur stdDeviation="2"/>
<feColorMatrix type="matrix" values="0 0 0 0 0.87451 0 0 0 0 0.705882 0 0 0 0 0.376471 0 0 0 0.3 0"/>
<feBlend mode="normal" in2="BackgroundImageFix" result="effect1_dropShadow"/>
<feBlend mode="normal" in="SourceGraphic" in2="effect1_dropShadow" result="shape"/>
</filter>
</defs>
</svg>
