<svg id="Capa_1" enable-background="new 0 0 512 512" height="512" viewBox="0 0 512 512" width="512" xmlns="http://www.w3.org/2000/svg" xmlns:xlink="http://www.w3.org/1999/xlink"><linearGradient id="SVGID_1_" gradientUnits="userSpaceOnUse" x1="256" x2="256" y1="512" y2="0"><stop offset="0" stop-color="#5558ff"/><stop offset="1" stop-color="#00c0ff"/></linearGradient><linearGradient id="SVGID_2_" gradientUnits="userSpaceOnUse" x1="256" x2="256" y1="421" y2="91"><stop offset="0" stop-color="#addcff"/><stop offset=".5028" stop-color="#eaf6ff"/><stop offset="1" stop-color="#eaf6ff"/></linearGradient><g><g><g><circle cx="256" cy="256" fill="url(#SVGID_1_)" r="256"/></g></g><g><g><path d="m226 241v-15c0-8.291-6.709-15-15-15h-90c-8.291 0-15 6.709-15 15v15c0 33.091 26.924 60 60 60s60-26.909 60-60zm165-30h-90c-8.291 0-15 6.709-15 15v15c0 33.091 26.924 60 60 60s60-26.909 60-60v-15c0-8.291-6.709-15-15-15zm-45-30h30c8.291 0 15-6.709 15-15s-6.709-15-15-15h-30c-24.814 0-45-20.186-45-45 0-8.291-6.709-15-15-15s-15 6.709-15 15c0 41.353 33.633 75 75 75zm-210 0c8.291 0 15-6.709 15-15 0-24.814 20.186-45 45-45h30c8.291 0 15-6.709 15-15s-6.709-15-15-15h-30c-41.367 0-75 33.647-75 75 0 8.291 6.709 15 15 15zm120 150c-41.367 0-75 33.647-75 75 0 8.291 6.709 15 15 15h120c8.291 0 15-6.709 15-15 0-41.353-33.633-75-75-75z" fill="url(#SVGID_2_)"/></g></g></g></svg>