<svg id="Capa_1" enable-background="new 0 0 512 512" height="512" viewBox="0 0 512 512" width="512" xmlns="http://www.w3.org/2000/svg" xmlns:xlink="http://www.w3.org/1999/xlink"><linearGradient id="SVGID_1_" gradientUnits="userSpaceOnUse" x1="256" x2="256" y1="512" y2="0"><stop offset="0" stop-color="#a93aff"/><stop offset="1" stop-color="#ff81ff"/></linearGradient><linearGradient id="SVGID_2_" gradientUnits="userSpaceOnUse" x1="271" x2="271" y1="421" y2="136"><stop offset="0" stop-color="#ffbef9"/><stop offset="1" stop-color="#fff1ff"/></linearGradient><g id="Sleeping_2_"><g><g><circle cx="256" cy="256" fill="url(#SVGID_1_)" r="256"/></g></g><g><g><path d="m256 271c-33.076 0-60 33.647-60 75s26.924 75 60 75 60-33.647 60-75-26.924-75-60-75zm-30-120c0-8.291-6.709-15-15-15s-15 6.709-15 15c0 16.538-13.447 30-30 30s-30-13.462-30-30c0-8.291-6.709-15-15-15s-15 6.709-15 15c0 33.091 26.924 60 60 60s60-26.909 60-60zm120 60c33.076 0 60-26.909 60-60 0-8.291-6.709-15-15-15s-15 6.709-15 15c0 16.538-13.447 30-30 30s-30-13.462-30-30c0-8.291-6.709-15-15-15s-15 6.709-15 15c0 33.091 26.924 60 60 60zm75 90h-23.789l34.376-34.376c4.14-4.129 5.647-10.577 3.259-16.351-2.336-5.648-7.873-9.273-13.846-9.273h-60c-8.291 0-15 6.709-15 15s6.709 15 15 15h23.789l-34.376 34.376c-4.14 4.129-5.647 10.577-3.259 16.351 2.336 5.648 7.873 9.273 13.846 9.273h60c8.291 0 15-6.709 15-15s-6.709-15-15-15z" fill="url(#SVGID_2_)"/></g></g></g></svg>