<svg id="Capa_1" enable-background="new 0 0 512 512" height="512" viewBox="0 0 512 512" width="512" xmlns="http://www.w3.org/2000/svg" xmlns:xlink="http://www.w3.org/1999/xlink"><linearGradient id="SVGID_1_" gradientUnits="userSpaceOnUse" x1="256" x2="256" y1="512" y2="0"><stop offset="0" stop-color="#a93aff"/><stop offset="1" stop-color="#ff81ff"/></linearGradient><linearGradient id="SVGID_2_" gradientUnits="userSpaceOnUse" x1="256" x2="256" y1="436.599" y2="61"><stop offset="0" stop-color="#ffbef9"/><stop offset="1" stop-color="#fff1ff"/></linearGradient><g><g><g><path d="m511.7 267.7-30.7-.883 30.399-29.718c-9.898-132-121-237.099-255.399-237.099s-245.501 105.099-255.399 237.1l60.399 29.718-60.7.882c2.401 53.7 22.599 103.199 53.5 143.399l37.2 14.142-15 11.358c46.199 45.901 109.799 75.401 180 75.401s133.801-29.5 180-75.401l-15-12.299 37.2-13.2c30.901-40.201 51.099-89.7 53.5-143.4z" fill="url(#SVGID_1_)"/></g></g><g><g><path d="m166 151c41.367 0 75-33.647 75-75 0-8.291-6.709-15-15-15s-15 6.709-15 15c0 24.814-20.186 45-45 45-8.291 0-15 6.709-15 15s6.709 15 15 15zm180 0c8.291 0 15-6.709 15-15s-6.709-15-15-15c-24.814 0-45-20.186-45-45 0-8.291-6.709-15-15-15s-15 6.709-15 15c0 41.353 33.633 75 75 75zm-180 90c24.814 0 45-20.186 45-45 0-8.291-6.709-15-15-15s-15 6.709-15 15c0 8.276-6.738 15-15 15s-15-6.724-15-15c0-8.291-6.709-15-15-15s-15 6.709-15 15c0 24.814 20.186 45 45 45zm180-30c-8.262 0-15-6.724-15-15 0-8.291-6.709-15-15-15s-15 6.709-15 15c0 24.814 20.186 45 45 45s45-20.186 45-45c0-8.291-6.709-15-15-15s-15 6.709-15 15c0 8.276-6.738 15-15 15zm165.7 56.7c.3-3.9.3-7.8.3-11.7 0-6.301-.3-12.601-.601-18.9l-137.199 33.9h-236.4l-137.199-33.9c-.301 6.299-.601 12.599-.601 18.9 0 3.9 0 7.8.3 11.7l120.7 30v96.6l-67.2 16.8c6.899 9 14.099 17.401 22.2 25.499l61.8-15.599h236.4l61.8 15.599c8.101-8.099 15.3-16.5 22.2-25.499l-67.2-16.8v-96.6z" fill="url(#SVGID_2_)"/></g></g></g></svg>