<svg id="Capa_1" enable-background="new 0 0 512 512" height="512" viewBox="0 0 512 512" width="512" xmlns="http://www.w3.org/2000/svg" xmlns:xlink="http://www.w3.org/1999/xlink"><linearGradient id="SVGID_1_" gradientUnits="userSpaceOnUse" x1="256" x2="256" y1="512" y2="0"><stop offset="0" stop-color="#00b59c"/><stop offset="1" stop-color="#9cffac"/></linearGradient><linearGradient id="SVGID_2_" gradientUnits="userSpaceOnUse" x1="256" x2="256" y1="391" y2="121"><stop offset="0" stop-color="#c3ffe8"/><stop offset=".9973" stop-color="#f0fff4"/></linearGradient><g><g><g><circle cx="256" cy="256" fill="url(#SVGID_1_)" r="256"/></g></g><g><g><path d="m365.395 335.395-19.395 19.394-19.395-19.395c-5.859-5.859-15.352-5.859-21.211 0l-19.394 19.395-19.395-19.395c-5.859-5.859-15.352-5.859-21.211 0l-19.394 19.395-19.395-19.395c-5.859-5.859-15.352-5.859-21.211 0l-19.394 19.395-19.395-19.395c-5.859-5.859-15.352-5.859-21.211 0s-5.859 15.352 0 21.211l30 30c5.859 5.859 15.352 5.859 21.211 0l19.395-19.394 19.395 19.395c5.859 5.859 15.352 5.859 21.211 0l19.394-19.395 19.395 19.395c5.859 5.859 15.352 5.859 21.211 0l19.394-19.395 19.395 19.395c5.86 5.859 15.352 5.859 21.211 0l30-30c5.859-5.859 5.859-15.352 0-21.211s-15.352-5.86-21.211 0zm-231.211-86.368c5.859-5.874 5.859-15.366 0-21.226-8.496-8.481-13.184-19.775-13.184-31.801 0-24.814 20.186-45 45-45s45 20.186 45 45c0 8.276-6.738 15-15 15s-15-6.724-15-15c0-8.291-6.709-15-15-15s-15 6.709-15 15c0 24.814 20.186 45 45 45s45-20.186 45-45c0-41.353-33.633-75-75-75s-75 33.647-75 75c0 20.039 7.793 38.877 21.973 53.042 5.874 5.845 15.356 5.84 21.211-.015zm211.816-128.027c-41.367 0-75 33.647-75 75 0 24.814 20.186 45 45 45s45-20.186 45-45c0-8.291-6.709-15-15-15s-15 6.709-15 15c0 8.276-6.738 15-15 15s-15-6.724-15-15c0-24.814 20.186-45 45-45s45 20.186 45 45c0 12.026-4.688 23.32-13.184 31.802-5.859 5.859-5.859 15.352 0 21.226 5.86 5.86 15.343 5.854 21.211.015 14.18-14.166 21.973-33.004 21.973-53.043 0-41.353-33.633-75-75-75z" fill="url(#SVGID_2_)"/></g></g></g></svg>