<svg id="Capa_1" enable-background="new 0 0 512 512" height="512" viewBox="0 0 512 512" width="512" xmlns="http://www.w3.org/2000/svg" xmlns:xlink="http://www.w3.org/1999/xlink"><linearGradient id="SVGID_1_" gradientUnits="userSpaceOnUse" x1="256" x2="256" y1="512" y2="0"><stop offset="0" stop-color="#fd5900"/><stop offset="1" stop-color="#ffde00"/></linearGradient><linearGradient id="SVGID_2_" gradientUnits="userSpaceOnUse" x1="301.501" x2="301.501" y1="421" y2="121"><stop offset="0" stop-color="#ffe59a"/><stop offset="1" stop-color="#ffffd5"/></linearGradient><g><g><g><circle cx="256" cy="256" fill="url(#SVGID_1_)" r="256"/></g></g><g><g><path d="m121 226c0 24.814 20.186 45 45 45s45-20.186 45-45-20.186-45-45-45-45 20.186-45 45zm225 45c24.814 0 45-20.186 45-45s-20.186-45-45-45-45 20.186-45 45 20.186 45 45 45zm-165.996-140.361c-2.959-7.749-11.66-11.602-19.365-8.643l-60 22.969c-7.734 2.959-11.602 11.631-8.643 19.365 2.963 7.75 11.642 11.603 19.365 8.643l60-22.969c7.735-2.959 11.602-11.631 8.643-19.365zm160.635 19.365 60 22.969c7.714 2.957 16.399-.884 19.365-8.643 2.959-7.734-.908-16.406-8.643-19.365l-60-22.969c-7.705-2.944-16.406.894-19.365 8.643-2.959 7.734.908 16.406 8.643 19.365zm125.361 180.996c-17.399 0-72.658 21.779-92.926 30h-12.074v-15c0-8.291-6.709-15-15-15s-15 6.709-15 15v15h-30v-15c0-8.291-6.709-15-15-15s-15 6.709-15 15v15h-30v-15c0-8.291-6.709-15-15-15s-15 6.709-15 15v15h-30v-15c0-8.291-6.709-15-15-15s-15 6.709-15 15v15h-15c-8.291 0-15 6.709-15 15s6.709 15 15 15h45v15c0 8.291 6.709 15 15 15s15-6.709 15-15v-15h30v15c0 8.291 6.709 15 15 15s15-6.709 15-15v-15h30v15c0 8.291 6.709 15 15 15s15-6.709 15-15v-15h42.074c20.268 8.221 75.527 30 92.926 30 24.814 0 46-20.186 46-45s-21.186-45-46-45z" fill="url(#SVGID_2_)"/></g></g></g></svg>