<svg id="Capa_1" enable-background="new 0 0 512 512" height="512" viewBox="0 0 512 512" width="512" xmlns="http://www.w3.org/2000/svg" xmlns:xlink="http://www.w3.org/1999/xlink"><linearGradient id="SVGID_1_" gradientUnits="userSpaceOnUse" x1="256" x2="256" y1="512" y2="0"><stop offset="0" stop-color="#5558ff"/><stop offset="1" stop-color="#00c0ff"/></linearGradient><linearGradient id="SVGID_2_" gradientUnits="userSpaceOnUse" x1="256" x2="256" y1="512" y2="151"><stop offset="0" stop-color="#addcff"/><stop offset=".5028" stop-color="#eaf6ff"/><stop offset="1" stop-color="#eaf6ff"/></linearGradient><g><g><g><circle cx="256" cy="256" fill="url(#SVGID_1_)" r="256"/></g></g><g><g><path d="m185.395 236.605c5.859 5.859 15.351 5.859 21.211 0 5.859-5.859 5.859-15.352 0-21.211l-19.395-19.394 19.395-19.395c5.859-5.859 5.859-15.352 0-21.211s-15.352-5.859-21.211 0l-19.395 19.395-19.395-19.395c-5.859-5.859-15.352-5.859-21.211 0s-5.859 15.352 0 21.211l19.395 19.395-19.395 19.395c-5.859 5.859-5.859 15.352 0 21.211s15.351 5.859 21.211 0l19.395-19.395zm181.816-40.605 19.395-19.395c5.859-5.859 5.859-15.352 0-21.211s-15.352-5.859-21.211 0l-19.395 19.395-19.395-19.395c-5.859-5.859-15.352-5.859-21.211 0s-5.859 15.352 0 21.211l19.395 19.395-19.395 19.395c-5.859 5.859-5.859 15.352 0 21.211s15.351 5.859 21.211 0l19.395-19.395 19.395 19.395c5.859 5.859 15.351 5.859 21.211 0 5.859-5.859 5.859-15.352 0-21.211zm-21.211 135c8.291 0 15-6.709 15-15s-6.709-15-15-15c-4.214 0-174.324 0-180 0-8.291 0-15 6.709-15 15s6.709 15 15 15h15v93.563c-17.461 6.196-30 22.881-30 42.437 0 24.814 20.186 45 45 45h120c24.814 0 45-20.186 45-45 0-19.556-12.539-36.24-30-42.437v-93.563z" fill="url(#SVGID_2_)"/></g></g></g></svg>