<svg id="Capa_1" enable-background="new 0 0 512 512" height="512" viewBox="0 0 512 512" width="512" xmlns="http://www.w3.org/2000/svg" xmlns:xlink="http://www.w3.org/1999/xlink"><linearGradient id="SVGID_1_" gradientUnits="userSpaceOnUse" x1="256" x2="256" y1="512" y2="0"><stop offset="0" stop-color="#fd5900"/><stop offset="1" stop-color="#ffde00"/></linearGradient><linearGradient id="SVGID_2_" gradientUnits="userSpaceOnUse" x1="256" x2="256" y1="421" y2="136"><stop offset="0" stop-color="#ffe59a"/><stop offset="1" stop-color="#ffffd5"/></linearGradient><g id="Blush_2_"><g><g><circle cx="256" cy="256" fill="url(#SVGID_1_)" r="256"/></g></g><g><g><path d="m196 196c0 8.291 6.709 15 15 15s15-6.709 15-15c0-33.091-26.924-60-60-60s-60 26.909-60 60c0 8.291 6.709 15 15 15s15-6.709 15-15c0-16.538 13.447-30 30-30s30 13.462 30 30zm210 0c0-33.091-26.924-60-60-60s-60 26.909-60 60c0 8.291 6.709 15 15 15s15-6.709 15-15c0-16.538 13.447-30 30-30s30 13.462 30 30c0 8.291 6.709 15 15 15s15-6.709 15-15zm-60 75c-4.214 0-174.324 0-180 0-8.291 0-15 6.709-15 15s6.709 15 15 15h15v45c0 41.353 33.633 75 75 75s75-33.647 75-75v-45h15c8.291 0 15-6.709 15-15s-6.709-15-15-15zm-240-30h-30c-8.291 0-15 6.709-15 15s6.709 15 15 15h30c8.291 0 15-6.709 15-15s-6.709-15-15-15zm330 0h-30c-8.291 0-15 6.709-15 15s6.709 15 15 15h30c8.291 0 15-6.709 15-15s-6.709-15-15-15z" fill="url(#SVGID_2_)"/></g></g></g></svg>