<svg id="Capa_1" enable-background="new 0 0 512 512" height="512" viewBox="0 0 512 512" width="512" xmlns="http://www.w3.org/2000/svg" xmlns:xlink="http://www.w3.org/1999/xlink"><linearGradient id="SVGID_1_" gradientUnits="userSpaceOnUse" x1="256" x2="256" y1="512" y2="0"><stop offset="0" stop-color="#a93aff"/><stop offset="1" stop-color="#ff81ff"/></linearGradient><linearGradient id="SVGID_2_" gradientUnits="userSpaceOnUse" x1="256" x2="256" y1="421" y2="121"><stop offset="0" stop-color="#ffbef9"/><stop offset="1" stop-color="#fff1ff"/></linearGradient><g id="Mute_2_"><g><g><circle cx="256" cy="256" fill="url(#SVGID_1_)" r="256"/></g></g><g><g><path d="m211 226c0-24.814-20.186-45-45-45s-45 20.186-45 45 20.186 45 45 45 45-20.186 45-45zm135-45c-24.814 0-45 20.186-45 45s20.186 45 45 45 45-20.186 45-45-20.186-45-45-45zm-165-45c0-8.291-6.709-15-15-15-25.869 0-50.713 9.521-70.02 26.792-6.152 5.537-6.68 15.015-1.143 21.182 5.528 6.185 15.007 6.685 21.182 1.172 13.77-12.349 31.524-19.146 49.981-19.146 8.291 0 15-6.709 15-15zm235.02 11.792c-19.307-17.271-44.151-26.792-70.02-26.792-8.291 0-15 6.709-15 15s6.709 15 15 15c18.457 0 36.211 6.797 49.98 19.146 6.164 5.503 15.644 5.024 21.182-1.172 5.537-6.167 5.01-15.645-1.142-21.182zm-88.008 159.214c-5.01-6.665-14.414-7.969-21.006-3.003l-51.006 38.254-51.006-38.254c-6.563-4.951-15.996-3.633-21.006 3.003-4.951 6.621-3.604 16.025 3.018 20.991l44.004 33.003-44.004 33.003c-6.621 4.966-7.969 14.37-3.018 20.991 4.982 6.635 14.377 7.975 21.006 3.003l51.006-38.254 51.006 38.254c6.638 4.979 16.03 3.624 21.006-3.003 4.951-6.621 3.604-16.025-3.018-20.991l-44.004-33.003 44.004-33.003c6.621-4.966 7.969-14.37 3.018-20.991z" fill="url(#SVGID_2_)"/></g></g></g></svg>