<svg id="Capa_1" enable-background="new 0 0 512 512" height="512" viewBox="0 0 512 512" width="512" xmlns="http://www.w3.org/2000/svg" xmlns:xlink="http://www.w3.org/1999/xlink"><linearGradient id="SVGID_1_" gradientUnits="userSpaceOnUse" x1="256" x2="256" y1="512" y2="0"><stop offset="0" stop-color="#5558ff"/><stop offset="1" stop-color="#00c0ff"/></linearGradient><linearGradient id="SVGID_2_" gradientUnits="userSpaceOnUse" x1="256" x2="256" y1="391" y2="121"><stop offset="0" stop-color="#addcff"/><stop offset=".5028" stop-color="#eaf6ff"/><stop offset="1" stop-color="#eaf6ff"/></linearGradient><g><g><g><circle cx="256" cy="256" fill="url(#SVGID_1_)" r="256"/></g></g><g><g><path d="m346 301c-8.291 0-15 6.709-15 15 0 8.276-6.738 15-15 15h-120c-24.814 0-45 20.186-45 45 0 8.291 6.709 15 15 15s15-6.709 15-15c0-8.276 6.738-15 15-15h120c24.814 0 45-20.186 45-45 0-8.291-6.709-15-15-15zm-105-105c0-41.4-33.6-75-75-75s-75 33.6-75 75 33.6 75 75 75 75-33.6 75-75zm-85.499 31.8c-6 6-15.601 6-21.301 0-6-5.7-6-15.3 0-21.301 5.7-5.7 15.3-5.7 21.301 0 5.7 6.001 5.7 15.601 0 21.301zm190.499-106.8c-41.4 0-75 33.6-75 75s33.6 75 75 75 75-33.6 75-75-33.6-75-75-75zm31.8 64.499c-5.7 5.7-15.3 5.7-21.301 0-5.7-5.999-5.7-15.599 0-21.299 6-6 15.601-6 21.301 0 6 5.7 6 15.3 0 21.299z" fill="url(#SVGID_2_)"/></g></g></g></svg>