<svg id="Capa_1" enable-background="new 0 0 512 512" height="512" viewBox="0 0 512 512" width="512" xmlns="http://www.w3.org/2000/svg" xmlns:xlink="http://www.w3.org/1999/xlink"><linearGradient id="SVGID_1_" gradientUnits="userSpaceOnUse" x1="256" x2="256" y1="512" y2="0"><stop offset="0" stop-color="#fd3a84"/><stop offset="1" stop-color="#ffa68d"/></linearGradient><linearGradient id="SVGID_2_" gradientUnits="userSpaceOnUse" x1="256" x2="256" y1="421" y2="121"><stop offset="0" stop-color="#ffc2cc"/><stop offset="1" stop-color="#fff2f4"/></linearGradient><g><g><g><circle cx="256" cy="256" fill="url(#SVGID_1_)" r="256"/></g></g><g><g><path d="m241 196c0-41.4-33.6-75-75-75s-75 33.6-75 75 33.6 75 75 75 75-33.6 75-75zm-85.499-10.501c5.7-5.999 15.298-5.999 20.999 0 6 5.7 6 15.3 0 21-5.7 6-15.298 6-20.999 0-6.001-5.7-6.001-15.3 0-21zm190.499-64.499c-41.4 0-75 33.6-75 75s33.6 75 75 75 75-33.6 75-75-33.6-75-75-75zm10.499 85.499c-5.7 6-15.298 6-20.999 0-6-5.7-6-15.3 0-21 5.7-5.999 15.298-5.999 20.999 0 6.001 5.7 6.001 15.3 0 21zm-25.499 94.501h-150c-33.076 0-60 26.909-60 60s26.924 60 60 60c24.023 0 36.68-10.137 46.874-18.281 8.819-7.061 14.649-11.719 28.126-11.719s19.307 4.658 28.124 11.719c10.196 8.144 22.853 18.281 46.876 18.281 33.076 0 60-26.909 60-60s-26.924-60-60-60z" fill="url(#SVGID_2_)"/></g></g></g></svg>