<svg id="Capa_1" enable-background="new 0 0 512 512" height="512" viewBox="0 0 512 512" width="512" xmlns="http://www.w3.org/2000/svg" xmlns:xlink="http://www.w3.org/1999/xlink"><linearGradient id="SVGID_1_" gradientUnits="userSpaceOnUse" x1="256" x2="256" y1="512" y2="0"><stop offset="0" stop-color="#fd5900"/><stop offset="1" stop-color="#ffde00"/></linearGradient><linearGradient id="SVGID_2_" gradientUnits="userSpaceOnUse" x1="256" x2="256" y1="421" y2="120.988"><stop offset="0" stop-color="#ffe59a"/><stop offset="1" stop-color="#ffffd5"/></linearGradient><g id="Disappointed_4_"><g><g><circle cx="256" cy="256" fill="url(#SVGID_1_)" r="256"/></g></g><g><g><path d="m226 211c0-8.291-6.709-15-15-15s-15 6.709-15 15c0 16.538-13.447 30-30 30s-30-13.462-30-30c0-8.291-6.709-15-15-15s-15 6.709-15 15c0 33.091 26.924 60 60 60s60-26.909 60-60zm165-15c-8.291 0-15 6.709-15 15 0 16.538-13.447 30-30 30s-30-13.462-30-30c0-8.291-6.709-15-15-15s-15 6.709-15 15c0 33.091 26.924 60 60 60s60-26.909 60-60c0-8.291-6.709-15-15-15zm-265.02-48.823c19.307 17.271 44.15 26.792 70.02 26.792 8.291 0 15-6.709 15-15s-6.709-15-15-15c-18.457 0-36.211-6.797-49.98-19.146-6.152-5.508-15.615-5.024-21.182 1.172-5.537 6.167-5.01 15.645 1.142 21.182zm190.02 26.792c25.869 0 50.713-9.521 70.02-26.792 6.152-5.537 6.68-15.015 1.143-21.182-5.538-6.226-15.029-6.68-21.182-1.172-13.77 12.349-31.523 19.146-49.98 19.146-8.291 0-15 6.709-15 15s6.708 15 14.999 15zm-60 127.031c-57.891 0-105 47.109-105 105 0 8.291 6.709 15 15 15h180c8.291 0 15-6.709 15-15 0-57.891-47.109-105-105-105z" fill="url(#SVGID_2_)"/></g></g></g></svg>