<svg id="Capa_1" enable-background="new 0 0 512 512" height="512" viewBox="0 0 512 512" width="512" xmlns="http://www.w3.org/2000/svg" xmlns:xlink="http://www.w3.org/1999/xlink"><linearGradient id="SVGID_1_" gradientUnits="userSpaceOnUse" x1="256" x2="256" y1="450" y2="0"><stop offset="0" stop-color="#ffbef9"/><stop offset="1" stop-color="#fff1ff"/></linearGradient><linearGradient id="SVGID_2_" gradientUnits="userSpaceOnUse" x1="256" x2="256" y1="512" y2="0"><stop offset="0" stop-color="#a93aff"/><stop offset="1" stop-color="#ff81ff"/></linearGradient><g><g><g><path d="m256 60c-107.696 0-195 87.304-195 195s87.304 195 195 195 195-87.304 195-195-87.304-195-195-195zm-191.777 77.344c11.602-19.233 26.045-36.387 42.891-51.006 4.746-4.102 6.416-10.723 4.248-16.582-2.198-5.874-7.794-9.756-14.063-9.756h-21.299c-24.814 0-46-20.186-46-45 0-8.291-6.709-15-15-15s-15 6.709-15 15v60c0 29.561 18.402 56.367 45.297 68.306 7.002 3.089 15.074.444 18.926-5.962zm432.777-137.344c-8.291 0-15 6.709-15 15 0 24.814-21.186 45-46 45h-21.299c-6.27 0-11.865 3.882-14.063 9.756-2.168 5.859-.498 12.48 4.248 16.582 16.846 14.619 31.289 31.772 42.891 51.006 3.854 6.409 11.927 9.05 18.926 5.962 26.895-11.939 45.297-38.745 45.297-68.306v-60c0-8.291-6.709-15-15-15z" fill="url(#SVGID_1_)"/></g></g><g><g><path d="m256 0c-140.7 0-256 114.3-256 255s115.3 257 256 257 256-116.3 256-257-115.3-255-256-255zm21.899 190.499 63.6-63.6c6-5.7 15.601-5.7 21.301 0l10.5 10.8c23.556 22.935 23.638 61.585 0 84.6-23.574 23.577-60.998 23.604-84.599 0l-10.801-10.5c-5.701-5.699-5.701-15.299-.001-21.3zm-139.198-52.8 10.5-10.8c5.7-5.7 15.3-5.7 21.301 0l63.6 63.6c5.7 6 5.7 15.601 0 21.301l-10.801 10.5c-23.574 23.577-60.998 23.604-84.599 0-23.557-22.937-23.639-61.586-.001-84.601zm278.999 150.3c-15.6 76.5-83.701 132.001-161.7 132.001s-146.1-55.501-161.7-132.001c-.899-4.499.3-9 3.001-12.599 2.999-3.3 7.2-5.4 11.698-5.4h57.001c3.9 0 7.8 1.5 10.499 4.499l19.501 19.2 19.501-19.2c2.699-2.999 6.599-4.499 10.499-4.499h60c3.9 0 7.8 1.5 10.499 4.499l19.501 19.2 19.501-19.2c2.699-2.999 6.599-4.499 10.499-4.499h57.001c4.499 0 8.699 2.1 11.698 5.4 2.701 3.6 3.901 8.1 3.001 12.599z" fill="url(#SVGID_2_)"/></g></g></g></svg>