<svg id="Capa_1" enable-background="new 0 0 512 512" height="512" viewBox="0 0 512 512" width="512" xmlns="http://www.w3.org/2000/svg" xmlns:xlink="http://www.w3.org/1999/xlink"><linearGradient id="SVGID_1_" gradientUnits="userSpaceOnUse" x1="256" x2="256" y1="512" y2="0"><stop offset="0" stop-color="#fd5900"/><stop offset="1" stop-color="#ffde00"/></linearGradient><linearGradient id="SVGID_2_" gradientUnits="userSpaceOnUse" x1="256" x2="256" y1="391.012" y2="121"><stop offset="0" stop-color="#ffe59a"/><stop offset="1" stop-color="#ffffd5"/></linearGradient><g id="Disappointed_5_"><g><g><circle cx="256" cy="256" fill="url(#SVGID_1_)" r="256"/></g></g><g><g><path d="m256 331c-28.184 0-55.107 13.462-72.012 36.006-4.951 6.621-3.604 16.025 3.018 20.991 6.621 4.98 16.025 3.662 21.006-3.003 11.25-15.029 29.209-23.994 47.988-23.994s36.738 8.965 47.988 23.994c4.976 6.626 14.367 7.982 21.006 3.003 6.621-4.966 7.969-14.37 3.018-20.991-16.905-22.544-43.828-36.006-72.012-36.006zm-45-105c0-24.814-20.186-45-45-45s-45 20.186-45 45 20.186 45 45 45 45-20.186 45-45zm135-45c-24.814 0-45 20.186-45 45s20.186 45 45 45 45-20.186 45-45-20.186-45-45-45zm-165-45c0-8.291-6.709-15-15-15-25.869 0-50.713 9.521-70.02 26.792-6.152 5.537-6.68 15.015-1.143 21.182 5.538 6.196 15.018 6.675 21.182 1.172 13.77-12.349 31.524-19.146 49.981-19.146 8.291 0 15-6.709 15-15zm235.02 11.792c-19.307-17.271-44.151-26.792-70.02-26.792-8.291 0-15 6.709-15 15s6.709 15 15 15c18.457 0 36.211 6.797 49.98 19.146 6.175 5.513 15.653 5.013 21.182-1.172 5.537-6.167 5.01-15.645-1.142-21.182z" fill="url(#SVGID_2_)"/></g></g></g></svg>