<svg id="Capa_1" enable-background="new 0 0 512 512" height="512" viewBox="0 0 512 512" width="512" xmlns="http://www.w3.org/2000/svg" xmlns:xlink="http://www.w3.org/1999/xlink"><linearGradient id="SVGID_1_" gradientUnits="userSpaceOnUse" x1="256" x2="256" y1="512" y2="0"><stop offset="0" stop-color="#00b59c"/><stop offset="1" stop-color="#9cffac"/></linearGradient><linearGradient id="SVGID_2_" gradientUnits="userSpaceOnUse" x1="256" x2="256" y1="512" y2="180.999"><stop offset="0" stop-color="#c3ffe8"/><stop offset=".9973" stop-color="#f0fff4"/></linearGradient><g><g><g><circle cx="256" cy="256" fill="url(#SVGID_1_)" r="256"/></g></g><g><g><path d="m361 256c0-12.072-4.836-22.998-12.601-31.088l33.783-15.245c7.529-3.398 10.898-12.29 7.5-19.834-3.428-7.588-12.305-10.898-19.863-7.5-11.102 5.011-117.326 52.955-113.818 51.372-5.033-2.272-118.056-53.285-113.818-51.372-7.588-3.398-16.406-.088-19.863 7.5-3.398 7.544-.029 16.436 7.5 19.834l33.783 15.245c-7.767 8.09-12.603 19.016-12.603 31.088 0 24.814 20.186 45 45 45 23.557 0 42.722-18.252 44.628-41.325l9.19 4.147c3.903 1.777 8.456 1.779 12.363 0l9.19-4.147c1.907 23.073 21.072 41.325 44.629 41.325 24.814 0 45-20.186 45-45zm-196 75.176c-8.291 0-15 6.709-15 15 0 29.399-17.021 55.313-43.33 67.471-11.564-14.484-29.021-22.471-46.67-22.471-33.076 0-60 26.909-60 60 0 25.166 13.74 45.117 37.676 54.756 36.833 14.765 85.68 1.502 114.053-28.066 18.486-18.911 28.271-43.697 28.271-71.69v-60c0-8.291-6.709-15-15-15zm287 60.013c-17.026 0-34.811 7.666-46.67 22.471-26.309-12.158-43.33-38.071-43.33-67.471 0-8.291-6.709-15-15-15s-15 6.709-15 15v60c0 27.993 9.785 52.778 28.184 71.587 28.823 30.054 77.742 42.76 114.141 28.169 23.935-9.639 37.675-29.59 37.675-54.756 0-33.091-26.924-60-60-60zm-166-30.189h-60c-8.291 0-15 6.709-15 15s6.709 15 15 15h60c8.291 0 15-6.709 15-15s-6.709-15-15-15z" fill="url(#SVGID_2_)"/></g></g></g></svg>