<svg id="Capa_1" enable-background="new 0 0 512 512" height="512" viewBox="0 0 512 512" width="512" xmlns="http://www.w3.org/2000/svg" xmlns:xlink="http://www.w3.org/1999/xlink"><linearGradient id="SVGID_1_" gradientUnits="userSpaceOnUse" x1="256" x2="256" y1="512" y2="0"><stop offset="0" stop-color="#00b59c"/><stop offset="1" stop-color="#9cffac"/></linearGradient><linearGradient id="SVGID_2_" gradientUnits="userSpaceOnUse" x1="256" x2="256" y1="403.422" y2="91"><stop offset="0" stop-color="#c3ffe8"/><stop offset=".9973" stop-color="#f0fff4"/></linearGradient><g><g><g><circle cx="256" cy="256" fill="url(#SVGID_1_)" r="256"/></g></g><g><g><path d="m166 241c24.814 0 45-20.186 45-45 0-9.364-2.886-18.058-7.798-25.267 22.474-12.969 37.798-36.978 37.798-64.733 0-8.291-6.709-15-15-15s-15 6.709-15 15c0 24.814-20.186 45-45 45s-45 20.186-45 45 20.186 45 45 45zm142.798-70.267c-4.912 7.209-7.798 15.903-7.798 25.267 0 24.814 20.186 45 45 45s45-20.186 45-45-20.186-45-45-45-45-20.186-45-45c0-8.291-6.709-15-15-15s-15 6.709-15 15c0 27.755 15.324 51.764 37.798 64.733zm97.202 100.267c-32.443 0-59.863 20.813-70.298 49.689-16.653-9.36-43.008-19.689-79.702-19.689s-63.049 10.329-79.702 19.689c-10.435-28.876-37.855-49.689-70.298-49.689-8.291 0-15 6.709-15 15s6.709 15 15 15c24.814 0 45 20.186 45 45 0 12.026-4.688 23.32-13.184 31.802-5.859 5.859-5.859 15.352 0 21.226 5.854 5.854 15.337 5.859 21.211.015 12.35-12.338 19.499-28.299 21.229-45.432 8.709-6.758 33.527-22.611 75.744-22.611 42.294 0 67.123 15.908 75.742 22.599 1.727 17.137 8.879 33.104 21.231 45.443 5.868 5.839 15.351 5.845 21.211-.015 5.859-5.874 5.859-15.366 0-21.226-8.496-8.481-13.184-19.775-13.184-31.801 0-24.814 20.186-45 45-45 8.291 0 15-6.709 15-15s-6.709-15-15-15z" fill="url(#SVGID_2_)"/></g></g></g></svg>