<svg id="Capa_1" enable-background="new 0 0 512 512" height="512" viewBox="0 0 512 512" width="512" xmlns="http://www.w3.org/2000/svg" xmlns:xlink="http://www.w3.org/1999/xlink"><linearGradient id="SVGID_1_" gradientUnits="userSpaceOnUse" x1="256" x2="256" y1="512" y2="0"><stop offset="0" stop-color="#a93aff"/><stop offset="1" stop-color="#ff81ff"/></linearGradient><linearGradient id="SVGID_2_" gradientUnits="userSpaceOnUse" x1="256" x2="256" y1="421" y2="121"><stop offset="0" stop-color="#ffbef9"/><stop offset="1" stop-color="#fff1ff"/></linearGradient><g><g><g><circle cx="256" cy="256" fill="url(#SVGID_1_)" r="256"/></g></g><g><g><path d="m376 271h-240c-8.291 0-15 6.709-15 15 0 74.443 60.557 135 135 135s135-60.557 135-135c0-8.291-6.709-15-15-15zm121-150c-2.988 0-200.271 0-211 0-8.291 0-15 6.709-15 15v15h-30v-15c0-8.291-6.709-15-15-15-6.992 0-199.197 0-211 0-8.291 0-15 6.709-15 15s6.709 15 15 15h46c0 49.629 40.371 90 90 90 39.058 0 72.048-25.155 84.472-60h41.058c12.424 34.845 45.412 60 84.47 60 49.629 0 90-40.371 90-90h46c8.291 0 15-6.709 15-15s-6.709-15-15-15z" fill="url(#SVGID_2_)"/></g></g></g></svg>