<svg id="Capa_1" enable-background="new 0 0 512 512" height="512" viewBox="0 0 512 512" width="512" xmlns="http://www.w3.org/2000/svg" xmlns:xlink="http://www.w3.org/1999/xlink"><linearGradient id="SVGID_1_" gradientUnits="userSpaceOnUse" x1="256" x2="256" y1="512" y2="0"><stop offset="0" stop-color="#5558ff"/><stop offset="1" stop-color="#00c0ff"/></linearGradient><linearGradient id="SVGID_2_" gradientUnits="userSpaceOnUse" x1="256" x2="256" y1="512" y2="151"><stop offset="0" stop-color="#addcff"/><stop offset=".5028" stop-color="#eaf6ff"/><stop offset="1" stop-color="#eaf6ff"/></linearGradient><g><g><g><circle cx="256" cy="256" fill="url(#SVGID_1_)" r="256"/></g></g><g><g><path d="m136 211c0-16.538 13.447-30 30-30s30 13.462 30 30c0 8.291 6.709 15 15 15s15-6.709 15-15c0-33.091-26.924-60-60-60s-60 26.909-60 60c0 8.291 6.709 15 15 15s15-6.709 15-15zm210-60c-33.076 0-60 26.909-60 60 0 8.291 6.709 15 15 15s15-6.709 15-15c0-16.538 13.447-30 30-30s30 13.462 30 30c0 8.291 6.709 15 15 15s15-6.709 15-15c0-33.091-26.924-60-60-60zm30 150h-240c-5.186 0-10.02 2.695-12.773 7.119-2.725 4.424-2.959 9.946-.645 14.59 1.318 2.637 31.787 61.553 118.418 67.764v15.527c0 24.814 20.186 45 45 45 5.244 0 10.313-.908 15-2.563v17.563c0 24.575 19.541 46 45 46 24.814 0 45-21.186 45-46v-150c0-8.291-6.709-15-15-15z" fill="url(#SVGID_2_)"/></g></g></g></svg>