<svg id="Capa_1" enable-background="new 0 0 512 512" height="512" viewBox="0 0 512 512" width="512" xmlns="http://www.w3.org/2000/svg" xmlns:xlink="http://www.w3.org/1999/xlink"><linearGradient id="SVGID_1_" gradientUnits="userSpaceOnUse" x1="256" x2="256" y1="512" y2="0"><stop offset="0" stop-color="#5558ff"/><stop offset="1" stop-color="#00c0ff"/></linearGradient><linearGradient id="SVGID_2_" gradientUnits="userSpaceOnUse" x1="256" x2="256" y1="421" y2="121"><stop offset="0" stop-color="#addcff"/><stop offset=".5028" stop-color="#eaf6ff"/><stop offset="1" stop-color="#eaf6ff"/></linearGradient><g id="Crazy_Face_2_"><g><g><circle cx="256" cy="256" fill="url(#SVGID_1_)" r="256"/></g></g><g><g><path d="m376 271c-5.38 0-237.641 0-240 0-8.291 0-15 6.709-15 15s6.709 15 15 15h45v45c0 41.353 33.633 75 75 75s75-33.647 75-75v-45h45c8.291 0 15-6.709 15-15s-6.709-15-15-15zm-210-30c24.814 0 45-20.186 45-45s-20.186-45-45-45-45 20.186-45 45 20.186 45 45 45zm165 0c33.076 0 60-26.909 60-60s-26.924-60-60-60-60 26.909-60 60 26.924 60 60 60z" fill="url(#SVGID_2_)"/></g></g></g></svg>