<svg id="Capa_1" enable-background="new 0 0 512 512" height="512" viewBox="0 0 512 512" width="512" xmlns="http://www.w3.org/2000/svg" xmlns:xlink="http://www.w3.org/1999/xlink"><linearGradient id="SVGID_1_" gradientUnits="userSpaceOnUse" x1="256" x2="256" y1="512" y2="0"><stop offset="0" stop-color="#00b59c"/><stop offset="1" stop-color="#9cffac"/></linearGradient><linearGradient id="SVGID_2_" gradientUnits="userSpaceOnUse" x1="271" x2="271" y1="421" y2="151"><stop offset="0" stop-color="#c3ffe8"/><stop offset=".9973" stop-color="#f0fff4"/></linearGradient><g id="Kiss_2_"><g><g><circle cx="256" cy="256" fill="url(#SVGID_1_)" r="256"/></g></g><g><g><path d="m166 151c-33.076 0-60 26.909-60 60 0 8.291 6.709 15 15 15s15-6.709 15-15c0-16.538 13.447-30 30-30s30 13.462 30 30c0 8.291 6.709 15 15 15s15-6.709 15-15c0-33.091-26.924-60-60-60zm180 30c16.553 0 30 13.462 30 30 0 8.291 6.709 15 15 15s15-6.709 15-15c0-33.091-26.924-60-60-60s-60 26.909-60 60c0 8.291 6.709 15 15 15s15-6.709 15-15c0-16.538 13.447-30 30-30zm52.5 75c-9.023 0-16.582 3.091-22.5 7.163-5.918-4.072-13.477-7.163-22.5-7.163-21.035 0-37.5 19.761-37.5 45 0 15.659 6.797 45.967 52.354 72.905 2.373 1.392 5.01 2.095 7.646 2.095s5.273-.703 7.646-2.095c45.557-26.938 52.354-57.246 52.354-72.905 0-25.239-16.465-45-37.5-45zm-157.5 15c-8.291 0-15 6.709-15 15s6.709 15 15 15c8.262 0 15 6.724 15 15s-6.738 15-15 15c-8.291 0-15 6.709-15 15s6.709 15 15 15c8.262 0 15 6.724 15 15s-6.738 15-15 15c-8.291 0-15 6.709-15 15s6.709 15 15 15c24.814 0 45-20.186 45-45 0-11.567-4.508-22.021-11.704-30 7.196-7.979 11.704-18.433 11.704-30 0-24.814-20.186-45-45-45z" fill="url(#SVGID_2_)"/></g></g></g></svg>