<svg id="Capa_1" enable-background="new 0 0 512 512" height="512" viewBox="0 0 512 512" width="512" xmlns="http://www.w3.org/2000/svg" xmlns:xlink="http://www.w3.org/1999/xlink"><linearGradient id="SVGID_1_" gradientUnits="userSpaceOnUse" x1="256" x2="256" y1="512" y2="0"><stop offset="0" stop-color="#00b59c"/><stop offset="1" stop-color="#9cffac"/></linearGradient><linearGradient id="SVGID_2_" gradientUnits="userSpaceOnUse" x1="256" x2="256" y1="361" y2="151"><stop offset="0" stop-color="#c3ffe8"/><stop offset=".9973" stop-color="#f0fff4"/></linearGradient><g id="Confused_5_"><g><g><circle cx="256" cy="256" fill="url(#SVGID_1_)" r="256"/></g></g><g><g><path d="m166 241c24.814 0 45-20.186 45-45s-20.186-45-45-45-45 20.186-45 45 20.186 45 45 45zm180 0c24.814 0 45-20.186 45-45s-20.186-45-45-45-45 20.186-45 45 20.186 45 45 45zm19.395 64.395-19.395 19.394-19.395-19.395c-5.859-5.859-15.352-5.859-21.211 0l-19.394 19.395-19.395-19.395c-5.859-5.859-15.352-5.859-21.211 0l-19.394 19.395-19.395-19.395c-5.859-5.859-15.352-5.859-21.211 0l-19.394 19.395-19.395-19.395c-5.859-5.859-15.352-5.859-21.211 0s-5.859 15.352 0 21.211l30 30c5.859 5.859 15.352 5.859 21.211 0l19.395-19.394 19.395 19.395c5.859 5.859 15.352 5.859 21.211 0l19.394-19.395 19.395 19.395c5.859 5.859 15.352 5.859 21.211 0l19.394-19.395 19.395 19.395c5.86 5.859 15.352 5.859 21.211 0l30-30c5.859-5.859 5.859-15.352 0-21.211s-15.352-5.86-21.211 0z" fill="url(#SVGID_2_)"/></g></g></g></svg>