<svg id="Capa_1" enable-background="new 0 0 512 512" height="512" viewBox="0 0 512 512" width="512" xmlns="http://www.w3.org/2000/svg" xmlns:xlink="http://www.w3.org/1999/xlink"><linearGradient id="SVGID_1_" gradientUnits="userSpaceOnUse" x1="256" x2="256" y1="512" y2="0"><stop offset="0" stop-color="#5558ff"/><stop offset="1" stop-color="#00c0ff"/></linearGradient><linearGradient id="SVGID_2_" gradientUnits="userSpaceOnUse" x1="241" x2="241" y1="391.021" y2="166"><stop offset="0" stop-color="#addcff"/><stop offset=".5028" stop-color="#eaf6ff"/><stop offset="1" stop-color="#eaf6ff"/></linearGradient><g id="Crying_5_"><g><g><circle cx="256" cy="256" fill="url(#SVGID_1_)" r="256"/></g></g><g><g><path d="m256 331c-28.184 0-55.107 13.462-72.012 36.006-4.951 6.621-3.604 16.025 3.018 20.991 6.621 4.98 15.996 3.691 21.006-3.003 11.25-15.029 29.209-23.994 47.988-23.994s36.738 8.965 47.988 23.994c4.976 6.626 14.367 7.981 21.006 3.003 6.621-4.966 7.969-14.37 3.018-20.991-16.905-22.544-43.828-36.006-72.012-36.006zm-60-105c0 8.291 6.709 15 15 15s15-6.709 15-15c0-33.091-26.924-60-60-60s-60 26.909-60 60c0 8.291 6.709 15 15 15s15-6.709 15-15c0-16.538 13.447-30 30-30s30 13.462 30 30zm150-60c-33.076 0-60 26.909-60 60 0 8.291 6.709 15 15 15s15-6.709 15-15c0-16.538 13.447-30 30-30s30 13.462 30 30c0 8.291 6.709 15 15 15s15-6.709 15-15c0-33.091-26.924-60-60-60zm-237.334 81.475c-9.814 14.223-32.666 49.35-32.666 68.525 0 24.814 20.186 45 45 45s45-20.186 45-45c0-19.175-22.852-54.302-32.666-68.525-5.566-8.116-19.102-8.116-24.668 0z" fill="url(#SVGID_2_)"/></g></g></g></svg>