<svg id="Capa_1" enable-background="new 0 0 512 512" height="512" viewBox="0 0 512 512" width="512" xmlns="http://www.w3.org/2000/svg" xmlns:xlink="http://www.w3.org/1999/xlink"><linearGradient id="SVGID_1_" gradientUnits="userSpaceOnUse" x1="256" x2="256" y1="512" y2="0"><stop offset="0" stop-color="#fd3a84"/><stop offset="1" stop-color="#ffa68d"/></linearGradient><linearGradient id="SVGID_2_" gradientUnits="userSpaceOnUse" x1="195.5" x2="195.5" y1="512" y2="151.014"><stop offset="0" stop-color="#ffc2cc"/><stop offset="1" stop-color="#fff2f4"/></linearGradient><g><g><g><circle cx="256" cy="256" fill="url(#SVGID_1_)" r="256"/></g></g><g><g><path d="m386.499 305.499c-5.7-5.999-15.298-5.999-20.999 0l-19.5 19.2-19.501-19.2c-5.7-5.999-15.298-5.999-20.999 0l-19.5 19.2-19.501-19.2c-5.7-5.999-15.298-5.999-20.999 0l-7.5 7.5c-7.8-24.3-30.3-41.999-57.001-41.999-11.899 0-26.618 5.141-29.7 7.2l-143.832 84.9c-6.301 3.6-9 11.1-6.599 17.699l31.033 90c1.5 4.5 4.799 7.8 9.3 9.3l90 30.998c6.024 2.413 14.035-.084 17.699-6.599l84.6-145.898c1.199-.601 2.1-1.199 2.999-2.101l19.501-19.2 19.501 19.2c5.7 6 15.298 6 20.999 0l19.501-19.2 19.501 19.2c5.396 6 15.6 6.002 20.999 0l30-30c5.999-5.7 5.999-15.3-.002-21zm-237.299 78.6-45.3 45c-4.892 5.439-14.462 6.539-21 0-5.999-5.7-5.999-15.298 0-20.999l45-45.3c6-5.7 15.3-5.7 21.301 0 5.699 6 5.699 15.3-.001 21.299zm-26.618-151.39c3.654 7.288 12.542 10.45 20.127 6.709 6.195-3.113-22.452 11.26 60.586-30.458 8.943-4.998 10.584-18.928.793-25.301-4.126-2.71-38.957-19.752-61.379-31.077-7.412-3.633-16.377-.703-20.127 6.709-3.691 7.412-.703 16.421 6.709 20.127l33.164 16.582-33.164 16.582c-7.412 3.706-10.4 12.715-6.709 20.127zm186.123-23.749c3.005 1.68 63.59 32.188 60.586 30.458 7.58 3.739 16.469.586 20.127-6.709 3.691-7.412.703-16.421-6.709-20.127l-33.164-16.582 33.164-16.582c7.412-3.706 10.4-12.715 6.709-20.127-3.721-7.412-12.715-10.371-20.127-6.709-28.555 14.427-57.048 28.202-61.437 31.123-9.79 6.424-7.947 20.338.851 25.255z" fill="url(#SVGID_2_)"/></g></g></g></svg>