<svg id="Capa_1" enable-background="new 0 0 512 512" height="512" viewBox="0 0 512 512" width="512" xmlns="http://www.w3.org/2000/svg" xmlns:xlink="http://www.w3.org/1999/xlink"><linearGradient id="SVGID_1_" gradientUnits="userSpaceOnUse" x1="256" x2="256" y1="512" y2="0"><stop offset="0" stop-color="#00b59c"/><stop offset="1" stop-color="#9cffac"/></linearGradient><linearGradient id="SVGID_2_" gradientUnits="userSpaceOnUse" x1="260.79" x2="260.79" y1="415.624" y2="151"><stop offset="0" stop-color="#c3ffe8"/><stop offset=".9973" stop-color="#f0fff4"/></linearGradient><g id="Yummy_2_"><g><g><circle cx="256" cy="256" fill="url(#SVGID_1_)" r="256"/></g></g><g><g><path d="m136 211c0-16.538 13.447-30 30-30s30 13.462 30 30c0 8.291 6.709 15 15 15s15-6.709 15-15c0-33.091-26.924-60-60-60s-60 26.909-60 60c0 8.291 6.709 15 15 15s15-6.709 15-15zm165 15c8.291 0 15-6.709 15-15 0-16.538 13.447-30 30-30s30 13.462 30 30c0 8.291 6.709 15 15 15s15-6.709 15-15c0-33.091-26.924-60-60-60s-60 26.909-60 60c0 8.291 6.709 15 15 15zm92.666 61.567-5.594-5.451c.661-3.191 1.589-6.213 1.932-9.578.85-8.247-5.127-15.615-13.389-16.465-7.646-.703-15.586 5.142-16.436 13.389-.498 4.761-1.523 9.272-2.754 13.521-2.138 3.001-20.757 78.017-101.425 78.017-52.764 0-97.559-39.507-104.209-91.89-1.055-8.232-9.053-14.019-16.758-12.993-8.232 1.04-14.063 8.555-13.008 16.772 8.555 67.34 66.153 118.111 133.975 118.111 8.774 0 17.501-1.17 26.133-2.9l5.625 5.786c29.299 28.891 76.85 29.102 106.055-.073 29.033-29.078 29.062-76.641-.147-106.246z" fill="url(#SVGID_2_)"/></g></g></g></svg>