<svg id="Capa_1" enable-background="new 0 0 512 512" height="512" viewBox="0 0 512 512" width="512" xmlns="http://www.w3.org/2000/svg" xmlns:xlink="http://www.w3.org/1999/xlink"><linearGradient id="SVGID_1_" gradientUnits="userSpaceOnUse" x1="256" x2="256" y1="512" y2="0"><stop offset="0" stop-color="#fd5900"/><stop offset="1" stop-color="#ffde00"/></linearGradient><linearGradient id="SVGID_2_" gradientUnits="userSpaceOnUse" x1="256" x2="256" y1="421" y2="38.2"><stop offset="0" stop-color="#ffe59a"/><stop offset="1" stop-color="#ffffd5"/></linearGradient><g id="Blessed_2_"><g><g><path d="m474.699 125.2c-5.099-9.001-10.799-17.4-17.1-25.201-6.299-8.101-12.9-15.901-20.1-23.101l3.545-23.258-52.444-15.44c-38.7-23.7-84-38.2-132.6-38.2s-93.9 14.5-132.6 38.2l-54.042 16.68 5.142 22.02c-7.2 7.2-13.801 15-20.099 23.101-6.301 7.8-12.001 16.2-17.1 25.201-23.101 38.097-37.301 83.097-37.301 130.798 0 140.7 115.3 256 256 256s256-115.3 256-256c0-47.701-14.2-92.701-37.301-130.8z" fill="url(#SVGID_1_)"/></g></g><g><g><path d="m211 226c0-24.814-20.186-45-45-45s-45 20.186-45 45 20.186 45 45 45 45-20.186 45-45zm135-45c-24.814 0-45 20.186-45 45s20.186 45 45 45 45-20.186 45-45-20.186-45-45-45zm42.6-142.8c17.701 10.799 34.2 24 48.9 38.699 23.4 5.101 35.7 10.501 41.1 14.101-3.9 2.699-10.8 5.7-21 9-33.6 10.201-101.1 21-201.599 21s-168-10.8-201.6-21c-10.201-3.299-17.1-6.3-21-9 5.4-3.6 17.699-9 41.1-14.101 14.7-14.7 31.199-27.9 48.9-38.699-122.401 15.3-123.401 42.299-123.401 52.8 0 14.7 15.399 25.8 37.301 34.2 62.398 24.3 187.199 25.8 218.699 25.8s156.301-1.5 218.699-25.8c21.902-8.4 37.301-19.5 37.301-34.2 0-10.501-1-37.5-123.4-52.8zm-42.6 262.8c-8.291 0-15 6.709-15 15 0 41.353-33.633 75-75 75s-75-33.647-75-75c0-8.291-6.709-15-15-15s-15 6.709-15 15c0 57.891 47.109 105 105 105s105-47.109 105-105c0-8.291-6.709-15-15-15z" fill="url(#SVGID_2_)"/></g></g></g></svg>