<svg id="Capa_1" enable-background="new 0 0 512 512" height="512" viewBox="0 0 512 512" width="512" xmlns="http://www.w3.org/2000/svg" xmlns:xlink="http://www.w3.org/1999/xlink"><linearGradient id="SVGID_1_" gradientUnits="userSpaceOnUse" x1="256" x2="256" y1="512" y2="0"><stop offset="0" stop-color="#fd3a84"/><stop offset="1" stop-color="#ffa68d"/></linearGradient><linearGradient id="SVGID_2_" gradientUnits="userSpaceOnUse" x1="195.5" x2="195.5" y1="421.444" y2="120.987"><stop offset="0" stop-color="#ffc2cc"/><stop offset="1" stop-color="#fff2f4"/></linearGradient><g><g><g><circle cx="256" cy="256" fill="url(#SVGID_1_)" r="256"/></g></g><g><g><path d="m46.934 248.661c-7.852 13.945-46.934 84.946-46.934 112.339 0 33.091 26.924 60 60 60s60-26.909 60-60c0-27.393-39.082-98.394-46.934-112.339-5.273-9.463-20.859-9.463-26.132 0zm289.193 87.085c-51.68-25.84-108.574-25.84-160.254 0-26.279 13.14-29.912 40.269-19.922 60.264 10.827 21.742 35.381 32.592 60.176 20.244 35.127-17.549 57.803-8.628 76.084-1.479 39.128 15.329 61.829-4.406 67.5-28.447 4.893-20.758-4.57-41.075-23.584-50.582zm-125.127-79.746c0-24.814-20.186-45-45-45s-45 20.186-45 45 20.186 45 45 45 45-20.186 45-45zm135-45c-24.814 0-45 20.186-45 45s20.186 45 45 45 45-20.186 45-45-20.186-45-45-45zm-220.02-63.823c19.307 17.271 44.15 26.792 70.02 26.792 8.291 0 15-6.709 15-15s-6.709-15-15-15c-18.457 0-36.211-6.797-49.98-19.146-6.152-5.493-15.615-5.01-21.182 1.172-5.537 6.167-5.01 15.645 1.142 21.182zm190.02 26.792c25.869 0 50.713-9.521 70.02-26.792 6.152-5.537 6.68-15.015 1.143-21.182-5.537-6.211-15.059-6.694-21.182-1.172-13.77 12.349-31.523 19.146-49.98 19.146-8.291 0-15 6.709-15 15s6.708 15 14.999 15z" fill="url(#SVGID_2_)"/></g></g></g></svg>