<svg id="Capa_1" enable-background="new 0 0 512 512" height="512" viewBox="0 0 512 512" width="512" xmlns="http://www.w3.org/2000/svg" xmlns:xlink="http://www.w3.org/1999/xlink"><linearGradient id="SVGID_1_" gradientUnits="userSpaceOnUse" x1="256" x2="256" y1="512" y2="0"><stop offset="0" stop-color="#a93aff"/><stop offset="1" stop-color="#ff81ff"/></linearGradient><linearGradient id="SVGID_2_" gradientUnits="userSpaceOnUse" x1="256" x2="256" y1="512" y2="181"><stop offset="0" stop-color="#ffbef9"/><stop offset="1" stop-color="#fff1ff"/></linearGradient><g><g><g><circle cx="256" cy="256" fill="url(#SVGID_1_)" r="256"/></g></g><g><g><path d="m256 331c-24.814 0-45 20.186-45 45 0 8.291 6.709 15 15 15s15-6.709 15-15c0-8.276 6.738-15 15-15s15 6.724 15 15c0 8.291 6.709 15 15 15s15-6.709 15-15c0-24.814-20.186-45-45-45zm-60-150c-4.271 0-86.019 0-90 0-8.291 0-15 6.709-15 15v301c0 8.291 6.709 15 15 15h60c8.291 0 15-6.709 15-15v-286h15c8.291 0 15-6.709 15-15s-6.709-15-15-15zm210 0c-3.717 0-85.906 0-90 0-8.291 0-15 6.709-15 15s6.709 15 15 15h15v286c0 8.291 6.709 15 15 15h60c8.291 0 15-6.709 15-15v-301c0-8.291-6.709-15-15-15z" fill="url(#SVGID_2_)"/></g></g></g></svg>