<svg id="Capa_1" enable-background="new 0 0 512 512" height="512" viewBox="0 0 512 512" width="512" xmlns="http://www.w3.org/2000/svg" xmlns:xlink="http://www.w3.org/1999/xlink"><linearGradient id="SVGID_1_" gradientUnits="userSpaceOnUse" x1="256" x2="256" y1="512" y2="0"><stop offset="0" stop-color="#fd5900"/><stop offset="1" stop-color="#ffde00"/></linearGradient><linearGradient id="SVGID_2_" gradientUnits="userSpaceOnUse" x1="256" x2="256" y1="391" y2="91"><stop offset="0" stop-color="#ffe59a"/><stop offset="1" stop-color="#ffffd5"/></linearGradient><g id="Greed_2_"><g><g><circle cx="256" cy="256" fill="url(#SVGID_1_)" r="256"/></g></g><g><g><path d="m324.994 334.003c-6.592-4.937-15.996-3.662-21.006 3.003-11.25 15.029-29.209 23.994-47.988 23.994s-36.738-8.965-47.988-23.994c-5.01-6.665-14.414-7.954-21.006-3.003-6.621 4.966-7.969 14.37-3.018 20.991 16.905 22.544 43.828 36.006 72.012 36.006s55.107-13.462 72.012-36.006c4.951-6.621 3.603-16.025-3.018-20.991zm-113.994-108.003c0-24.814-20.186-45-45-45-8.262 0-15-6.724-15-15s6.738-15 15-15 15 6.724 15 15c0 8.291 6.709 15 15 15s15-6.709 15-15c0-19.53-12.578-36.024-30-42.237v-17.763c0-8.291-6.709-15-15-15s-15 6.709-15 15v17.763c-17.422 6.212-30 22.707-30 42.237 0 24.814 20.186 45 45 45 8.262 0 15 6.724 15 15s-6.738 15-15 15-15-6.724-15-15c0-8.291-6.709-15-15-15s-15 6.709-15 15c0 19.53 12.578 36.024 30 42.237v17.763c0 8.291 6.709 15 15 15s15-6.709 15-15v-17.763c17.422-6.213 30-22.707 30-42.237zm135-45c-8.262 0-15-6.724-15-15s6.738-15 15-15 15 6.724 15 15c0 8.291 6.709 15 15 15s15-6.709 15-15c0-19.53-12.578-36.024-30-42.237v-17.763c0-8.291-6.709-15-15-15s-15 6.709-15 15v17.763c-17.422 6.212-30 22.707-30 42.237 0 24.814 20.186 45 45 45 8.262 0 15 6.724 15 15s-6.738 15-15 15-15-6.724-15-15c0-8.291-6.709-15-15-15s-15 6.709-15 15c0 19.53 12.578 36.024 30 42.237v17.763c0 8.291 6.709 15 15 15s15-6.709 15-15v-17.763c17.422-6.212 30-22.707 30-42.237 0-24.814-20.186-45-45-45z" fill="url(#SVGID_2_)"/></g></g></g></svg>