<svg id="Capa_1" enable-background="new 0 0 512 512" height="512" viewBox="0 0 512 512" width="512" xmlns="http://www.w3.org/2000/svg" xmlns:xlink="http://www.w3.org/1999/xlink"><linearGradient id="SVGID_1_" gradientUnits="userSpaceOnUse" x1="256" x2="256" y1="512" y2="0"><stop offset="0" stop-color="#5558ff"/><stop offset="1" stop-color="#00c0ff"/></linearGradient><linearGradient id="SVGID_2_" gradientUnits="userSpaceOnUse" x1="256" x2="256" y1="451" y2="166"><stop offset="0" stop-color="#addcff"/><stop offset=".5028" stop-color="#eaf6ff"/><stop offset="1" stop-color="#eaf6ff"/></linearGradient><g><g><g><circle cx="256" cy="256" fill="url(#SVGID_1_)" r="256"/></g></g><g><g><path d="m196 226c0 8.291 6.709 15 15 15s15-6.709 15-15c0-33.091-26.924-60-60-60s-60 26.909-60 60c0 8.291 6.709 15 15 15s15-6.709 15-15c0-16.538 13.447-30 30-30s30 13.462 30 30zm180 0c0 8.291 6.709 15 15 15s15-6.709 15-15c0-33.091-26.924-60-60-60s-60 26.909-60 60c0 8.291 6.709 15 15 15s15-6.709 15-15c0-16.538 13.447-30 30-30s30 13.462 30 30zm-245.805 45.938c-15.41 4.321-93.252 26.895-112.617 46.26-23.408 23.394-23.408 61.465 0 84.858 23.38 23.379 61.469 23.375 84.844 0 19.365-19.365 41.924-97.207 46.26-112.617 1.465-5.229 0-10.825-3.838-14.663s-9.492-5.318-14.649-3.838zm364.227 46.259c-19.365-19.365-97.207-41.938-112.617-46.26-5.098-1.45-10.811.015-14.648 3.838-3.838 3.838-5.303 9.434-3.838 14.663 4.336 15.41 26.895 93.252 46.26 112.617 23.38 23.379 61.469 23.375 84.844 0 23.407-23.393 23.407-61.464-.001-84.858zm-178.422-17.197h-120c-8.291 0-15 6.709-15 15v60c0 41.353 33.633 75 75 75s75-33.647 75-75v-60c0-8.291-6.709-15-15-15z" fill="url(#SVGID_2_)"/></g></g></g></svg>