<svg id="Capa_1" enable-background="new 0 0 512 512" height="512" viewBox="0 0 512 512" width="512" xmlns="http://www.w3.org/2000/svg" xmlns:xlink="http://www.w3.org/1999/xlink"><linearGradient id="SVGID_1_" gradientUnits="userSpaceOnUse" x1="256" x2="256" y1="512" y2="0"><stop offset="0" stop-color="#00b59c"/><stop offset="1" stop-color="#9cffac"/></linearGradient><linearGradient id="SVGID_2_" gradientUnits="userSpaceOnUse" x1="301.501" x2="301.501" y1="451" y2="121.02"><stop offset="0" stop-color="#c3ffe8"/><stop offset=".9973" stop-color="#f0fff4"/></linearGradient><g><g><g><circle cx="256" cy="256" fill="url(#SVGID_1_)" r="256"/></g></g><g><g><path d="m211 226c0-24.814-20.186-45-45-45s-45 20.186-45 45 20.186 45 45 45 45-20.186 45-45zm135 45c24.814 0 45-20.186 45-45s-20.186-45-45-45-45 20.186-45 45 20.186 45 45 45zm-165.996-140.361c-2.959-7.734-11.689-11.558-19.365-8.643l-60 22.969c-7.734 2.959-11.602 11.631-8.643 19.365 2.963 7.75 11.642 11.603 19.365 8.643l60-22.969c7.735-2.959 11.602-11.631 8.643-19.365zm160.635 19.365 60 22.969c7.714 2.957 16.399-.884 19.365-8.643 2.959-7.734-.908-16.406-8.643-19.365l-60-22.969c-7.676-2.9-16.406.908-19.365 8.643s.908 16.406 8.643 19.365zm-137.11 230.376c-16.055-6.812-30.527-16.567-42.949-28.975-5.859-5.859-15.352-5.859-21.211 0s-5.859 15.366 0 21.211c15.176 15.161 32.813 27.07 52.441 35.391 7.565 3.201 16.432-.281 19.658-7.954 3.253-7.632-.322-16.436-7.939-19.673zm264.961-46.787-199.395-60.659c-4.247-1.289-8.642-1.934-13.095-1.934-24.814 0-45 20.186-45 45 0 17.373 10.166 33.369 25.869 40.752l188.643 88.579c8.027 3.765 16.582 5.669 25.488 5.669 33.076 0 61-26.909 61-60 0-26.602-18.08-49.673-43.51-57.407z" fill="url(#SVGID_2_)"/></g></g></g></svg>